<svg width="232" height="301" viewBox="0 0 232 301" fill="none" xmlns="http://www.w3.org/2000/svg">
<g clip-path="url(#clip0_643_152)">
<path d="M305.5 76.5L305.805 73.5155L305.5 76.5ZM26.5631 227.112C26.9011 228.734 28.4901 229.775 30.1121 229.437L56.5441 223.928C58.1661 223.59 59.207 222.001 58.869 220.379C58.5309 218.757 56.942 217.716 55.32 218.054L31.8248 222.951L26.9283 199.456C26.5903 197.834 25.0013 196.793 23.3793 197.131C21.7573 197.469 20.7164 199.058 21.0545 200.68L26.5631 227.112ZM579.326 -62.3604C562.713 -29.7119 536.766 8.54178 493.863 36.4863C451.007 64.3997 390.961 82.2049 305.805 73.5155L305.195 79.4845C391.539 88.2951 452.993 70.267 497.137 41.5139C541.234 12.7917 567.787 -26.4545 584.674 -59.6393L579.326 -62.3604ZM305.805 73.5155C215.18 64.2681 154.818 87.5861 112.359 120.692C70.0554 153.676 45.7068 196.285 26.9905 224.856L32.0095 228.144C50.9599 199.215 74.716 157.651 116.048 125.424C157.225 93.3179 216.029 70.3859 305.195 79.4845L305.805 73.5155Z" fill="#0D64E5"/>
<path d="M291.062 61.0726L292.378 58.3767L291.062 61.0726ZM30.9726 98.3899C30.7307 100.029 31.8633 101.554 33.5024 101.796L60.2131 105.738C61.8522 105.98 63.377 104.847 63.6189 103.208C63.8609 101.569 62.7282 100.044 61.0891 99.8022L37.3463 96.2981L40.8504 72.5553C41.0923 70.9162 39.9597 69.3913 38.3206 69.1494C36.6815 68.9075 35.1566 70.0402 34.9147 71.6792L30.9726 98.3899ZM542.96 30.973C520.772 51.562 489.778 73.8143 448.608 83.2512C407.493 92.6753 355.911 89.3918 292.378 58.3767L289.746 63.7685C354.353 95.3079 407.333 98.8676 449.948 89.0995C492.508 79.3443 524.413 56.3691 547.041 35.3711L542.96 30.973ZM292.378 58.3767C224.552 25.2657 170.89 26.1363 128.336 39.7805C85.9695 53.3644 54.8148 79.5857 32.1516 96.4196L35.7293 101.236C58.7356 84.1475 88.9742 58.7018 130.168 45.494C171.173 32.3466 223.237 31.3009 289.746 63.7685L292.378 58.3767Z" fill="#0D64E5" fill-opacity="0.5"/>
</g>
<defs>
<clipPath id="clip0_643_152">
<rect width="232" height="301" fill="white" transform="translate(232 301) rotate(-180)"/>
</clipPath>
</defs>
</svg>
