<svg width="232" height="301" viewBox="0 0 232 301" fill="none" xmlns="http://www.w3.org/2000/svg">
<g clip-path="url(#clip0_643_151)">
<path d="M-55.825 219.131L-55.8031 222.13L-55.825 219.131ZM205.075 39.0721C204.562 37.4965 202.87 36.6347 201.294 37.1471L175.618 45.498C174.042 46.0105 173.181 47.7032 173.693 49.2788C174.205 50.8544 175.898 51.7163 177.474 51.2038L200.297 43.7808L207.72 66.604C208.232 68.1796 209.925 69.0415 211.501 68.529C213.076 68.0165 213.938 66.3238 213.426 64.7482L205.075 39.0721ZM-312.923 386.951C-299.959 352.689 -278.327 311.84 -238.718 279.395C-199.153 246.986 -141.399 222.755 -55.8031 222.13L-55.8469 216.131C-142.637 216.764 -201.765 241.369 -242.52 274.754C-283.231 308.102 -305.358 350.003 -318.534 384.828L-312.923 386.951ZM-55.8031 222.13C35.2892 221.466 92.7572 191.721 131.364 154.193C169.828 116.803 189.398 71.7988 204.895 41.3612L199.549 38.6388C183.857 69.4571 164.763 113.359 127.181 149.891C89.7413 186.285 33.7803 215.477 -55.8469 216.131L-55.8031 222.13Z" fill="#0D64E5"/>
<path d="M-59.062 239.927L-60.3781 242.623L-59.062 239.927ZM201.027 202.61C201.269 200.971 200.137 199.446 198.498 199.204L171.787 195.262C170.148 195.02 168.623 196.153 168.381 197.792C168.139 199.431 169.272 200.956 170.911 201.198L194.654 204.702L191.15 228.445C190.908 230.084 192.04 231.609 193.679 231.851C195.319 232.092 196.843 230.96 197.085 229.321L201.027 202.61ZM-310.96 270.027C-288.772 249.438 -257.778 227.186 -216.608 217.749C-175.493 208.325 -123.911 211.608 -60.3781 242.623L-57.7459 237.232C-122.353 205.692 -175.333 202.132 -217.948 211.9C-260.508 221.656 -292.413 244.631 -315.041 265.629L-310.96 270.027ZM-60.3781 242.623C7.44837 275.734 61.1098 274.864 103.664 261.219C146.031 247.636 177.185 221.414 199.848 204.58L196.271 199.764C173.264 216.853 143.026 242.298 101.832 255.506C60.8272 268.653 8.76255 269.699 -57.7459 237.232L-60.3781 242.623Z" fill="#0D64E5" fill-opacity="0.5"/>
</g>
<defs>
<clipPath id="clip0_643_151">
<rect width="232" height="301" fill="white"/>
</clipPath>
</defs>
</svg>
