<svg width="214" height="264" viewBox="0 0 214 264" fill="none" xmlns="http://www.w3.org/2000/svg">
<path d="M-55.825 182.131L-55.8031 185.13L-55.825 182.131ZM205.075 2.07213C204.562 0.496514 202.87 -0.365345 201.294 0.14711L175.618 8.49805C174.042 9.01051 173.181 10.7032 173.693 12.2788C174.205 13.8544 175.898 14.7163 177.474 14.2038L200.297 6.78079L207.72 29.604C208.232 31.1796 209.925 32.0415 211.501 31.529C213.076 31.0165 213.938 29.3238 213.426 27.7482L205.075 2.07213ZM-312.923 349.951C-299.959 315.689 -278.327 274.84 -238.718 242.395C-199.153 209.986 -141.399 185.755 -55.8031 185.13L-55.8469 179.131C-142.637 179.764 -201.765 204.369 -242.52 237.754C-283.231 271.102 -305.358 313.003 -318.534 347.828L-312.923 349.951ZM-55.8031 185.13C35.2892 184.466 92.7572 154.721 131.364 117.193C169.828 79.8028 189.398 34.7988 204.895 4.3612L199.549 1.63882C183.857 32.4571 164.763 76.359 127.181 112.891C89.7413 149.285 33.7803 178.477 -55.8469 179.131L-55.8031 185.13Z" fill="#0D64E5"/>
</svg>
