<svg width="202" height="76" viewBox="0 0 202 76" fill="none" xmlns="http://www.w3.org/2000/svg">
<path d="M-59.062 44.9274L-60.3781 47.6233L-59.062 44.9274ZM201.027 7.61008C201.269 5.97098 200.137 4.44613 198.498 4.20422L171.787 0.262074C170.148 0.0201616 168.623 1.15281 168.381 2.79192C168.139 4.43101 169.272 5.95587 170.911 6.19778L194.654 9.70191L191.15 33.4447C190.908 35.0838 192.04 36.6087 193.679 36.8506C195.319 37.0925 196.843 35.9598 197.085 34.3208L201.027 7.61008ZM-310.96 75.027C-288.772 54.438 -257.778 32.1857 -216.608 22.7488C-175.493 13.3247 -123.911 16.6082 -60.3781 47.6233L-57.7459 42.2315C-122.353 10.6921 -175.333 7.13242 -217.948 16.9005C-260.508 26.6557 -292.413 49.6309 -315.041 70.6289L-310.96 75.027ZM-60.3781 47.6233C7.44837 80.7343 61.1098 79.8637 103.664 66.2195C146.031 52.6356 177.185 26.4143 199.848 9.58038L196.271 4.76376C173.264 21.8525 143.026 47.2982 101.832 60.506C60.8272 73.6534 8.76255 74.6991 -57.7459 42.2315L-60.3781 47.6233Z" fill="#0D64E5" fill-opacity="0.5"/>
</svg>
