<svg width="154" height="155" viewBox="0 0 154 155" fill="none" xmlns="http://www.w3.org/2000/svg">
<g clip-path="url(#clip0_248_1113)">
<path d="M137.199 21.1691C138.038 19.74 137.559 17.9019 136.129 17.0636L112.84 3.40378C111.411 2.56554 109.572 3.04459 108.734 4.47376C107.896 5.90292 108.375 7.74102 109.804 8.57926L130.506 20.7213L118.364 41.4233C117.526 42.8524 118.005 44.6905 119.434 45.5288C120.863 46.367 122.701 45.888 123.54 44.4588L137.199 21.1691ZM15.6991 186.245C9.88735 152.846 13.7911 126.234 22.946 105.037C32.1096 83.8196 46.6166 67.839 62.2872 55.8562C93.7021 31.8341 129.487 24.0871 135.368 22.5544L133.855 16.7483C128.106 18.2465 91.1555 26.2283 58.6426 51.0899C42.3492 63.549 27.0944 80.2989 17.4378 102.658C7.77237 125.037 3.79741 152.848 9.78792 187.274L15.6991 186.245Z" fill="white"/>
<path d="M125.695 124.631C127.062 123.695 127.411 121.828 126.476 120.461L111.224 98.1809C110.288 96.8137 108.421 96.464 107.054 97.3999C105.687 98.3358 105.337 100.203 106.273 101.57L119.83 121.374L100.025 134.931C98.6581 135.867 98.3085 137.734 99.2444 139.101C100.18 140.469 102.047 140.818 103.415 139.882L125.695 124.631ZM19.084 181.931C24.3579 162.71 33.0758 149.607 43.1666 140.702C53.2739 131.783 64.9135 126.942 76.2148 124.5C98.9083 119.598 119.871 124.434 123.448 125.104L124.552 119.207C121.11 118.562 98.9924 113.442 74.9479 118.636C62.8802 121.242 50.2365 126.462 39.1967 136.203C28.1405 145.96 18.8477 160.117 13.2979 180.343L19.084 181.931Z" fill="white" fill-opacity="0.5"/>
</g>
<defs>
<clipPath id="clip0_248_1113">
<rect width="155" height="154" fill="white" transform="matrix(0 -1 -1 0 154 155)"/>
</clipPath>
</defs>
</svg>
