<svg width="162" height="125" viewBox="0 0 162 125" fill="none" xmlns="http://www.w3.org/2000/svg">
<g clip-path="url(#clip0_810_1039)">
<path d="M117.939 154.91L119.939 154.895L117.939 154.91ZM20.9107 14.125C19.8602 14.4666 19.2857 15.5951 19.6273 16.6455L25.1946 33.7629C25.5362 34.8133 26.6647 35.3879 27.7151 35.0463C28.7655 34.7046 29.3401 33.5761 28.9985 32.5257L24.0498 17.3103L39.2652 12.3615C40.3156 12.0199 40.8902 10.8914 40.5486 9.84103C40.2069 8.79063 39.0785 8.21606 38.028 8.55768L20.9107 14.125ZM208.397 292.921C189.993 285.957 168.076 274.347 150.672 253.1C133.291 231.882 120.274 200.887 119.939 154.895L115.939 154.924C116.28 201.712 129.547 233.623 147.577 255.634C165.583 277.616 188.203 289.557 206.982 296.662L208.397 292.921ZM119.939 154.895C119.58 105.774 103.535 74.7479 83.265 53.8948C63.0862 33.1361 38.794 22.5731 22.4367 14.2446L20.6218 17.8092C37.2328 26.2669 60.7903 36.5129 80.3968 56.6829C99.9115 76.7585 115.587 106.78 115.939 154.924L119.939 154.895Z" fill="#0D64E5"/>
<path d="M129.131 156.651L130.928 157.529L129.131 156.651ZM109.102 16.2879C108.01 16.1267 106.993 16.8818 106.832 17.9745L104.204 35.7816C104.042 36.8743 104.797 37.8909 105.89 38.0522C106.983 38.2135 108 37.4584 108.161 36.3656L110.497 20.5371L126.325 22.8732C127.418 23.0344 128.435 22.2793 128.596 21.1866C128.757 20.0939 128.002 19.0773 126.909 18.916L109.102 16.2879ZM145.613 291.962C134.558 280.049 122.628 263.426 117.569 241.357C112.519 219.325 114.269 191.654 130.928 157.529L127.333 155.774C110.325 190.615 108.391 219.219 113.671 242.251C118.941 265.246 131.353 282.476 142.681 294.683L145.613 291.962ZM130.928 157.529C148.79 120.939 148.332 91.9557 140.957 68.9531C133.622 46.0759 119.46 29.2494 110.416 17.0739L107.205 19.4591C116.418 31.8633 130.064 48.079 137.148 70.1743C144.192 92.1441 144.766 120.063 127.333 155.774L130.928 157.529Z" fill="#0D64E5" fill-opacity="0.5"/>
</g>
<defs>
<clipPath id="clip0_810_1039">
<rect width="124.864" height="162" fill="white" transform="translate(0 124.864) rotate(-90)"/>
</clipPath>
</defs>
</svg>
