<svg width="435" height="435" viewBox="0 0 435 435" fill="none" xmlns="http://www.w3.org/2000/svg">
<g opacity="0.2">
<line x1="58.2622" y1="2.18557e-08" x2="58.2622" y2="435" stroke="url(#paint0_linear_202_326)"/>
<line y1="376.738" x2="435" y2="376.738" stroke="url(#paint1_linear_202_326)"/>
<line x1="98.1968" y1="2.18557e-08" x2="98.1968" y2="435" stroke="url(#paint2_linear_202_326)"/>
<line y1="336.803" x2="435" y2="336.803" stroke="url(#paint3_linear_202_326)"/>
<line x1="138.131" y1="2.18557e-08" x2="138.131" y2="435" stroke="url(#paint4_linear_202_326)"/>
<line y1="296.869" x2="435" y2="296.869" stroke="url(#paint5_linear_202_326)"/>
<line x1="178.065" y1="2.18557e-08" x2="178.065" y2="435" stroke="url(#paint6_linear_202_326)"/>
<line y1="256.934" x2="435" y2="256.934" stroke="url(#paint7_linear_202_326)"/>
<line x1="218" y1="2.18557e-08" x2="218" y2="435" stroke="url(#paint8_linear_202_326)"/>
<line y1="217" x2="435" y2="217" stroke="url(#paint9_linear_202_326)"/>
<line x1="257.935" y1="2.18557e-08" x2="257.935" y2="435" stroke="url(#paint10_linear_202_326)"/>
<line y1="177.066" x2="435" y2="177.066" stroke="url(#paint11_linear_202_326)"/>
<line x1="297.869" y1="2.18557e-08" x2="297.869" y2="435" stroke="url(#paint12_linear_202_326)"/>
<line y1="137.131" x2="435" y2="137.131" stroke="url(#paint13_linear_202_326)"/>
<line x1="337.803" y1="2.18557e-08" x2="337.803" y2="435" stroke="url(#paint14_linear_202_326)"/>
<line y1="97.1968" x2="435" y2="97.1968" stroke="url(#paint15_linear_202_326)"/>
<line x1="377.738" y1="2.18557e-08" x2="377.738" y2="435" stroke="url(#paint16_linear_202_326)"/>
<line y1="57.2622" x2="435" y2="57.2622" stroke="url(#paint17_linear_202_326)"/>
</g>
<defs>
<linearGradient id="paint0_linear_202_326" x1="57.7622" y1="0" x2="57.7622" y2="435" gradientUnits="userSpaceOnUse">
<stop stop-opacity="0"/>
<stop offset="0.520833"/>
<stop offset="1" stop-opacity="0"/>
</linearGradient>
<linearGradient id="paint1_linear_202_326" x1="0" y1="377.238" x2="435" y2="377.238" gradientUnits="userSpaceOnUse">
<stop stop-opacity="0"/>
<stop offset="0.520833"/>
<stop offset="1" stop-opacity="0"/>
</linearGradient>
<linearGradient id="paint2_linear_202_326" x1="97.6968" y1="0" x2="97.6968" y2="435" gradientUnits="userSpaceOnUse">
<stop stop-opacity="0"/>
<stop offset="0.520833"/>
<stop offset="1" stop-opacity="0"/>
</linearGradient>
<linearGradient id="paint3_linear_202_326" x1="0" y1="337.303" x2="435" y2="337.303" gradientUnits="userSpaceOnUse">
<stop stop-opacity="0"/>
<stop offset="0.520833"/>
<stop offset="1" stop-opacity="0"/>
</linearGradient>
<linearGradient id="paint4_linear_202_326" x1="137.631" y1="0" x2="137.631" y2="435" gradientUnits="userSpaceOnUse">
<stop stop-opacity="0"/>
<stop offset="0.520833"/>
<stop offset="1" stop-opacity="0"/>
</linearGradient>
<linearGradient id="paint5_linear_202_326" x1="0" y1="297.369" x2="435" y2="297.369" gradientUnits="userSpaceOnUse">
<stop stop-opacity="0"/>
<stop offset="0.520833"/>
<stop offset="1" stop-opacity="0"/>
</linearGradient>
<linearGradient id="paint6_linear_202_326" x1="177.565" y1="0" x2="177.565" y2="435" gradientUnits="userSpaceOnUse">
<stop stop-opacity="0"/>
<stop offset="0.520833"/>
<stop offset="1" stop-opacity="0"/>
</linearGradient>
<linearGradient id="paint7_linear_202_326" x1="0" y1="257.434" x2="435" y2="257.434" gradientUnits="userSpaceOnUse">
<stop stop-opacity="0"/>
<stop offset="0.520833"/>
<stop offset="1" stop-opacity="0"/>
</linearGradient>
<linearGradient id="paint8_linear_202_326" x1="217.5" y1="0" x2="217.5" y2="435" gradientUnits="userSpaceOnUse">
<stop stop-opacity="0"/>
<stop offset="0.520833"/>
<stop offset="1" stop-opacity="0"/>
</linearGradient>
<linearGradient id="paint9_linear_202_326" x1="0" y1="217.5" x2="435" y2="217.5" gradientUnits="userSpaceOnUse">
<stop stop-opacity="0"/>
<stop offset="0.520833"/>
<stop offset="1" stop-opacity="0"/>
</linearGradient>
<linearGradient id="paint10_linear_202_326" x1="257.435" y1="0" x2="257.435" y2="435" gradientUnits="userSpaceOnUse">
<stop stop-opacity="0"/>
<stop offset="0.520833"/>
<stop offset="1" stop-opacity="0"/>
</linearGradient>
<linearGradient id="paint11_linear_202_326" x1="0" y1="177.566" x2="435" y2="177.566" gradientUnits="userSpaceOnUse">
<stop stop-opacity="0"/>
<stop offset="0.520833"/>
<stop offset="1" stop-opacity="0"/>
</linearGradient>
<linearGradient id="paint12_linear_202_326" x1="297.369" y1="0" x2="297.369" y2="435" gradientUnits="userSpaceOnUse">
<stop stop-opacity="0"/>
<stop offset="0.520833"/>
<stop offset="1" stop-opacity="0"/>
</linearGradient>
<linearGradient id="paint13_linear_202_326" x1="0" y1="137.631" x2="435" y2="137.631" gradientUnits="userSpaceOnUse">
<stop stop-opacity="0"/>
<stop offset="0.520833"/>
<stop offset="1" stop-opacity="0"/>
</linearGradient>
<linearGradient id="paint14_linear_202_326" x1="337.303" y1="0" x2="337.303" y2="435" gradientUnits="userSpaceOnUse">
<stop stop-opacity="0"/>
<stop offset="0.520833"/>
<stop offset="1" stop-opacity="0"/>
</linearGradient>
<linearGradient id="paint15_linear_202_326" x1="0" y1="97.6968" x2="435" y2="97.6968" gradientUnits="userSpaceOnUse">
<stop stop-opacity="0"/>
<stop offset="0.520833"/>
<stop offset="1" stop-opacity="0"/>
</linearGradient>
<linearGradient id="paint16_linear_202_326" x1="377.238" y1="0" x2="377.238" y2="435" gradientUnits="userSpaceOnUse">
<stop stop-opacity="0"/>
<stop offset="0.520833"/>
<stop offset="1" stop-opacity="0"/>
</linearGradient>
<linearGradient id="paint17_linear_202_326" x1="0" y1="57.7622" x2="435" y2="57.7622" gradientUnits="userSpaceOnUse">
<stop stop-opacity="0"/>
<stop offset="0.520833"/>
<stop offset="1" stop-opacity="0"/>
</linearGradient>
</defs>
</svg>
