<svg width="128" height="32" viewBox="0 0 128 32" fill="none" xmlns="http://www.w3.org/2000/svg">
<path d="M14.223 7.87482H18.3408V25.5444H14.223V7.87482ZM14.4212 4.25238C13.9161 3.77762 13.6636 3.18785 13.6636 2.48141C13.6636 1.7758 13.9161 1.18603 14.4212 0.711267C14.9261 0.237169 15.5516 -0.000169754 16.2987 -0.000169754C17.0445 -0.000169754 17.6712 0.226019 18.1763 0.678022C18.6812 1.13007 18.9337 1.69853 18.9337 2.38205C18.9337 3.10976 18.6866 3.72229 18.1932 4.21852C17.6985 4.71537 17.0665 4.96382 16.2987 4.96382C15.5516 4.96382 14.9261 4.72586 14.4212 4.25238ZM6.88496 6.94867V8.00742H11.7266V11.3166H7.0157V25.5444H2.89804V11.3166H0V8.00742H2.89804V6.88239C2.89804 4.98591 3.44697 3.49081 4.54501 2.39882C5.6432 1.30703 7.19187 0.760618 9.18988 0.760618C10.7709 0.760618 12.0113 1.08067 12.9126 1.72062L11.7602 4.83121C11.0571 4.34597 10.2995 4.10284 9.48635 4.10284C7.75123 4.10284 6.88496 5.0522 6.88496 6.94867Z" fill="white"/>
<path d="M35.7661 9.6282C37.1062 10.93 37.7757 12.8602 37.7757 15.4186V25.5444H33.6578V15.948C33.6578 14.4044 33.2954 13.2414 32.5715 12.4584C31.8464 11.6753 30.8142 11.2827 29.4742 11.2827C27.9591 11.2827 26.7626 11.742 25.8833 12.6562C25.0055 13.5718 24.5665 14.8892 24.5665 16.6101V25.5444H20.4487V7.87482H24.3684V10.159C25.0494 9.34201 25.9055 8.72432 26.9388 8.30539C27.9708 7.88643 29.1335 7.67705 30.4298 7.67705C32.648 7.67705 34.4271 8.32732 35.7661 9.6282Z" fill="white"/>
<path d="M53.1927 20.714C54.1807 19.6992 54.6741 18.3637 54.6741 16.7092C54.6741 15.0562 54.1807 13.7214 53.1927 12.7054C52.2035 11.6912 50.9524 11.1835 49.4362 11.1835C47.9211 11.1835 46.6758 11.6912 45.6981 12.7054C44.7204 13.7214 44.232 15.0562 44.232 16.7092C44.232 18.3637 44.7204 19.6992 45.6981 20.714C46.6758 21.7285 47.9211 22.2357 49.4362 22.2357C50.9524 22.2357 52.2035 21.7285 53.1927 20.714ZM58.7258 7.87486V31.9634H54.6083V23.3933C53.2252 24.9816 51.3475 25.7762 48.9753 25.7762C47.2621 25.7762 45.7318 25.4015 44.3812 24.6512C43.0306 23.9016 41.9752 22.8419 41.2175 21.4746C40.4601 20.1064 40.082 18.5185 40.082 16.7092C40.082 14.9231 40.4654 13.3455 41.2344 11.9785C42.0036 10.61 43.0578 9.55147 44.3964 8.80068C45.7355 8.05166 47.2621 7.67709 48.9753 7.67709C50.1836 7.67709 51.2867 7.88647 52.2862 8.30543C53.2848 8.72436 54.1252 9.35369 54.806 10.1913V7.87486H58.7258Z" fill="white"/>
<path d="M79.5112 7.87508V25.5447H75.5918V23.2948C74.9328 24.0882 74.1088 24.7005 73.1209 25.1313C72.1329 25.5603 71.0672 25.7764 69.9251 25.7764C67.575 25.7764 65.7257 25.1193 64.3751 23.8073C63.025 22.4948 62.3486 20.5477 62.3486 17.9669V7.87508H66.4666V17.4053C66.4666 18.9932 66.8239 20.1797 67.5376 20.961C68.2509 21.7456 69.266 22.1372 70.5841 22.1372C72.0552 22.1372 73.2245 21.6792 74.0924 20.7637C74.9599 19.8477 75.3936 18.5302 75.3936 16.8094V7.87508H79.5112Z" fill="white"/>
<path d="M87.5656 12.1608C86.6541 12.9439 86.0999 13.9854 85.9017 15.2875H95.8829C95.7065 14.0078 95.1692 12.9711 94.2692 12.1762C93.368 11.3828 92.248 10.9852 90.909 10.9852C89.5908 10.9852 88.4758 11.3779 87.5656 12.1608ZM99.7377 18.0335H85.9354C86.1763 19.3352 86.8083 20.3668 87.8287 21.1279C88.8504 21.8886 90.1179 22.2685 91.6342 22.2685C93.5661 22.2685 95.1589 21.6297 96.41 20.3499L98.6178 22.8979C97.8264 23.8462 96.8269 24.5626 95.6198 25.0478C94.4119 25.5331 93.0498 25.7764 91.5347 25.7764C89.6028 25.7764 87.8998 25.3902 86.4288 24.6176C84.9577 23.8462 83.8209 22.7703 83.0192 21.3919C82.2179 20.0129 81.8179 18.4521 81.8179 16.7094C81.8179 14.9897 82.2076 13.4394 82.9871 12.0605C83.7667 10.6833 84.8475 9.60747 86.2318 8.83475C87.6149 8.06236 89.174 7.6773 90.909 7.6773C92.6222 7.6773 94.1541 8.05703 95.5047 8.81782C96.8552 9.57894 97.9094 10.6495 98.6667 12.0279C99.4245 13.4069 99.8039 15 99.8039 16.8094C99.8039 17.0956 99.7805 17.5041 99.7377 18.0335Z" fill="white"/>
<path d="M103.361 25.213C101.999 24.8385 100.911 24.3653 100.099 23.7904L101.68 20.6475C102.471 21.177 103.42 21.6024 104.53 21.9211C105.638 22.2412 106.732 22.4011 107.808 22.4011C110.267 22.4011 111.497 21.7506 111.497 20.4485C111.497 19.8324 111.185 19.4016 110.558 19.1584C109.932 18.9164 108.927 18.6839 107.543 18.4637C106.094 18.2429 104.914 17.9893 104.003 17.7031C103.091 17.4156 102.3 16.9135 101.631 16.1969C100.961 15.48 100.626 14.4827 100.626 13.2025C100.626 11.5262 101.323 10.1865 102.718 9.18206C104.112 8.17931 105.996 7.6773 108.367 7.6773C109.575 7.6773 110.783 7.81523 111.991 8.09089C113.198 8.3666 114.186 8.73605 114.955 9.19904L113.374 12.3413C111.881 11.4598 110.2 11.0185 108.335 11.0185C107.126 11.0185 106.209 11.2007 105.584 11.5649C104.959 11.9292 104.645 12.4078 104.645 13.0037C104.645 13.6658 104.979 14.1354 105.65 14.4096C106.32 14.6866 107.357 14.9455 108.763 15.1877C110.168 15.4085 111.32 15.6621 112.222 15.9483C113.121 16.2358 113.896 16.721 114.544 17.4053C115.191 18.0892 115.516 19.0597 115.516 20.316C115.516 21.9704 114.801 23.2948 113.374 24.2872C111.947 25.2795 110.003 25.7764 107.543 25.7764C106.116 25.7764 104.722 25.5889 103.361 25.213Z" fill="white"/>
<path d="M128 24.5848C127.517 24.9818 126.929 25.2795 126.237 25.4786C125.546 25.6776 124.816 25.7764 124.046 25.7764C122.114 25.7764 120.621 25.2691 119.567 24.2545C118.513 23.2399 117.985 21.7609 117.985 19.8204V11.3168H115.087V8.00769H117.985V3.97034H122.103V8.00769H126.814V11.3168H122.103V19.7204C122.103 20.5816 122.311 21.2381 122.73 21.6895C123.146 22.1422 123.75 22.3685 124.541 22.3685C125.463 22.3685 126.232 22.1252 126.847 21.64L128 24.5848Z" fill="white"/>
</svg>
