<svg width="128" height="32" viewBox="0 0 128 32" fill="none" xmlns="http://www.w3.org/2000/svg">
<path d="M14.223 7.89325H18.3408V25.5629H14.223V7.89325ZM14.4212 4.27081C13.9161 3.79606 13.6636 3.20628 13.6636 2.49984C13.6636 1.79423 13.9161 1.20446 14.4212 0.7297C14.9261 0.255602 15.5516 0.0182629 16.2987 0.0182629C17.0445 0.0182629 17.6712 0.244452 18.1763 0.696455C18.6812 1.1485 18.9337 1.71696 18.9337 2.40048C18.9337 3.12819 18.6866 3.74072 18.1932 4.23695C17.6985 4.73381 17.0665 4.98225 16.2987 4.98225C15.5516 4.98225 14.9261 4.7443 14.4212 4.27081ZM6.88496 6.9671V8.02586H11.7266V11.335H7.0157V25.5629H2.89804V11.335H0V8.02586H2.89804V6.90082C2.89804 5.00435 3.44697 3.50924 4.54501 2.41725C5.6432 1.32546 7.19187 0.779051 9.18988 0.779051C10.7709 0.779051 12.0113 1.09911 12.9126 1.73906L11.7602 4.84965C11.0571 4.3644 10.2995 4.12128 9.48635 4.12128C7.75123 4.12128 6.88496 5.07063 6.88496 6.9671Z" fill="black"/>
<path d="M35.7661 9.64663C37.1062 10.9485 37.7757 12.8787 37.7757 15.437V25.5629H33.6578V15.9665C33.6578 14.4228 33.2954 13.2599 32.5715 12.4768C31.8464 11.6938 30.8142 11.3011 29.4742 11.3011C27.9591 11.3011 26.7626 11.7604 25.8833 12.6746C25.0055 13.5902 24.5665 14.9076 24.5665 16.6285V25.5629H20.4487V7.89325H24.3684V10.1774C25.0494 9.36044 25.9055 8.74275 26.9388 8.32383C27.9708 7.90486 29.1335 7.69548 30.4298 7.69548C32.648 7.69548 34.4271 8.34575 35.7661 9.64663Z" fill="black"/>
<path d="M53.1927 20.7323C54.1807 19.7176 54.6741 18.382 54.6741 16.7276C54.6741 15.0745 54.1807 13.7398 53.1927 12.7238C52.2035 11.7096 50.9524 11.2019 49.4362 11.2019C47.9211 11.2019 46.6758 11.7096 45.6981 12.7238C44.7204 13.7398 44.232 15.0745 44.232 16.7276C44.232 18.382 44.7204 19.7176 45.6981 20.7323C46.6758 21.7468 47.9211 22.254 49.4362 22.254C50.9524 22.254 52.2035 21.7468 53.1927 20.7323ZM58.7258 7.89323V31.9818H54.6083V23.4116C53.2252 25 51.3475 25.7945 48.9753 25.7945C47.2621 25.7945 45.7318 25.4199 44.3812 24.6696C43.0306 23.92 41.9752 22.8603 41.2175 21.493C40.4601 20.1248 40.082 18.5369 40.082 16.7276C40.082 14.9414 40.4654 13.3639 41.2344 11.9969C42.0036 10.6284 43.0578 9.56984 44.3964 8.81905C45.7355 8.07003 47.2621 7.69546 48.9753 7.69546C50.1836 7.69546 51.2867 7.90484 52.2862 8.3238C53.2848 8.74273 54.1252 9.37207 54.806 10.2096V7.89323H58.7258Z" fill="black"/>
<path d="M79.5114 7.89324V25.5628H75.5921V23.3129C74.933 24.1063 74.1091 24.7187 73.1211 25.1494C72.1331 25.5785 71.0675 25.7945 69.9253 25.7945C67.5753 25.7945 65.726 25.1375 64.3754 23.8254C63.0252 22.513 62.3489 20.5658 62.3489 17.985V7.89324H66.4668V17.4235C66.4668 19.0114 66.8241 20.1979 67.5379 20.9791C68.2512 21.7638 69.2663 22.1553 70.5844 22.1553C72.0554 22.1553 73.2247 21.6973 74.0926 20.7818C74.9601 19.8659 75.3939 18.5484 75.3939 16.8276V7.89324H79.5114Z" fill="black"/>
<path d="M87.5656 12.179C86.6541 12.962 86.0999 14.0035 85.9017 15.3057H95.8829C95.7065 14.0259 95.1692 12.9893 94.2692 12.1943C93.368 11.4009 92.248 11.0033 90.909 11.0033C89.5908 11.0033 88.4758 11.3961 87.5656 12.179ZM99.7377 18.0517H85.9354C86.1763 19.3534 86.8083 20.385 87.8287 21.1461C88.8504 21.9067 90.1179 22.2866 91.6342 22.2866C93.5661 22.2866 95.1589 21.6478 96.41 20.368L98.6178 22.9161C97.8264 23.8643 96.8269 24.5807 95.6198 25.066C94.4119 25.5512 93.0498 25.7945 91.5347 25.7945C89.6028 25.7945 87.8998 25.4083 86.4288 24.6358C84.9577 23.8643 83.8209 22.7885 83.0192 21.41C82.2179 20.0311 81.8179 18.4703 81.8179 16.7276C81.8179 15.0079 82.2076 13.4576 82.9871 12.0787C83.7667 10.7015 84.8475 9.62563 86.2318 8.85291C87.6149 8.08051 89.174 7.69546 90.909 7.69546C92.6222 7.69546 94.1541 8.07519 95.5047 8.83598C96.8552 9.59709 97.9094 10.6676 98.6667 12.0461C99.4245 13.425 99.8039 15.0182 99.8039 16.8276C99.8039 17.1137 99.7805 17.5222 99.7377 18.0517Z" fill="black"/>
<path d="M103.36 25.2312C101.998 24.8566 100.91 24.3835 100.099 23.8085L101.68 20.6657C102.471 21.1952 103.42 21.6205 104.53 21.9393C105.638 22.2594 106.731 22.4192 107.807 22.4192C110.266 22.4192 111.496 21.7688 111.496 20.4666C111.496 19.8505 111.184 19.4198 110.557 19.1766C109.932 18.9346 108.927 18.7021 107.543 18.4819C106.094 18.2611 104.913 18.0075 104.003 17.7213C103.091 17.4338 102.3 16.9316 101.631 16.2151C100.961 15.4981 100.626 14.5009 100.626 13.2206C100.626 11.5444 101.322 10.2046 102.718 9.20022C104.112 8.19747 105.996 7.69546 108.366 7.69546C109.575 7.69546 110.783 7.83339 111.991 8.10905C113.198 8.38476 114.186 8.75421 114.955 9.2172L113.374 12.3595C111.881 11.4779 110.2 11.0367 108.334 11.0367C107.126 11.0367 106.209 11.2188 105.584 11.5831C104.959 11.9473 104.645 12.426 104.645 13.0219C104.645 13.684 104.979 14.1536 105.65 14.4278C106.319 14.7048 107.357 14.9637 108.763 15.2058C110.168 15.4267 111.32 15.6803 112.222 15.9664C113.121 16.2539 113.896 16.7392 114.543 17.4235C115.191 18.1073 115.516 19.0778 115.516 20.3342C115.516 21.9885 114.801 23.3129 113.374 24.3054C111.947 25.2976 110.003 25.7945 107.543 25.7945C106.116 25.7945 104.721 25.6071 103.36 25.2312Z" fill="black"/>
<path d="M128 24.603C127.517 25 126.929 25.2976 126.237 25.4967C125.546 25.6958 124.816 25.7945 124.046 25.7945C122.114 25.7945 120.621 25.2873 119.567 24.2726C118.513 23.2581 117.985 21.7791 117.985 19.8386V11.335H115.087V8.02584H117.985V3.98849H122.103V8.02584H126.814V11.335H122.103V19.7386C122.103 20.5997 122.311 21.2563 122.73 21.7077C123.146 22.1603 123.75 22.3866 124.541 22.3866C125.463 22.3866 126.232 22.1434 126.847 21.6581L128 24.603Z" fill="black"/>
</svg>
