<svg width="1362" height="565" viewBox="0 0 1362 565" fill="none" xmlns="http://www.w3.org/2000/svg">
<path d="M1.26075 559.593C0.343258 560.973 0.717897 562.835 2.09753 563.752C3.47716 564.67 5.33934 564.295 6.25683 562.915L1.26075 559.593ZM666.386 264.876L667.961 262.323L666.386 264.876ZM1361.84 4.0094C1361.85 2.35255 1360.51 1.0052 1358.85 1.00001L1331.85 0.915436C1330.19 0.910246 1328.85 2.24918 1328.84 3.90602C1328.84 5.56287 1330.17 6.91022 1331.83 6.91541L1355.83 6.99059L1355.76 30.9905C1355.75 32.6473 1357.09 33.9947 1358.75 33.9999C1360.4 34.005 1361.75 32.6661 1361.76 31.0093L1361.84 4.0094ZM6.25683 562.915C47.4535 500.968 81.9897 434.254 117.237 373.775C152.575 313.142 188.674 258.677 233.224 220.424C277.652 182.276 330.51 160.226 399.611 164.485C468.866 168.753 554.673 199.463 664.81 267.429L667.961 262.323C557.425 194.11 470.634 162.85 399.98 158.496C329.171 154.132 274.808 176.809 229.315 215.872C183.944 254.83 147.424 310.064 112.054 370.753C76.5937 431.597 42.3347 497.83 1.26075 559.593L6.25683 562.915ZM664.81 267.429C796.528 348.713 894.544 384.754 970.425 389.896C1046.53 395.053 1100.16 369.113 1142.84 327.13C1185.34 285.322 1217.01 227.572 1249.41 169.259C1281.9 110.772 1315.17 51.6305 1360.95 6.12796L1356.73 1.87204C1310.23 48.0729 1276.58 107.985 1244.16 166.346C1211.64 224.881 1180.39 281.775 1138.63 322.852C1097.05 363.754 1045.06 388.94 970.831 383.91C896.38 378.865 799.355 343.407 667.961 262.323L664.81 267.429Z" fill="black"/>
</svg>
