<svg width="204" height="38" viewBox="0 0 204 38" fill="none" xmlns="http://www.w3.org/2000/svg">
<path d="M51.2918 26.3174H55.2707V10.7291H60.4758V6.96845H46.1411V10.7291H51.2918V26.3174Z" fill="#A6AFB7"/>
<path d="M60.4814 26.3174H64.2149V19.8039C64.2149 17.5422 65.3867 16.1794 67.1581 16.1794C67.7851 16.1794 68.2754 16.2884 68.8477 16.4791V12.6912C68.3844 12.555 68.0028 12.5277 67.5942 12.5277C66.068 12.5277 64.6782 13.5361 64.2149 14.8714V12.6912H60.4814V26.3174Z" fill="#A6AFB7"/>
<path d="M76.8038 23.2105C74.7328 23.2105 73.37 21.657 73.37 19.5043C73.37 17.3513 74.7328 15.7979 76.8038 15.7979C78.8751 15.7979 80.2376 17.3513 80.2376 19.5043C80.2376 21.657 78.8751 23.2105 76.8038 23.2105ZM76.0136 26.6171C77.8939 26.6171 79.3109 25.6634 79.938 24.7912V26.3174H83.6714V12.6912H79.938V14.2174C79.3109 13.3452 77.8939 12.3916 76.0136 12.3916C72.3892 12.3916 69.6094 15.6617 69.6094 19.5043C69.6094 23.347 72.3892 26.6171 76.0136 26.6171Z" fill="#A6AFB7"/>
<path d="M93.3512 23.2105C91.2799 23.2105 89.9174 21.657 89.9174 19.5043C89.9174 17.3513 91.2799 15.7979 93.3512 15.7979C95.4222 15.7979 96.785 17.3513 96.785 19.5043C96.785 21.657 95.4222 23.2105 93.3512 23.2105ZM92.561 26.6171C94.4413 26.6171 95.8583 25.6634 96.4851 24.7912V26.3174H100.219V5.8781H96.4851V14.2174C95.8583 13.3452 94.4413 12.3916 92.561 12.3916C88.9362 12.3916 86.1567 15.6617 86.1567 19.5043C86.1567 23.347 88.9362 26.6171 92.561 26.6171Z" fill="#A6AFB7"/>
<path d="M103.576 26.3175H107.309V12.6913H103.576V26.3175ZM105.429 10.4566C106.764 10.4566 107.827 9.39367 107.827 8.08565C107.827 6.77761 106.764 5.71474 105.429 5.71474C104.148 5.71474 103.058 6.77761 103.058 8.08565C103.058 9.39367 104.148 10.4566 105.429 10.4566Z" fill="#A6AFB7"/>
<path d="M110.622 26.3174H114.355V19.6677C114.355 17.0516 115.637 15.7981 117.381 15.7981C118.934 15.7981 119.779 16.9972 119.779 18.9592V26.3174H123.512V18.3324C123.512 14.7897 121.551 12.3915 118.252 12.3915C116.482 12.3915 115.092 13.1545 114.355 14.2446V12.6912H110.622V26.3174Z" fill="#A6AFB7"/>
<path d="M132.577 32.2853C136.747 32.2853 139.908 30.1598 139.908 25.2545V12.6912H136.174V14.2171C135.439 13.1545 133.967 12.3913 132.223 12.3913C128.653 12.3913 125.792 15.4435 125.792 19.2861C125.792 23.1015 128.653 26.1534 132.223 26.1534C133.967 26.1534 135.439 25.3632 136.174 24.3551V25.2815C136.174 27.4617 134.73 29.0152 132.523 29.0152C130.996 29.0152 129.47 28.4974 128.272 27.3255L126.228 30.105C127.781 31.604 130.206 32.2853 132.577 32.2853ZM133.013 22.7744C131.133 22.7744 129.552 21.3574 129.552 19.2861C129.552 17.1876 131.133 15.7978 133.013 15.7978C134.893 15.7978 136.474 17.1876 136.474 19.2861C136.474 21.3574 134.893 22.7744 133.013 22.7744Z" fill="#A6AFB7"/>
<path d="M147.801 26.3174H151.318L159.33 6.96845H154.968L149.574 20.4034L144.095 6.96845H139.817L147.801 26.3174Z" fill="#A6AFB7"/>
<path d="M160.902 26.3175H164.636V12.6913H160.902V26.3175ZM162.755 10.4566C164.091 10.4566 165.154 9.39367 165.154 8.08565C165.154 6.77761 164.091 5.71474 162.755 5.71474C161.474 5.71474 160.384 6.77761 160.384 8.08565C160.384 9.39367 161.474 10.4566 162.755 10.4566Z" fill="#A6AFB7"/>
<path d="M170.837 17.8418C171.191 16.1794 172.744 15.4709 174.134 15.4709C175.524 15.4709 176.887 16.2066 177.214 17.8418H170.837ZM174.298 26.6169C177.159 26.6169 179.34 25.4179 180.62 23.5648L177.84 21.4938C177.214 22.4474 176.041 23.2104 174.325 23.2104C172.526 23.2104 170.918 22.2023 170.7 20.3761H180.892C180.974 19.8038 180.948 19.4225 180.948 19.0953C180.948 14.6531 177.813 12.3915 174.243 12.3915C170.101 12.3915 167.076 15.4709 167.076 19.5042C167.076 23.8099 170.237 26.6169 174.298 26.6169Z" fill="#A6AFB7"/>
<path d="M194.935 26.3174H198.642L203.138 12.6912H199.132L196.57 21.4118L193.79 12.6912H190.928L188.176 21.4118L185.587 12.6912H181.608L186.132 26.3174H189.839L192.373 18.5776L194.935 26.3174Z" fill="#A6AFB7"/>
<path d="M15.1843 26.2913H7.66122V14.4694H0.138184V6.94634H15.1843V26.2913Z" fill="#A6AFB7"/>
<path d="M30.2305 26.2913H21.6328L29.6932 6.94634H38.2908L30.2305 26.2913Z" fill="#A6AFB7"/>
<path d="M21.6323 6.94651C24.0067 6.94651 25.9312 8.871 25.9312 11.2454C25.9312 13.6194 24.0067 15.5442 21.6323 15.5442C19.2583 15.5442 17.3335 13.6194 17.3335 11.2454C17.3335 8.871 19.2583 6.94651 21.6323 6.94651Z" fill="#A6AFB7"/>
</svg>
