<svg width="125" height="40" viewBox="0 0 125 40" fill="none" xmlns="http://www.w3.org/2000/svg">
<g clip-path="url(#clip0_84_318)">
<path fill-rule="evenodd" clip-rule="evenodd" d="M83.2388 9.21254V12.6582H77.286V22.5019C77.286 24.593 78.5261 25.6386 80.584 25.6386C81.697 25.6188 82.7963 25.4611 83.8623 25.1651L84.4052 28.6503C83.3929 29.0382 81.6097 29.3077 79.9875 29.3077C75.7642 29.3077 73.1095 26.9931 73.1095 22.9951V12.6582H69.5164V9.21254H73.1765V2.8999H77.2323V9.21254H83.2388ZM60.3789 17.0244C57.8315 16.5115 56.8862 15.8934 56.8862 14.6638C56.8862 13.2106 58.4013 12.3689 61.4513 12.3689C63.5496 12.3689 65.9562 12.8226 67.5918 13.5196L68.0343 9.99505C66.3517 9.2783 63.7239 8.80487 61.2435 8.80487C56.1957 8.80487 52.8304 11.2642 52.8304 14.6046C52.8304 17.6426 54.7209 19.6218 58.2739 20.3254L61.2569 20.9172C63.8646 21.4302 64.9573 22.1469 64.9573 23.4817C64.9573 25.0007 63.5429 25.7372 60.5196 25.7372C58.1465 25.7108 55.8002 25.2242 53.6149 24.3169L53.1121 27.8283C54.8549 28.7489 57.7174 29.3012 60.7877 29.3012C65.6881 29.3012 69.0065 27.3942 69.0065 23.4161C69.0065 19.9901 66.8209 18.3133 62.7183 17.4913L60.3789 17.0244ZM83.8028 19.0563C83.8028 13.296 88.3881 8.80487 94.5287 8.80487C100.669 8.80487 105.255 13.296 105.255 19.0563C105.255 24.8166 100.676 29.3077 94.5353 29.3077C88.3948 29.3077 83.8095 24.8166 83.8095 19.0563H83.8028ZM87.9657 19.0563C87.9657 22.686 90.7276 25.494 94.5353 25.494C98.3431 25.494 101.098 22.6795 101.098 19.0563C101.098 15.4266 98.3431 12.6188 94.5353 12.6188C90.7276 12.6188 87.9724 15.4266 87.9724 19.0563H87.9657ZM108.713 9.21252L113.942 16.1433L119.177 9.21252H123.97L116.53 18.8459L124.138 28.8935H119.352L113.942 21.5353L108.539 28.8935H103.746L111.354 18.8459L103.913 9.21252H108.713ZM34.6636 11.902C36.1584 10.0345 38.431 8.80487 41.8565 8.80487C47.5948 8.80487 51.9925 13.1119 51.9925 19.1615C51.9925 25.2111 47.5948 29.3077 41.8565 29.3077C38.431 29.3077 36.1584 28.0782 34.6636 26.2107V37.1001H30.5006V9.21913H34.6636V11.902ZM34.6903 19.1615C34.6903 22.7914 37.4858 25.6583 41.3539 25.6583C45.2418 25.6583 47.8295 22.7848 47.8362 19.1615C47.8362 15.5318 45.2487 12.4544 41.3606 12.4544H41.3539C37.4657 12.4609 34.6903 15.5318 34.6903 19.1615ZM9.09683 19.7599C9.70687 19.3391 10.2834 18.8656 10.813 18.3461C11.8051 17.3795 12.6297 16.2682 13.2598 15.0517V20.2991C13.2598 23.5607 15.0899 25.4412 18.1803 25.4412C21.3578 25.4412 23.8582 23.5607 23.8582 20.2991V9.21252H28.0144V28.8935H23.8315V26.4145C23.161 27.4206 21.2438 29.3012 17.5233 29.3012C12.0129 29.3012 9.09013 25.9409 9.09013 21.1605L9.09683 19.7599ZM0 22.0153V18.0699C2.42672 18.0633 4.75289 17.1296 6.48241 15.4791C7.32709 14.6571 8.00416 13.6839 8.4667 12.6121C8.92924 11.5337 9.17058 10.3829 9.17058 9.21907H13.2531C13.2531 10.9024 12.9112 12.5661 12.2409 14.1179C11.5772 15.6698 10.5984 17.077 9.37168 18.2606C6.87123 20.6673 3.50601 22.0153 0 22.0153Z" fill="#A6AFB7"/>
</g>
<defs>
<clipPath id="clip0_84_318">
<rect width="124.138" height="38.2002" fill="white" transform="translate(0 0.899902)"/>
</clipPath>
</defs>
</svg>
