<svg width="187" height="38" viewBox="0 0 187 38" fill="none" xmlns="http://www.w3.org/2000/svg">
<path fill-rule="evenodd" clip-rule="evenodd" d="M20.8457 13.4407C22.1907 15.1537 23.3061 17.0779 24.1704 19.1527V8.17932H14.6838C16.9659 9.39042 19.0565 11.1622 20.8457 13.4407Z" fill="#A6AFB7"/>
<path fill-rule="evenodd" clip-rule="evenodd" d="M7.16935 9.34839C5.41197 9.34839 3.72147 9.71739 2.13818 10.4002V29.8207H23.2008C23.0377 18.4945 15.9089 9.34839 7.16935 9.34839Z" fill="#A6AFB7"/>
<path d="M36.7571 26.4754L48.5258 12.4804H37.1269V9.42944H53.0851V11.9764L41.3164 25.9717H53.0851V29.0224H36.7571V26.4754Z" fill="#A6AFB7"/>
<path d="M57.4729 9.42944H72.2341V12.5362H60.9495V17.5744H70.9523V20.6815H60.9495V25.9153H72.3761V29.0221H57.4729V9.42944V9.42944Z" fill="#A6AFB7"/>
<path d="M76.5652 9.42944H85.456C86.7097 9.42944 87.8212 9.60224 88.7902 9.94724C89.7587 10.2925 90.566 10.7728 91.2122 11.3887C91.744 11.9302 92.1529 12.5551 92.4379 13.264C92.7228 13.9732 92.8648 14.7571 92.8648 15.6151V15.6712C92.8648 16.4737 92.7463 17.1967 92.509 17.8405C92.2711 18.4843 91.9431 19.0537 91.5256 19.5478C91.1075 20.0422 90.609 20.4625 90.0296 20.8072C89.4503 21.1528 88.8089 21.4186 88.1064 21.6049L93.4919 29.0224H89.3599L84.4435 22.1929H84.3867H80.0415V29.0224H76.5649V9.42944H76.5652ZM85.1875 19.1419C86.4443 19.1419 87.4455 18.8473 88.188 18.2566C88.9313 17.6662 89.3033 16.8649 89.3033 15.853V15.7969C89.3033 14.7289 88.9405 13.918 88.2164 13.3651C87.4928 12.8125 86.4727 12.5359 85.1579 12.5359H80.0415V19.1416H85.1875V19.1419Z" fill="#A6AFB7"/>
<path d="M106.686 29.3584C105.147 29.3584 103.741 29.0926 102.469 28.561C101.196 28.0294 100.104 27.3064 99.1916 26.3914C98.2796 25.4773 97.5674 24.4093 97.0549 23.1868C96.5412 21.9649 96.2849 20.6629 96.2849 19.282V19.2259C96.2849 17.845 96.5415 16.5436 97.0549 15.3211C97.5674 14.0992 98.2891 13.0258 99.2203 12.1021C100.15 11.1784 101.253 10.4461 102.526 9.90494C103.799 9.36404 105.204 9.09314 106.743 9.09314C108.281 9.09314 109.688 9.35894 110.961 9.89084C112.233 10.4224 113.326 11.146 114.238 12.0601C115.149 12.9745 115.861 14.0428 116.374 15.265C116.888 16.4872 117.144 17.7889 117.144 19.1695V19.2256C117.144 20.6068 116.888 21.9085 116.374 23.1301C115.861 24.3526 115.14 25.4254 114.209 26.3491C113.278 27.2725 112.176 28.0054 110.903 28.5463C109.63 29.0872 108.225 29.3584 106.686 29.3584ZM106.743 26.1955C107.727 26.1955 108.63 26.0137 109.452 25.6498C110.275 25.2856 110.98 24.7918 111.566 24.1666C112.152 23.5414 112.611 22.8088 112.942 21.9691C113.274 21.1294 113.439 20.2336 113.439 19.2823V19.2262C113.439 18.2746 113.274 17.3743 112.942 16.525C112.611 15.676 112.147 14.9392 111.552 14.314C110.956 13.6891 110.242 13.1899 109.409 12.8164C108.577 12.4432 107.669 12.2566 106.685 12.2566C105.702 12.2566 104.798 12.4384 103.976 12.8023C103.153 13.1662 102.448 13.6609 101.862 14.2858C101.275 14.9113 100.817 15.6433 100.485 16.483C100.154 17.3227 99.9887 18.2185 99.9887 19.1701V19.2262C99.9887 20.1778 100.154 21.0781 100.485 21.9268C100.817 22.7767 101.28 23.5135 101.876 24.1384C102.472 24.7639 103.186 25.2628 104.018 25.6357C104.851 26.0089 105.759 26.1955 106.743 26.1955Z" fill="#A6AFB7"/>
<path d="M121.389 9.42944H128.827C130.385 9.42944 131.814 9.67694 133.116 10.1713C134.417 10.6657 135.538 11.3515 136.478 12.2284C137.419 13.1056 138.145 14.1367 138.659 15.3217C139.172 16.5067 139.428 17.7898 139.428 19.1704V19.2265C139.428 20.6077 139.172 21.8953 138.659 23.089C138.145 24.283 137.419 25.3195 136.478 26.1958C135.538 27.0736 134.417 27.7636 133.116 28.267C131.814 28.771 130.385 29.0227 128.827 29.0227H121.389V9.42944ZM128.799 25.9156C129.843 25.9156 130.793 25.7521 131.648 25.4239C132.503 25.0957 133.23 24.6373 133.828 24.0472C134.426 23.4565 134.891 22.7536 135.224 21.9382C135.557 21.1231 135.724 20.2381 135.724 19.282V19.2259C135.724 18.2701 135.557 17.3803 135.224 16.5559C134.891 15.7312 134.426 15.0241 133.828 14.4337C133.23 13.843 132.503 13.3795 131.648 13.042C130.793 12.7048 129.843 12.5359 128.799 12.5359H124.866V25.9153H128.799V25.9156Z" fill="#A6AFB7"/>
<path d="M143.674 9.42944H147.15V17.5747H156.726V9.42944H160.202V29.0227H156.726V20.7655H147.15V29.0224H143.674V9.42944Z" fill="#A6AFB7"/>
<path d="M172.398 9.28931H175.647L184.423 29.0224H180.719L178.695 24.292H169.263L167.211 29.0224H163.62L172.398 9.28931ZM177.413 21.2416L173.965 13.4041L170.545 21.2416H177.413Z" fill="#A6AFB7"/>
</svg>
