<svg width="57" height="57" viewBox="0 0 57 57" fill="none" xmlns="http://www.w3.org/2000/svg">
<g clip-path="url(#clip0_340_132)">
<path d="M17.8363 49.9274C17.4926 49.3523 17.1934 48.8328 16.8751 48.3251C16.5492 47.8065 16.4296 47.3027 16.7244 46.7022C16.8307 46.4855 16.7657 46.1185 16.6559 45.8756C16.1455 44.7457 15.5649 43.6473 15.0607 42.5148C14.4094 41.0513 13.8081 39.5658 13.1823 38.0909C13.0184 37.7046 12.8441 37.3225 12.6658 36.9188C12.5095 36.9066 12.3526 36.9025 12.1958 36.9064C11.5044 36.9605 11.1281 36.5938 10.9181 35.9828C10.7056 35.3634 10.4814 34.7479 10.2331 34.049C9.82349 34.2298 9.53192 34.3836 9.22421 34.4882C8.79973 34.6323 8.317 34.8848 7.94111 34.4944C7.5587 34.0975 7.33877 33.5817 7.51903 32.9952C7.73239 32.3003 7.91488 31.5926 8.18201 30.9185C8.84062 29.256 9.51561 27.599 10.2276 25.9582C12.2457 21.3126 14.4293 16.7462 16.8829 12.31C17.294 11.5682 17.6725 10.8062 18.0399 10.041C18.5643 8.94981 19.4612 8.50556 20.6215 8.54122C21.1973 8.5688 21.7712 8.62598 22.3409 8.71245C28.8196 9.58608 35.1995 10.8836 41.3467 13.1456C42.5393 13.5851 43.6929 14.1276 44.8584 14.6367C45.0835 14.7265 45.2872 14.8623 45.4564 15.0354C45.6255 15.2085 45.7563 15.4151 45.8407 15.6418C46.1686 16.4974 45.8395 17.099 45.16 17.5636C46.2404 19.4959 46.2206 19.7564 44.8694 21.2287L49.282 31.2239C51.0284 31.2688 51.4026 32.7438 51.9569 34.0903C52.1763 34.06 52.3784 34.037 52.5782 34.0035C53.3244 33.8777 53.4652 33.9913 53.8154 34.6967C54.1628 35.3957 54.6034 36.0478 54.9701 36.7371C55.6495 38.0122 55.4445 38.5631 54.1463 39.1547C46.7936 42.5058 39.4268 45.8269 32.0982 49.2296C27.8016 51.2247 23.5674 53.3535 19.3051 55.4222C19.0592 55.5416 18.818 55.6728 18.566 55.7774C17.6744 56.1475 17.0822 55.9394 16.7369 55.0641C16.3825 54.1655 16.068 53.2484 15.7888 52.3234C15.5288 51.4623 15.7347 51.0335 16.5212 50.6011C16.9454 50.3725 17.379 50.1621 17.8363 49.9274ZM43.5911 16.0319C42.5622 15.5908 41.6907 15.1833 40.7951 14.8399C34.9324 12.594 28.8341 11.326 22.6138 10.5752C22.0728 10.5099 21.5253 10.4997 20.9838 10.4424C20.4345 10.3847 20.05 10.5705 19.8161 11.0887C19.6299 11.502 19.4135 11.904 19.188 12.2983C15.7165 18.3566 12.7828 24.6727 10.0742 31.0966C9.96107 31.3647 9.87764 31.645 9.73588 32.0441C20.8683 26.3291 32.3418 21.6801 43.5911 16.0319ZM38.5906 39.9483L44.744 37.2317C44.4479 36.5611 44.1318 35.9464 43.9028 35.3008C43.6186 34.4988 44.2465 34.0306 44.7319 33.4915C43.189 30.2001 41.6524 26.9225 40.0928 23.5959C39.1243 23.6599 38.6614 23.0841 38.4295 22.1919C38.3082 21.8283 38.1566 21.4758 37.9761 21.1377L30.6966 24.3514C31.1324 24.958 31.4967 25.4299 31.8229 25.9267C32.3597 26.744 32.335 27.1666 31.7571 27.9905C31.6884 28.0883 31.6245 28.1895 31.5532 28.2969C31.5798 28.4165 31.6183 28.5332 31.6682 28.6453C33.1704 31.2698 34.5828 33.9382 35.7373 36.7383C35.822 36.9439 36.1041 37.0731 36.3039 37.2256C36.7504 37.5663 37.2835 37.8329 37.6319 38.2531C38.0265 38.7281 38.2569 39.3383 38.5906 39.9483ZM17.2872 34.4817C19.0412 37.5873 20.77 40.6482 22.4972 43.7063C23.7687 43.3283 24.1382 43.4735 24.7859 44.6381C25.0298 45.0762 25.2353 45.5354 25.4369 45.9416L31.1109 43.4366C30.7642 42.7833 30.4719 42.2311 30.1774 41.6789C29.9114 41.1804 29.8032 40.6917 30.0192 40.117C30.1 39.8105 30.0673 39.4854 29.9271 39.2017C28.6104 36.4213 27.2657 33.6532 25.8964 30.8143C25.0555 30.9135 24.6276 30.3955 24.3665 29.5771C24.1371 28.9562 23.874 28.3482 23.5784 27.7559L17.2494 30.55C17.516 30.9093 17.7091 31.1716 17.9045 31.4324C19.065 32.9809 18.9833 33.4542 17.2872 34.4817ZM18.3067 53.786C18.7098 53.6081 19.0694 53.4609 19.4189 53.2933C23.8523 51.1653 28.2607 48.9842 32.7218 46.916C39.1669 43.9269 45.6497 41.0191 52.1153 38.0741C52.4648 37.9148 52.8038 37.7325 53.188 37.5409L52.626 35.9161C40.7463 41.0726 28.9794 46.1846 17.5812 52.1409L18.3067 53.786ZM27.5505 30.0976C29.0897 33.041 30.59 35.9104 32.0859 38.771L34.0126 37.9204C32.6321 34.9323 31.285 32.0162 29.9162 29.0532L27.5505 30.0976ZM14.0775 36.063C15.6316 39.1912 17.1532 42.2542 18.6872 45.3419L20.4853 44.5481C18.6246 41.5662 17.1554 38.4484 15.8115 35.2975L14.0775 36.063ZM41.749 22.8193L46.1735 32.8415L47.621 32.0733C46.1818 28.6657 44.7791 25.3448 43.3506 21.9608L41.749 22.8193ZM22.9856 45.2903C21.423 46.1094 19.8111 46.6361 18.3979 47.6752C18.5887 48.2446 18.7632 48.7663 18.9591 49.3504L23.918 46.8242C23.6027 46.3056 23.3254 45.8494 22.9856 45.2903ZM29.3812 25.1018L24.8752 27.0911L25.7852 28.5703L29.9458 26.7336C29.7432 26.1487 29.569 25.6446 29.3812 25.1018ZM35.7398 39.255C34.4629 39.8343 33.2211 40.4104 32.0143 41.0816C32.1925 41.6875 32.3343 42.1699 32.4804 42.6647L36.9347 40.6983L35.7398 39.255ZM50.258 34.7996C49.9367 34.3054 49.6487 33.8628 49.2961 33.3208L45.6605 35.119C45.839 35.6888 45.9773 36.131 46.1298 36.6213L50.258 34.7996ZM12.1896 34.5859L16.1168 32.8522L15.4701 31.3873L11.4617 33.4065L12.1896 34.5859ZM39.9183 21.26C41.0239 20.6688 42.0156 20.1497 42.9959 19.61C43.5784 19.2895 43.5855 19.1786 43.1304 18.4264L39.2632 20.335C39.5088 20.6813 39.6928 20.9415 39.9183 21.26Z" fill="black"/>
</g>
<defs>
<clipPath id="clip0_340_132">
<rect width="42.7719" height="42.7719" fill="white" transform="translate(0 17.2742) rotate(-23.8201)"/>
</clipPath>
</defs>
</svg>
