<svg width="59" height="60" viewBox="0 0 59 60" fill="none" xmlns="http://www.w3.org/2000/svg">
<g clip-path="url(#clip0_340_134)">
<path d="M27.637 22.6491C26.9616 22.1635 26.2763 21.6903 25.6125 21.1886C24.8309 20.6094 24.1826 19.8698 23.7116 19.0199C23.3043 18.2755 23.1369 17.4869 23.5023 16.7161C24.1425 15.3658 24.8504 14.0472 25.5522 12.727C25.8177 12.2277 26.1621 11.7719 26.4393 11.2787C26.75 10.705 27.177 10.2022 27.6933 9.80244C28.2097 9.40267 28.804 9.11464 29.4386 8.95656C30.1756 8.76176 30.9488 8.56869 31.7008 8.58776C34.8112 8.66637 37.8953 8.9066 40.7657 10.3305C42.6838 11.2821 44.6479 12.1433 46.3785 13.4271C47.7168 14.4199 48.7838 15.643 49.4192 17.1994C49.9718 18.5526 50.0434 19.9066 49.4489 21.2781C49.0139 22.2821 48.6387 23.3119 48.245 24.3101C49.1546 25.0237 50.0567 25.6518 50.8586 26.3889C51.3955 26.8859 51.8491 27.4658 52.2015 28.1063C52.7332 29.0786 52.5777 30.1108 52.1624 31.1018C51.3901 32.9442 50.5946 34.7772 49.8398 36.6268C48.8462 39.0624 47.9262 41.5291 46.8946 43.9482C45.719 46.7056 44.4833 49.4384 43.213 52.1534C42.8373 52.9568 42.2408 53.6552 41.7717 54.4169C41.3224 55.1469 40.6419 55.2796 39.8651 55.2293C38.0969 55.1235 36.3462 54.8135 34.6486 54.3057C30.583 53.0511 26.7306 51.1874 23.2236 48.7787C22.4553 48.2577 21.771 47.613 20.9863 46.9749C20.8068 47.02 20.5495 47.0781 20.2962 47.149C17.6579 47.8876 15.079 47.6671 12.5389 46.6751C9.63546 45.5411 7.19266 43.7945 5.33903 41.2765C3.71194 39.066 3.03868 36.6143 3.66859 33.9094C5.18231 27.408 11.8078 23.1518 18.3805 24.4119C18.8925 24.5101 19.4387 24.4256 19.9518 24.5207C20.5967 24.6404 21.2954 24.7373 21.842 25.0607C22.6363 25.5317 23.3206 26.1916 24.0429 26.7816C24.3444 27.0277 24.6233 27.3011 24.9605 27.6055C25.8585 25.9415 26.7229 24.3415 27.637 22.6491ZM12.6127 44.2391C13.0645 44.3899 13.7792 44.6885 14.5225 44.8664C17.9743 45.6921 20.9443 44.9816 23.1939 42.0863C24.0577 40.9814 24.6884 39.7131 25.0478 38.3575C25.8468 35.366 25.4099 32.6103 23.4732 30.148C22.856 29.3634 22.1703 28.6295 21.4795 27.9069C20.7283 27.1308 19.738 26.6285 18.6679 26.4809C14.8466 25.8722 11.4996 26.762 8.82744 29.6433C8.13728 30.3655 7.53154 31.1634 7.02181 32.0217C5.24654 35.1329 5.43688 37.7879 7.6355 40.4438C8.93455 42.013 10.5338 43.1956 12.6128 44.2389L12.6127 44.2391ZM35.1158 18.1501C37.351 18.9389 39.4386 19.7593 41.5802 20.3979C42.7646 20.7421 43.9908 20.9212 45.2236 20.93C46.6956 20.9455 47.2993 19.9937 46.9188 18.5712C46.8605 18.2761 46.748 17.9943 46.5868 17.7399C46.0497 17.0242 45.5621 16.2288 44.8857 15.6678C42.4377 13.631 39.6136 12.0929 36.5741 11.1413C34.904 10.6165 33.1937 10.3383 31.4366 10.5471C30.4644 10.6628 29.5208 10.888 28.7535 11.5405C28.0504 12.1384 27.9304 12.839 28.4981 13.5672C28.9166 14.1289 29.4246 14.6184 30.0019 15.0161C31.7093 16.1231 33.469 17.1494 35.1159 18.1499L35.1158 18.1501ZM45.9188 23.6141C44.6418 23.4192 43.4784 23.3103 42.3475 23.0555C39.3969 22.3907 36.632 21.2086 33.9384 19.8576C31.2771 18.5227 28.663 17.1138 26.7332 14.725L25.2611 17.8728C25.7697 18.7432 26.2186 19.2695 27.2929 19.93C28.9704 20.9613 30.6596 21.9813 32.3962 22.908C35.4649 24.5512 38.7815 25.6829 42.2139 26.2578C43.0576 26.3993 43.9185 26.5011 44.6396 26.3508L45.9188 23.6141ZM46.6387 38.5786C44.9029 38.5476 43.3649 38.6239 41.8487 38.4729C38.1475 38.1045 34.8434 36.5664 31.6704 34.7319C30.4055 34.0003 29.2058 33.1561 28.0005 32.3788C28.0965 33.1654 28.2456 33.9835 28.2828 34.8063C28.32 35.6291 28.246 36.462 28.2182 37.3722C28.5399 37.5858 28.882 37.8521 29.2581 38.0563C32.7283 39.9466 36.4842 41.257 40.3761 41.9357C41.6483 42.1582 42.9615 42.1504 44.2573 42.2262C44.5847 42.2451 44.9337 42.2314 45.1099 41.8509C45.6099 40.7716 46.1164 39.6954 46.6388 38.5784L46.6387 38.5786ZM27.1906 29.0455C27.7516 29.5601 28.2981 30.1551 28.9349 30.6292C31.8674 32.8088 35.1503 34.4737 38.6418 35.5523C41.2449 36.3652 43.9059 36.4081 46.5731 35.9053C46.9125 35.8413 47.3638 35.7376 47.5254 35.4932C47.9056 34.9201 48.1419 34.2519 48.4426 33.6091C48.3558 33.584 48.2655 33.5733 48.1755 33.5773C45.9583 34.0295 43.7936 33.728 41.6403 33.1422C38.4789 32.2574 35.4452 30.9661 32.6158 29.3013C31.1968 28.482 29.8354 27.5639 28.7182 26.3375C28.5754 26.1813 28.4208 26.0376 28.1997 25.8158C27.8561 26.9184 27.5509 27.8941 27.1907 29.0453L27.1906 29.0455ZM22.847 46.054C25.2675 48.4224 35.6201 53.2927 40.5782 52.5616C40.8809 51.6987 41.1912 50.8132 41.5094 49.9048C35.4585 49.4353 30.1122 47.1991 25.0479 44.1476C24.2943 44.7999 23.5708 45.4267 22.8471 46.0538L22.847 46.054ZM43.7363 44.7949C38.0631 44.2776 32.5935 42.4092 27.7872 39.3471L26.3938 42.3265C26.4506 42.4217 26.4605 42.4633 26.4858 42.477C26.9846 42.7494 27.4842 43.0196 27.9846 43.2876C31.3215 45.0743 34.9039 46.3586 38.6154 47.0982C39.9063 47.3698 41.2294 47.4527 42.5433 47.3442L43.7363 44.7949ZM47.2953 26.6482C47.198 26.7087 47.1042 26.7338 47.092 26.7793C46.7994 27.9368 45.8829 28.2643 44.8631 28.4902C43.521 28.787 42.1999 28.5964 40.8927 28.3136C37.1016 27.4681 33.466 26.0322 30.1197 24.0588C29.8775 23.9186 29.6122 23.818 29.3578 23.699C29.4047 24.0638 29.5679 24.4043 29.8232 24.6702C30.3087 25.1746 30.8374 25.6361 31.4028 26.0494C34.8109 28.3669 38.6071 30.0552 42.6105 31.0339C44.105 31.4088 45.647 31.6208 47.17 31.2346C47.8416 31.0568 48.4773 30.765 49.0492 30.372C49.6429 29.9674 49.697 29.3994 49.3291 28.7903C48.8157 27.9372 48.1215 27.206 47.2953 26.6482Z" fill="black"/>
<path d="M17.9383 31.9044L16.3872 35.221C16.7873 35.6302 17.1704 35.9927 17.5209 36.3854C18.8976 37.929 18.5678 39.7383 16.7456 40.6926C15.9952 41.0856 15.5122 41.1607 13.8476 41.1467C13.412 41.7413 12.9797 42.326 12.5534 42.9149C12.316 43.243 12.0128 43.4412 11.6136 43.2657C11.1923 43.0805 11.2041 42.6734 11.2818 42.3135C11.4284 41.6367 11.6244 40.9703 11.8204 40.2217C11.3788 39.8518 10.8963 39.4533 10.4206 39.0465C10.185 38.8607 9.96511 38.656 9.76311 38.4344C9.37204 37.9686 9.3526 37.4863 9.66704 37.0632C9.95855 36.6706 10.4613 36.5714 11.02 36.8789C11.629 37.2134 12.2034 37.6114 12.7777 37.9724C13.3595 37.3921 13.5829 36.9891 14.0293 35.7465C13.6785 35.3889 13.2844 35.0339 12.9448 34.633C11.5708 33.0107 11.9995 31.0893 13.928 30.197C14.7396 29.7953 15.6448 29.6173 16.5499 29.6815C17.0969 29.7314 17.417 29.5351 17.6608 29.0601C17.8195 28.7316 18.0444 28.4394 18.3212 28.2017C18.4251 28.1318 18.5443 28.088 18.6688 28.074C18.7933 28.0599 18.9195 28.076 19.0366 28.1209C19.1318 28.2032 19.206 28.3069 19.2532 28.4234C19.3002 28.54 19.3188 28.666 19.3073 28.791C19.203 29.212 19.0614 29.6228 18.8842 30.0188C19.257 30.3084 19.6148 30.6167 19.9559 30.9429C20.4837 31.4984 20.556 32.1409 20.2111 32.6732C19.9057 33.1444 19.551 33.186 19.1759 32.7584C18.8474 32.3846 18.5879 31.9369 17.9383 31.9044ZM16.0353 31.8158C14.905 31.925 14.1912 32.2696 14.1609 32.761C14.124 33.3475 14.5199 33.6849 15.0144 33.9989L16.0353 31.8158ZM14.7835 38.8054C15.4733 38.8641 16.1337 38.8574 16.3938 38.2551C16.6118 37.7501 16.1083 37.3908 15.6921 37.1136C15.6682 37.0977 15.6278 37.1065 15.4948 37.096C15.3327 37.4426 15.149 37.8194 14.9806 38.2029C14.9071 38.3708 14.8648 38.5525 14.7835 38.8054Z" fill="black"/>
</g>
<defs>
<clipPath id="clip0_340_134">
<rect width="43.9938" height="45.1828" fill="white" transform="translate(19.1406) rotate(25.0636)"/>
</clipPath>
</defs>
</svg>
