<svg width="86" height="52" viewBox="0 0 86 52" fill="none" xmlns="http://www.w3.org/2000/svg">
<path d="M38.5133 26.1041L37.0133 26.1041L37.0133 26.1041L38.5133 26.1041ZM24.2783 32.2511L23.5797 33.5784L23.5797 33.5784L24.2783 32.2511ZM79.9913 0.887059C79.6435 0.135156 78.7521 -0.192472 78.0002 0.155282L65.7472 5.82226C64.9953 6.17002 64.6677 7.06147 65.0154 7.81337C65.3632 8.56527 66.2546 8.8929 67.0065 8.54515L77.8981 3.50783L82.9354 14.3994C83.2831 15.1513 84.1746 15.4789 84.9265 15.1311C85.6784 14.7834 86.006 13.8919 85.6583 13.14L79.9913 0.887059ZM19.7491 17.3686L18.5285 16.4968L18.5285 16.4968L19.7491 17.3686ZM0.522595 51.0587C5.64837 50.6768 12.9801 49.2231 19.9102 46.6018C26.7935 43.9983 33.5478 40.1436 37.2124 34.798L34.7379 33.1017C31.6004 37.6786 25.5556 41.2591 18.8488 43.7959C12.1889 46.3149 5.13966 47.7064 0.29967 48.067L0.522595 51.0587ZM37.2124 34.798C38.9602 32.2484 40.0133 29.3457 40.0133 26.1041L37.0133 26.1041C37.0133 28.6579 36.1931 30.979 34.7379 33.1017L37.2124 34.798ZM23.5797 33.5784C24.5751 34.1023 26.2514 34.5866 28.3149 34.9309C30.4191 35.2821 33.0441 35.5071 36.0043 35.4496L35.946 32.4502C33.1668 32.5041 30.7266 32.2919 28.8087 31.9718C26.8503 31.645 25.5479 31.2242 24.977 30.9237L23.5797 33.5784ZM36.0043 35.4496C42.7168 35.3193 51.2426 33.7336 59.3493 28.7709C67.4791 23.794 75.0985 15.4735 80.0378 2.03417L77.2219 0.999279C72.5045 13.8348 65.3097 21.6046 57.7829 26.2123C50.233 30.8342 42.2597 32.3276 35.946 32.4502L36.0043 35.4496ZM40.0133 26.1041C40.0133 22.0769 39.0912 18.8973 37.5105 16.5349C35.9232 14.1628 33.7267 12.6998 31.3517 12.0413C26.6763 10.7451 21.3309 12.5736 18.5285 16.4968L20.9697 18.2405C23.02 15.3702 27.0567 13.9637 30.5502 14.9323C32.2596 15.4062 33.8443 16.4505 35.0171 18.2032C36.1964 19.9657 37.0133 22.5286 37.0133 26.1041L40.0133 26.1041ZM18.5285 16.4968C16.3632 19.528 15.8616 22.928 16.8508 26.0488C17.8305 29.1396 20.222 31.8112 23.5797 33.5784L24.977 30.9237C22.1878 29.4557 20.4107 27.3514 19.7106 25.1424C19.0199 22.9635 19.3272 20.5399 20.9697 18.2405L18.5285 16.4968Z" fill="black" fill-opacity="0.3"/>
</svg>
