<svg width="134" height="83" viewBox="0 0 134 83" fill="none" xmlns="http://www.w3.org/2000/svg">
<g clip-path="url(#clip0_810_1042)">
<path d="M34.0561 -52.7211L32.0664 -52.9241L34.0561 -52.7211ZM101.242 72.1082C102.323 71.8828 103.017 70.8235 102.792 69.7422L99.1195 52.1208C98.8941 51.0395 97.8349 50.3456 96.7535 50.5709C95.6722 50.7963 94.9783 51.8555 95.2036 52.9369L98.468 68.6003L82.8045 71.8647C81.7232 72.0901 81.0293 73.1494 81.2546 74.2307C81.48 75.312 82.5393 76.0059 83.6206 75.7806L101.242 72.1082ZM-28.0639 -174.032C-13.5887 -166.667 3.33142 -155.182 15.6858 -136.215C28.0195 -117.279 35.9214 -90.7028 32.0664 -52.9241L36.0458 -52.518C39.9815 -91.0887 31.931 -118.603 19.0375 -138.398C6.16473 -158.161 -11.417 -170.05 -26.2499 -177.597L-28.0639 -174.032ZM32.0664 -52.9241C27.9332 -12.4181 38.3568 14.627 53.2057 33.6712C67.9738 52.6117 87.0581 63.5169 99.738 71.8232L101.93 68.4772C89.0117 60.0149 70.6234 49.5046 56.3602 31.2117C42.1779 13.0225 32.0117 -12.9838 36.0458 -52.518L32.0664 -52.9241Z" fill="#0D64E5"/>
<path d="M27.1877 -46.2933L25.3904 -47.1706L27.1877 -46.2933ZM43.7038 70.1522C44.7965 70.3135 45.8131 69.5584 45.9744 68.4657L48.6025 50.6585C48.7638 49.5658 48.0087 48.5492 46.9159 48.388C45.8232 48.2267 44.8066 48.9818 44.6453 50.0745L42.3093 65.9031L26.4807 63.567C25.388 63.4057 24.3714 64.1608 24.2101 65.2535C24.0489 66.3463 24.804 67.3628 25.8967 67.5241L43.7038 70.1522ZM13.3007 -157.983C22.4214 -148.154 32.2477 -134.457 36.4136 -116.282C40.571 -98.1443 39.1398 -75.3358 25.3904 -47.1706L28.9849 -45.4159C43.0839 -74.297 44.6992 -98.0377 40.3125 -117.176C35.9344 -136.276 25.6261 -150.581 16.2328 -160.703L13.3007 -157.983ZM25.3904 -47.1706C10.5786 -16.8293 10.9468 7.23684 17.076 26.3531C23.165 45.3438 34.9243 59.3149 42.3903 69.3662L45.6014 66.9811C37.9655 56.701 26.7233 43.3407 20.885 25.1318C15.087 7.04842 14.6021 -15.9532 28.9849 -45.4159L25.3904 -47.1706Z" fill="#0D64E5" fill-opacity="0.5"/>
</g>
<defs>
<clipPath id="clip0_810_1042">
<rect width="83" height="134" fill="white" transform="translate(134) rotate(90)"/>
</clipPath>
</defs>
</svg>
