<svg width="40" height="41" viewBox="0 0 40 41" fill="none" xmlns="http://www.w3.org/2000/svg">
<path d="M28.3475 35.291L11.6809 35.3068C8.0142 35.3102 5.0117 32.3135 5.00754 28.6468L4.9917 11.9802C4.98837 8.31352 7.98504 5.31102 11.6517 5.30685L28.3184 5.29102C31.985 5.28769 34.9875 8.28435 34.9917 11.951L35.0075 28.6177C35.0117 32.2852 32.0142 35.2877 28.3475 35.291Z" fill="url(#paint0_radial_246_590)"/>
<path d="M28.3475 35.291L11.6809 35.3068C8.0142 35.3102 5.0117 32.3135 5.00754 28.6468L4.9917 11.9802C4.98837 8.31352 7.98504 5.31102 11.6517 5.30685L28.3184 5.29102C31.985 5.28769 34.9875 8.28435 34.9917 11.951L35.0075 28.6177C35.0117 32.2852 32.0142 35.2877 28.3475 35.291Z" fill="url(#paint1_radial_246_590)"/>
<path d="M19.9998 26.1325C16.784 26.1325 14.1665 23.5158 14.1665 20.2992C14.1665 17.0825 16.784 14.4658 19.9998 14.4658C23.2157 14.4658 25.8332 17.0825 25.8332 20.2992C25.8332 23.5158 23.2157 26.1325 19.9998 26.1325ZM19.9998 16.1325C17.7023 16.1325 15.8332 18.0017 15.8332 20.2992C15.8332 22.5967 17.7023 24.4658 19.9998 24.4658C22.2973 24.4658 24.1665 22.5967 24.1665 20.2992C24.1665 18.0017 22.2973 16.1325 19.9998 16.1325Z" fill="white"/>
<path d="M26.25 15.2993C26.9404 15.2993 27.5 14.7397 27.5 14.0493C27.5 13.359 26.9404 12.7993 26.25 12.7993C25.5596 12.7993 25 13.359 25 14.0493C25 14.7397 25.5596 15.2993 26.25 15.2993Z" fill="white"/>
<path d="M24.9998 31.1325H14.9998C11.784 31.1325 9.1665 28.5158 9.1665 25.2992V15.2992C9.1665 12.0825 11.784 9.46582 14.9998 9.46582H24.9998C28.2157 9.46582 30.8332 12.0825 30.8332 15.2992V25.2992C30.8332 28.5158 28.2157 31.1325 24.9998 31.1325ZM14.9998 11.1325C12.7023 11.1325 10.8332 13.0017 10.8332 15.2992V25.2992C10.8332 27.5967 12.7023 29.4658 14.9998 29.4658H24.9998C27.2973 29.4658 29.1665 27.5967 29.1665 25.2992V15.2992C29.1665 13.0017 27.2973 11.1325 24.9998 11.1325H14.9998Z" fill="white"/>
<defs>
<radialGradient id="paint0_radial_246_590" cx="0" cy="0" r="1" gradientUnits="userSpaceOnUse" gradientTransform="translate(16.15 35.3285) scale(37.4158)">
<stop stop-color="#FFDD55"/>
<stop offset="0.328" stop-color="#FF543F"/>
<stop offset="0.348" stop-color="#FC5245"/>
<stop offset="0.504" stop-color="#E64771"/>
<stop offset="0.643" stop-color="#D53E91"/>
<stop offset="0.761" stop-color="#CC39A4"/>
<stop offset="0.841" stop-color="#C837AB"/>
</radialGradient>
<radialGradient id="paint1_radial_246_590" cx="0" cy="0" r="1" gradientUnits="userSpaceOnUse" gradientTransform="translate(9.8217 4.91627) scale(24.8442 16.5537)">
<stop stop-color="#4168C9"/>
<stop offset="0.999" stop-color="#4168C9" stop-opacity="0"/>
</radialGradient>
</defs>
</svg>
