<svg width="36" height="37" viewBox="0 0 36 37" fill="none" xmlns="http://www.w3.org/2000/svg">
<path d="M31.5 28.0493C31.5 30.1208 29.8215 31.7993 27.75 31.7993H8.25C6.17925 31.7993 4.5 30.1208 4.5 28.0493V8.54932C4.5 6.47782 6.17925 4.79932 8.25 4.79932H27.75C29.8215 4.79932 31.5 6.47782 31.5 8.54932V28.0493Z" fill="#0078D4"/>
<path opacity="0.05" d="M22.5 28.0493V20.4751C22.5 19.2083 21.8858 18.4516 20.856 18.4516C20.2448 18.4516 19.7955 18.7958 19.5217 19.4746C19.509 19.5226 19.491 19.7183 19.4985 20.3101L19.5 28.0493H14.25V13.7993H19.5V14.5951C20.2665 14.0663 21.2063 13.7993 22.3035 13.7993C25.7138 13.7993 27.7493 16.1191 27.7493 20.0048L27.75 28.0493H22.5ZM8.25 28.0493V13.7993H10.8427C9.3405 13.7993 8.25 12.6953 8.25 11.1736C8.25 9.65332 9.3585 8.54932 10.8855 8.54932C12.3945 8.54932 13.4693 9.62257 13.5 11.1586C13.5 12.6916 12.3907 13.7993 10.8637 13.7993H13.5V28.0493H8.25Z" fill="black"/>
<path opacity="0.07" d="M22.875 27.6743V20.4751C22.875 18.9953 22.1018 18.0766 20.856 18.0766C19.8848 18.0766 19.4048 18.7606 19.1737 19.3343C19.1123 19.4836 19.1205 20.0761 19.1235 20.3288L19.125 27.6743H14.625V14.1743H19.125V15.4028C19.7212 14.7856 20.6813 14.1743 22.3035 14.1743C25.4783 14.1743 27.3743 16.3538 27.3743 20.0048L27.375 27.6743H22.875ZM8.625 27.6743V14.1743H13.125V27.6743H8.625ZM10.8427 13.4243C9.558 13.4243 8.625 12.4778 8.625 11.1736C8.625 9.87007 9.576 8.92432 10.8855 8.92432C12.1785 8.92432 13.0988 9.84607 13.125 11.1661C13.125 12.4778 12.174 13.4243 10.8637 13.4243H10.8427Z" fill="black"/>
<path d="M9 14.5493H12.75V27.2993H9V14.5493ZM10.8637 13.0493H10.8427C9.72375 13.0493 9 12.2153 9 11.1736C9 10.1093 9.74625 9.29932 10.8855 9.29932C12.0262 9.29932 12.729 10.1093 12.75 11.1736C12.75 12.2146 12.0262 13.0493 10.8637 13.0493ZM27 27.2993H23.25V20.4751C23.25 18.8266 22.3313 17.7016 20.856 17.7016C19.7303 17.7016 19.1213 18.4606 18.8258 19.1941C18.7177 19.4566 18.75 20.1826 18.75 20.5493V27.2993H15V14.5493H18.75V16.5113C19.2907 15.6743 20.1375 14.5493 22.3035 14.5493C24.987 14.5493 26.9993 16.2368 26.9993 20.0048L27 27.2993Z" fill="white"/>
</svg>
