<svg width="70" height="68" viewBox="0 0 70 68" fill="none" xmlns="http://www.w3.org/2000/svg">
<g clip-path="url(#clip0_340_137)">
<path d="M12.8225 41.3871C13.1619 41.9027 13.129 42.3282 12.7122 42.8096C12.304 43.3145 11.971 43.8761 11.724 44.4766C11.2299 45.5898 11.0913 47.1258 11.954 47.8673C12.5322 48.3718 13.1556 48.8221 13.8162 49.2125C14.7033 49.7387 15.6807 50.095 16.6979 50.2625C17.9585 50.4657 18.9654 49.8501 19.3899 48.615C19.4896 48.3268 19.585 48.0369 19.6866 47.7301L19.747 47.5485C20.0904 47.7929 20.4245 48.0386 20.7497 48.277C21.5998 48.9238 22.4828 49.5265 23.395 50.0827C24.3243 50.62 25.2682 51.0584 26.2763 51.5189C26.6341 51.6819 27.0017 51.8505 27.3671 52.0237C27.331 52.0703 27.2958 52.1158 27.2611 52.1603C27.0956 52.3622 26.9453 52.5761 26.8111 52.8002C26.2033 53.8781 26.0064 54.8688 26.243 55.6627C26.431 56.2952 26.8851 56.8049 27.5899 57.1746C29.1178 57.9771 30.4066 58.5879 31.6457 59.0964C32.5404 59.4639 33.3513 59.1859 33.869 58.3333C34.3431 57.5539 34.7783 56.7339 35.1991 55.9415C35.3305 55.6939 35.4619 55.4464 35.5947 55.1999C35.7351 54.9388 35.8608 54.6727 35.9828 54.4154C36.0154 54.3459 36.0478 54.277 36.08 54.2091C36.5847 54.269 37.0824 54.3296 37.5732 54.3907C38.7733 54.5386 39.9072 54.6785 41.0627 54.789C43.8828 55.0593 46.3755 54.4484 48.4729 52.9744C48.5719 52.9048 48.6804 52.8437 48.7947 52.7797C48.8119 52.7702 48.8287 52.76 48.8463 52.7505C48.9167 52.8048 48.9855 52.8585 49.0529 52.912C49.2805 53.0904 49.4956 53.2589 49.7278 53.4119C50.1057 53.661 50.4964 53.8772 50.8628 54.0731C52.1274 54.7522 52.8793 54.5762 53.7353 53.401C55.3221 51.2233 56.3191 48.7196 57.2824 46.2979L57.3276 46.1841C57.8363 44.9061 57.5893 44.2162 56.3493 43.45C55.8211 43.1241 55.2757 42.8123 54.748 42.5105C54.5509 42.3978 54.354 42.2853 54.1582 42.172C55.0295 37.698 54.177 34.2888 51.4806 31.4753C52.0537 31.0814 52.6007 30.6509 53.1179 30.1863C53.9485 29.4712 54.7333 28.7954 55.7419 28.4148C56.3669 28.1786 56.6829 27.7424 56.5875 27.2475C56.5292 27.0491 56.4297 26.865 56.2955 26.7074C56.1611 26.5496 55.9951 26.4219 55.8084 26.3325C52.4892 24.7949 49.5461 24.6612 46.8128 25.9249C46.6822 25.9826 46.5488 26.0337 46.4131 26.078L46.3907 26.0857C46.2286 25.9749 46.0741 25.8654 45.9236 25.7589C45.5669 25.4952 45.1957 25.2521 44.8115 25.0305C43.7133 24.4245 42.5001 23.7867 41.1022 23.081C36.1913 20.6022 31.4332 19.4518 26.5561 19.5645C22.1195 19.6669 18.6188 21.2198 15.8534 24.3122C15.5385 24.6643 15.2439 24.8111 14.9229 24.7682C15.0044 24.5925 15.0901 24.4179 15.1736 24.2471C15.464 23.7014 15.6978 23.1276 15.8711 22.5343C15.9953 22.0654 15.946 21.5668 15.732 21.1301C15.518 20.6934 15.1538 20.3477 14.7061 20.1563C14.2722 19.986 13.7938 19.9669 13.3486 20.1022C12.9036 20.2374 12.5179 20.519 12.2542 20.9013C11.9438 21.3837 11.684 21.8969 11.479 22.4327C11.3841 22.657 11.2859 22.8893 11.1823 23.1101C11.1629 23.1509 11.1583 23.1969 11.1689 23.241C10.6799 23.4137 10.0884 23.6748 10.1829 24.4563C10.2729 25.2 10.9128 25.4348 11.4268 25.6245L11.576 25.6777C11.7889 25.7419 11.9927 25.8329 12.1825 25.9487C12.5383 26.1897 12.8864 26.457 13.2553 26.7399C13.3702 26.8291 13.4892 26.919 13.6118 27.0125C13.6079 27.0192 13.6031 27.0254 13.5989 27.0319C13.5169 27.1571 13.4337 27.2845 13.3446 27.408C12.3717 28.7126 11.7397 30.2393 11.5055 31.8506C11.4654 32.1377 11.4105 32.4308 11.3573 32.7141C11.2613 33.1769 11.1924 33.6453 11.1512 34.1164C11.0799 34.9195 11.0988 35.7283 11.2075 36.528C11.4594 38.0736 11.811 39.8497 12.8225 41.3871ZM52.7502 27.5649C52.3221 27.8448 51.9127 28.1521 51.5247 28.4849C50.7479 29.1835 49.9649 29.9608 49.1976 30.7962C48.6733 31.3669 48.7096 31.9123 49.3087 32.4629C51.1794 34.1815 52.0883 36.4113 52.0878 39.278C52.0632 40.218 51.9365 41.1523 51.7106 42.0647C51.4741 43.1221 51.5466 43.7049 52.6007 44.3629C53.0802 44.6624 53.5756 44.9453 54.1002 45.2448C54.2973 45.3575 54.5 45.4732 54.7101 45.5945L51.8729 51.4308C51.6519 51.3612 51.4401 51.2916 51.2338 51.2252C50.6441 51.0333 50.0876 50.8512 49.5223 50.7281C49.1159 50.6388 48.5466 50.6234 48.1711 50.8502C44.874 52.8312 41.3213 52.5852 38.2811 52.0834L37.886 52.018C37.1183 51.8908 36.324 51.7589 35.5398 51.6506C34.772 51.5442 34.3503 52.1795 34.1475 52.4848C33.6374 53.2529 33.1478 54.0509 32.6739 54.8226C32.4974 55.1102 32.3209 55.3977 32.143 55.6843C32.0751 55.7938 32.0108 55.9057 31.928 56.0502L31.8661 56.1567L29.2006 54.9582C29.2891 54.7316 29.372 54.5079 29.4544 54.2883C29.6542 53.7183 29.8873 53.1605 30.1526 52.6179C30.5236 51.8982 30.5901 51.2642 30.3505 50.7332C30.0941 50.166 29.4883 49.7459 28.5968 49.5169C26.8098 49.0574 25.295 48.1909 23.8962 47.3432C23.477 47.0892 23.0722 46.7868 22.6806 46.494C22.3966 46.2815 22.1025 46.062 21.8018 45.8593C21.4325 45.6055 21.0348 45.396 20.6167 45.2356C19.5608 44.8421 18.7806 45.0518 18.0063 45.935C17.7584 46.2174 17.5338 46.5226 17.3252 46.8101C17.193 46.9927 17.0704 47.1805 16.9284 47.3978C16.889 47.4582 16.848 47.5211 16.8047 47.5868L14.0103 46.2107C14.1311 45.9462 14.246 45.6848 14.3593 45.4272C14.6477 44.7352 14.975 44.0602 15.3396 43.4054C15.6962 42.7941 15.9771 42.1017 15.6172 41.185L15.4223 40.6904C14.9596 39.5816 14.5609 38.4476 14.2281 37.2938C13.8251 35.8822 13.7321 34.4015 13.9554 32.9531C14.1788 31.5044 14.7133 30.1223 15.5223 28.9011C16.8868 26.7698 18.4142 25.1456 20.192 23.9357C21.6136 22.968 23.3217 22.3998 25.4141 22.1992C30.4008 21.7194 35.3408 22.8316 40.5162 25.5987C41.1415 25.9331 41.7718 26.2853 42.3814 26.6261C43.3068 27.1434 44.2634 27.6781 45.2273 28.1641C45.6829 28.3937 46.3897 28.1435 46.596 28.0603C48.6006 27.2583 50.1837 26.9771 51.7288 27.1492C52.0856 27.189 52.4445 27.2473 52.8602 27.3148L53.0629 27.3477C52.9559 27.4233 52.8513 27.495 52.7502 27.5649Z" fill="black"/>
<path d="M42.5532 10.8659C40.8883 10.0829 39.0119 10.24 37.2693 11.3076C36.0927 12.0287 35.3356 12.9469 35.0191 14.037C34.3856 16.2191 35.3471 18.0761 37.8772 19.5571C37.9398 19.5979 38.0029 19.6366 38.0668 19.6736C39.5985 20.5633 41.5264 20.4132 43.2716 19.2555C44.8454 18.2113 45.5769 17.0227 45.5078 15.6217C45.3978 13.3988 44.3497 11.7113 42.5532 10.8659ZM41.664 16.8821C40.6242 17.5159 39.6161 17.6396 38.9774 17.1995L38.9661 17.193C38.0211 16.6381 37.4732 15.978 37.3807 15.2847C37.3019 14.6915 37.562 14.0733 38.1328 13.4972C38.4365 13.1783 38.7885 12.9088 39.176 12.6987C39.4592 12.5482 39.7763 12.4724 40.0977 12.4784C40.419 12.4844 40.7338 12.572 41.0122 12.7328C41.2606 12.8784 41.475 13.0754 41.6407 13.3103C41.9647 13.7468 42.2316 14.2226 42.4352 14.7261C42.8313 15.7616 42.6432 16.2852 41.664 16.8821Z" fill="black"/>
<path d="M38.3628 26.2215C35.1404 24.67 32.0588 23.8372 28.9393 23.6747C28.3622 23.6583 27.7851 23.704 27.2182 23.811C26.5414 23.9253 26.1336 24.3878 26.2032 24.9615C26.2152 25.0914 26.2591 25.2163 26.3307 25.3257C26.4025 25.4349 26.4999 25.5249 26.6144 25.5881C26.85 25.711 27.1103 25.7787 27.3756 25.7862C29.8333 25.9546 32.3943 26.5846 35.205 27.7121C36.0316 28.0436 36.8846 28.3538 37.7396 28.634C38.4018 28.8517 38.948 28.6763 39.2795 28.1421L39.2826 28.1368C39.3643 28.0043 39.417 27.8562 39.437 27.7017C39.4573 27.5474 39.4444 27.3903 39.3995 27.241C39.2753 26.8408 38.9175 26.4869 38.3628 26.2215Z" fill="black"/>
<path d="M44.5332 35.5402C44.389 35.7542 44.2898 35.9953 44.2413 36.2488C44.1926 36.5024 44.1958 36.7635 44.2505 37.0163C44.3053 37.269 44.4104 37.5082 44.5597 37.7199C44.709 37.9314 44.8994 38.1111 45.1194 38.2479C45.1442 38.2638 45.169 38.2789 45.1944 38.2937C45.631 38.5457 46.1483 38.6183 46.6362 38.496C46.9007 38.4321 47.1492 38.3154 47.3669 38.153C47.5845 37.9906 47.7669 37.7857 47.9028 37.5509C48.4284 36.635 48.1785 35.5185 47.334 35.009C46.2671 34.3747 45.1428 34.5795 44.5332 35.5402Z" fill="black"/>
</g>
<defs>
<clipPath id="clip0_340_137">
<rect width="52.8037" height="47.7403" fill="white" transform="translate(23.9771) rotate(30.1481)"/>
</clipPath>
</defs>
</svg>
