<svg width="45" height="46" viewBox="0 0 45 46" fill="none" xmlns="http://www.w3.org/2000/svg">
<path d="M31.2018 28.4894C32.7118 30.2783 33.502 32.2333 33.4694 34.4819C33.4245 37.5803 31.8329 39.9126 29.5964 41.8276C26.9901 44.0589 23.8404 45.0002 20.4695 45.2646C19.7312 45.3068 18.9912 45.3093 18.2527 45.272C17.9336 45.2657 17.6176 45.2094 17.3159 45.1052C16.1073 44.6674 15.9235 43.7719 16.8821 42.9297C17.8231 42.1031 18.8386 41.3582 19.7451 40.4971C20.4397 39.8321 21.0687 39.1018 21.6236 38.3164C22.211 37.4896 22.2627 36.5357 21.8986 35.4364C21.3181 35.7066 20.7621 35.922 20.2511 36.2148C19.1796 36.8286 18.5752 36.8032 17.656 35.9963C16.7628 35.212 15.8851 34.4104 14.9966 33.6208C14.8644 33.5177 14.7263 33.4224 14.5829 33.3354C14.0439 33.8337 13.5429 34.3305 13.0058 34.7846C12.2941 35.3863 11.5881 35.4021 11.1263 34.8693C10.6934 34.3706 10.7647 33.7113 11.3901 33.0704C11.834 32.6152 12.3412 32.2213 12.7159 31.8913C11.7082 30.6612 10.6925 29.6527 9.96222 28.4695C9.10883 27.0858 10.1635 25.8524 10.8225 24.4986C9.56447 24.4197 8.52988 24.6501 7.6983 25.2879C6.9047 25.9314 6.18902 26.6654 5.56581 27.475C4.96215 28.2199 4.49262 29.0731 3.95669 29.8736C3.45146 30.6284 2.93387 31.4216 1.87013 31.312C1.1337 31.2361 0.106821 29.9095 0.0386972 28.9124C-0.115691 26.6392 0.173788 24.427 1.23521 22.3721C3.17973 18.6089 6.243 16.1618 10.2336 14.8526C11.9056 14.3041 13.59 14.4788 15.2954 14.9983C15.3899 14.8894 15.5009 14.781 15.5897 14.6569C20.1951 8.22064 26.4712 4.13513 33.904 1.70891C36.4354 0.882742 38.9963 0.130669 41.6947 0.0617736C42.3688 0.0445978 43.0431 -0.00693708 43.7168 0.000782347C44.5954 0.0106246 45.0335 0.322304 44.998 1.18051C44.9524 2.84132 44.7969 4.49729 44.5325 6.13755C43.4479 12.306 40.4816 17.5963 36.6286 22.4213C35.1289 24.2994 33.4403 26.0272 31.8358 27.8218C31.6461 28.0333 31.4444 28.2344 31.2018 28.4894ZM16.2088 31.3523C17.2123 32.1497 17.9431 32.7754 18.7288 33.3207C18.8623 33.3836 19.0082 33.4159 19.1558 33.4152C19.3034 33.4145 19.4489 33.3807 19.5818 33.3165C20.8271 32.6563 22.1006 32.0248 23.2599 31.2309C27.3888 28.4033 31.1243 25.1181 34.2641 21.2097C35.9678 19.0894 37.5266 16.8531 39.1828 14.626L29.5854 5.71356C29.2686 5.86172 28.96 6.02671 28.6608 6.2078C26.7888 7.45005 24.8804 8.64346 23.0727 9.97352C21.0464 11.4641 19.3317 13.2857 17.8009 15.2936C15.2622 18.6231 13.7675 22.5112 11.889 26.1934C11.7022 26.5601 11.807 27.2986 12.0717 27.6265C12.7609 28.4801 13.6143 29.2013 14.5402 30.1108C15.9876 28.6106 17.2613 27.2085 18.6284 25.9026C19.416 25.1955 20.2605 24.5544 21.1533 23.9858C21.6226 23.667 22.2218 23.5584 22.6512 24.048C23.0864 24.5443 22.7116 25.0305 22.4057 25.4294C22.0442 25.88 21.6524 26.3055 21.2332 26.7031C20.3647 27.5615 19.4944 28.4174 18.5997 29.2476C17.8492 29.9452 17.0629 30.6035 16.2088 31.3523ZM43.1789 1.87855C39.0724 1.88685 35.4479 3.41356 31.7526 4.656L31.6866 4.91169L40.1859 12.0769C41.6424 9.76877 42.7592 5.96348 43.1789 1.87855ZM22.8405 41.6469C26.2985 40.9956 28.9775 39.2417 30.4828 36.0274C31.4863 33.8821 30.7854 31.8799 29.6026 29.9765C27.6115 31.4965 25.7072 32.9506 23.8032 34.4044C25.3028 37.051 24.5348 39.3819 22.8405 41.6469ZM14.2334 16.6113C9.28947 15.8007 2.45526 22.4858 2.89855 27.0752C4.91738 23.887 7.50802 21.9662 11.4065 22.6573L14.2334 16.6113Z" fill="black"/>
<path d="M4.2096 41.3353C4.35608 41.0701 4.51336 40.588 4.82715 40.2528C6.01054 38.9893 7.23735 37.766 8.46493 36.545C8.82543 36.1864 9.28146 35.9602 9.75061 36.3429C10.2454 36.7466 10.0289 37.2291 9.73652 37.6286C8.73299 38.9988 7.72715 40.369 6.66669 41.6946C6.35126 42.0569 5.95033 42.3347 5.50029 42.5028C4.83217 42.766 4.18625 42.2363 4.2096 41.3353Z" fill="black"/>
<path d="M15.2003 36.4221C15.9118 36.4414 16.429 37.0831 16.1125 37.58C15.3064 38.8309 14.4209 40.0287 13.4615 41.1661C13.1178 41.5777 12.5006 41.5194 12.0641 41.1256C11.8645 40.9566 11.7339 40.7202 11.6971 40.4613C11.6604 40.2024 11.72 39.939 11.8647 39.7212C12.1266 39.2851 12.438 38.8807 12.7928 38.516C13.3183 37.9564 13.8735 37.4226 14.4443 36.9098C14.6805 36.724 14.9336 36.5607 15.2003 36.4221Z" fill="black"/>
<path d="M8.844 30.9938C8.70815 31.294 8.54768 31.5824 8.36423 31.8561C7.46814 32.9745 6.55827 34.0817 5.63464 35.1777C5.4611 35.3646 5.25921 35.523 5.03639 35.6471C4.57515 35.9306 4.1062 35.9302 3.73431 35.5103C3.35008 35.0764 3.43538 34.5949 3.82058 34.2217C5.08155 32.9993 6.35699 31.7914 7.65771 30.6117C7.82773 30.4573 8.18978 30.4322 8.43853 30.4781C8.58791 30.5057 8.69057 30.7869 8.844 30.9938Z" fill="black"/>
<path d="M29.1608 10.5068C30.414 10.4896 31.3801 11.0022 32.3499 11.8098C33.3551 12.647 34.1061 13.5399 34.4772 14.788C35.3336 17.6746 33.639 19.7996 30.8907 20.1883C28.6633 20.5032 26.7739 19.586 25.3997 17.8423C24.2225 16.3482 24.1906 14.6096 25.0072 12.939C25.8304 11.2532 27.3135 10.5247 29.1608 10.5068ZM26.5155 15.1317C26.8374 15.6871 27.0684 16.3951 27.548 16.828C28.0448 17.2763 28.7671 17.4984 29.4186 17.7462C30.2747 18.072 31.0156 17.7269 31.5972 17.1214C32.1602 16.5356 32.181 15.8 31.906 15.0506C31.4726 13.8692 30.4615 13.2763 29.4462 12.7415C28.5346 12.2614 27.6694 12.5486 27.1497 13.4477C26.8847 13.9052 26.7662 14.4475 26.5155 15.1317Z" fill="black"/>
</svg>
