<svg width="51" height="51" viewBox="0 0 51 51" fill="none" xmlns="http://www.w3.org/2000/svg">
<g clip-path="url(#clip0_340_159)">
<path d="M26.4741 21.1176C25.5902 21.3732 24.8357 21.5913 24.0813 21.8095C23.287 22.0391 22.4968 22.2841 21.6977 22.4962C21.4285 22.5675 21.1105 22.6445 20.8643 22.5633C20.6013 22.4763 20.2702 22.2417 20.2026 22.0048C20.135 21.7679 20.2872 21.3781 20.4751 21.1896C20.7018 20.9621 21.0563 20.8429 21.3751 20.7348C22.8603 20.2309 24.3517 19.7487 25.8394 19.2537C25.9928 19.1937 26.1426 19.125 26.2883 19.0479C25.8943 17.7299 25.1839 17.2085 23.8965 17.3073C23.4996 17.341 23.1068 17.4125 22.7237 17.5208C20.8268 18.0406 18.9371 18.5856 17.0381 19.102C16.4593 19.2533 15.873 19.375 15.2817 19.4667C15.1908 19.4895 15.0961 19.4936 15.0034 19.4786C14.9106 19.4637 14.8217 19.4301 14.7419 19.3797C14.6621 19.3294 14.593 19.2635 14.5387 19.1858C14.4845 19.1081 14.4462 19.0203 14.4262 18.9275C14.2889 18.4816 14.5185 18.2104 14.871 18.0152C15.0237 17.9387 15.1838 17.8779 15.3487 17.8336C18.8879 16.7348 22.4273 15.6364 25.967 14.5383C26.4563 14.3859 26.9344 14.1973 27.4195 14.0305C27.9313 13.8541 28.4377 13.6546 28.9601 13.5168C29.6564 13.333 30.1441 13.541 30.3321 14.0414C30.5292 14.566 30.3169 15.028 29.6575 15.3314C29.0899 15.5926 28.4939 15.7939 27.9029 16C27.5104 16.1368 27.1048 16.2351 26.6762 16.359C27.1996 17.0834 27.6652 17.7277 28.186 18.4481C28.72 18.2547 29.2689 18.0321 29.8335 17.8583C30.3703 17.6819 30.92 17.5465 31.4774 17.4533C31.9571 17.3827 32.3019 17.6757 32.462 18.1255C32.6207 18.5713 32.5535 19.0349 32.1425 19.2785C31.5864 19.6079 30.9969 19.9668 30.3781 20.0832C29.1981 20.3049 28.4147 20.6733 28.2465 22.0962C28.1505 22.9092 27.5368 23.7122 27.0077 24.4039C25.8264 25.9466 24.2546 27.0393 22.5808 27.9847C22.3083 28.1385 22.0343 28.2895 21.6469 28.5055C21.9628 28.6297 22.1822 28.7371 22.4137 28.8038C25.8147 29.7987 29.2168 30.7906 32.6195 31.7796C32.7583 31.8143 32.895 31.857 33.0291 31.9071C33.6434 32.164 33.9648 32.7137 33.8315 33.2665C33.6983 33.8193 33.1503 34.1458 32.4904 34.0583C32.3496 34.0352 32.2108 34 32.0759 33.9528C28.3679 32.7799 24.6571 31.6165 20.9556 30.4224C20.2207 30.1842 19.5073 29.8822 18.8235 29.5194C17.7283 28.9388 17.7135 27.8448 18.8045 27.255C19.9551 26.6329 21.172 26.1354 22.3259 25.5189C23.6107 24.8309 24.7481 23.8942 25.6732 22.7617C26.0811 22.2967 26.3577 21.729 26.4741 21.1176Z" fill="black"/>
<path d="M44.477 18.1004C42.8692 14.2284 40.1881 10.9031 36.7584 8.52705C33.9228 6.53866 31.1447 5.34055 28.2657 4.86624C26.0128 4.4741 23.7049 4.59799 21.5124 5.22884C20.8394 5.42461 20.1797 5.66357 19.5372 5.94428C16.8638 7.11259 14.2831 8.74309 11.419 11.0764C7.54526 14.2338 5.40379 18.3542 5.05599 23.3204C4.79289 26.7377 5.30475 30.1758 6.55261 33.3732C7.96635 36.9619 9.66994 39.5675 11.9124 41.5713C15.1519 44.4635 18.6179 45.9817 22.5103 46.2116C24.8702 46.3522 27.3365 46.0524 30.2691 45.2694C31.9851 44.7733 33.5219 44.1017 35.008 43.4517L35.2898 43.3288C38.5349 41.9123 41.0429 39.8516 42.9594 37.0325C44.7719 34.4173 45.8263 31.3401 46.0051 28.1441C46.2101 24.3293 45.7093 21.0432 44.477 18.1004ZM43.6772 30.2557C42.8999 34.7197 40.4323 38.2144 36.3388 40.6432C35.8474 40.9351 35.3268 41.1938 34.7764 41.4668C34.5031 41.6016 34.2182 41.7436 33.9201 41.8965C32.6038 42.5045 30.7558 43.0733 29.7322 43.3692C29.2765 43.501 28.9833 43.5784 28.9751 43.5807C26.2773 44.3256 23.8306 44.5321 21.4972 44.2125C18.3881 43.7867 15.5885 42.3601 12.9413 39.8517C11.3435 38.3393 10.0404 36.3787 8.84182 33.6826C7.31304 30.2541 6.69412 26.4877 7.04634 22.7558C7.40456 18.7846 9.12204 15.3537 12.1509 12.5593C12.8501 11.9133 15.8884 9.96628 16.7099 9.53396C17.8683 8.92977 19.0716 8.41714 20.3091 8.00067C25.2314 6.44751 27.4227 6.68911 31.1273 8.15381C35.0058 9.68714 38.1305 12.1206 40.4151 15.3855C43.522 19.8348 44.6207 24.8375 43.6772 30.2557Z" fill="black"/>
</g>
<defs>
<clipPath id="clip0_340_159">
<rect width="41" height="41" fill="white" transform="translate(0 11.3879) rotate(-16.1263)"/>
</clipPath>
</defs>
</svg>
