<svg width="53" height="53" viewBox="0 0 53 53" fill="none" xmlns="http://www.w3.org/2000/svg">
<g clip-path="url(#clip0_340_142)">
<path d="M44.3875 38.3096C44.7797 39.2448 45.1715 40.0999 45.4984 40.9797C45.8539 41.9356 45.5618 42.6416 44.6593 42.984C42.9837 43.6196 41.2924 44.213 39.6067 44.8216C39.4926 44.8628 39.3737 44.8908 39.2563 44.9228C37.9933 45.269 37.447 44.945 37.1234 43.6868C36.9333 42.9484 36.7148 42.2172 36.5042 41.4842C36.4677 41.3785 36.4245 41.2751 36.3749 41.1747L24.612 44.4972C24.7869 44.903 24.9319 45.1928 25.0384 45.4964C25.2732 46.091 25.4694 46.7002 25.6256 47.3199C25.7819 48.0621 25.4655 48.6267 24.7753 48.8266C23.0537 49.3253 21.3283 49.8221 19.5832 50.2246C18.3397 50.5113 17.9816 50.1986 17.664 48.932C17.4712 48.1636 17.2373 47.4053 16.9914 46.535C16.3689 46.6257 15.7504 46.7154 15.1334 46.8057C14.1646 46.9474 13.2053 46.9796 12.2422 46.7129C11.8142 46.6053 11.4125 46.4103 11.0623 46.1404C10.7122 45.8705 10.4208 45.5312 10.2066 45.1437C9.20749 43.3587 8.43977 41.4531 7.92217 39.4736C7.07629 36.3841 6.28347 33.28 5.45229 30.1863C4.39958 26.2698 3.32174 22.3598 2.27345 18.4419C1.86741 16.924 2.05599 15.4222 2.48335 13.9346C2.92461 12.3983 3.99517 11.446 5.40438 10.8856C7.09709 10.2134 8.80962 9.57684 10.5501 9.04299C13.1942 8.23311 15.8814 7.56437 18.5289 6.76395C21.088 5.99032 23.6017 5.06254 26.1686 4.31783C29.3767 3.38706 32.6108 2.54158 35.8521 1.73336C36.6294 1.53957 37.4813 1.58514 38.2957 1.61494C38.8016 1.62783 39.2957 1.77181 39.7301 2.03294C40.1647 2.29402 40.5248 2.66332 40.7754 3.10497C41.6059 4.45796 42.3793 5.84802 42.7896 7.39566C43.6106 10.4916 44.3425 13.6124 45.2238 16.6905C45.9614 19.2699 46.8408 21.8095 47.6881 24.3565C48.4095 26.525 49.3304 28.6262 49.6493 30.9192C49.8625 32.4096 49.5925 33.9283 48.8796 35.251C48.3647 36.2378 47.487 36.8444 46.5224 37.3253C45.823 37.673 45.1039 37.9808 44.3875 38.3096ZM40.6519 37.7653C42.3719 37.1795 44.0365 36.4182 45.6984 35.6764C46.9342 35.1247 47.5099 34.0738 47.4828 32.7397C47.4868 31.9785 47.3899 31.2198 47.1948 30.4838C46.5707 28.3794 45.897 26.2898 45.1736 24.2149C44.1985 21.416 43.3967 18.5728 42.6891 15.6952C41.9467 12.6747 41.096 9.68035 40.2635 6.68271C40.1266 6.19021 39.8474 5.73566 39.6223 5.26994C39.0613 4.10901 38.1714 3.59657 36.878 3.86239C36.5225 3.93538 36.1485 3.92685 35.7978 4.01441C33.4992 4.58843 31.1825 5.10436 28.9132 5.77738C22.8231 7.58405 16.746 9.43388 10.6819 11.3269C9.06384 11.8328 7.51519 12.5635 5.94154 13.2075C5.08122 13.5595 4.60815 14.2532 4.45183 15.1458C4.22212 16.3785 4.26007 17.647 4.56318 18.8648C5.15977 21.1971 5.72801 23.537 6.34077 25.8652C7.50606 30.292 8.65813 34.723 9.89345 39.1304C10.3025 40.5903 10.9559 41.9823 11.4834 43.4105C11.9825 44.762 12.9605 45.2712 14.3446 45.1033C14.5855 45.0741 14.8329 45.0824 15.069 45.0335C16.7931 44.6763 18.532 44.3736 20.2338 43.9296C22.9678 43.2162 36.5969 39.1456 40.6519 37.7653ZM42.3698 39.0368L37.8611 40.6352L38.8991 42.938L43.0557 41.4628L42.3698 39.0368ZM23.4596 47.409C23.1769 46.5807 22.936 45.8754 22.6666 45.0865L18.347 46.3067C18.6511 47.0814 18.9326 47.7983 19.2156 48.5194C19.4332 48.4983 19.6494 48.4656 19.8634 48.4215C21.0229 48.1001 22.1802 47.7704 23.4596 47.409Z" fill="black"/>
<path d="M32.2997 23.5307C32.3209 24.5526 32.4359 25.5009 32.3325 26.424C32.2324 27.3157 31.9074 28.1816 31.6674 29.1138C31.906 29.2614 32.1322 29.4283 32.3437 29.613C32.597 29.8284 32.801 30.096 32.9418 30.3976C33.0054 30.5626 33.02 30.7425 32.9839 30.9154C32.948 31.0882 32.8629 31.2468 32.7388 31.372C32.6149 31.4972 32.4573 31.5836 32.2853 31.6207C32.113 31.6579 31.9338 31.6442 31.7692 31.5813C31.2493 31.3914 30.8076 30.9869 30.3402 30.6852L26.3462 33.0716C26.3836 33.2037 26.4417 33.4312 26.5126 33.6549C26.5775 33.859 26.659 34.0559 26.727 34.2582C27.0573 35.2383 26.8392 35.9707 26.1494 36.2052C25.4432 36.4453 24.8042 35.9259 24.5216 34.8856C24.4103 34.4769 24.2914 34.0703 24.1504 33.5711C22.5372 33.7844 20.912 33.9526 19.2407 33.4115C18.9624 33.8826 18.7051 34.3571 18.4092 34.806C18.209 35.1437 17.9615 35.4508 17.6742 35.7178C17.5293 35.8578 17.3401 35.9423 17.1394 35.9571C16.9387 35.9719 16.7389 35.9159 16.5746 35.7988C16.4025 35.6945 16.2709 35.5347 16.2011 35.3455C16.1315 35.1565 16.1279 34.9492 16.1911 34.7581C16.2975 34.4116 16.4477 34.0803 16.638 33.7721C16.8626 33.4141 17.1516 33.097 17.4275 32.7427C16.8495 32.1622 16.2307 31.6331 15.7279 31.0097C15.2376 30.4015 14.8655 29.6965 14.4032 28.9745C13.9706 29.123 13.4976 29.3085 13.0105 29.4443C12.6594 29.5358 12.3009 29.5961 11.9391 29.6246C11.7714 29.6536 11.5989 29.6183 11.4558 29.5255C11.3126 29.4329 11.2094 29.2897 11.1664 29.1243C11.0982 28.9501 11.1012 28.7557 11.1749 28.5839C11.2486 28.4122 11.3871 28.2767 11.56 28.2069C12.1302 27.9241 12.7267 27.6946 13.3146 27.4485C13.5085 27.3672 13.7104 27.3046 14.0011 27.2001C13.8249 25.3707 13.967 23.5695 14.7844 21.8823C14.3601 21.6359 13.9734 21.4091 13.5846 21.1866C13.3204 21.0355 13.041 20.9081 12.7901 20.7381C12.2869 20.3974 12.1341 19.9915 12.3252 19.5871C12.511 19.1938 12.9724 19.0086 13.5088 19.2218C14.2384 19.5121 14.9382 19.8786 15.7365 20.2525C16.8303 18.6905 18.5222 17.8128 20.1391 16.6983C20.0611 16.323 19.9749 15.9445 19.9054 15.5628C19.8344 15.1735 19.7028 14.7727 19.744 14.3932C19.7746 14.1097 19.9834 13.7112 20.213 13.6219C20.4468 13.5308 20.8569 13.6843 21.0905 13.862C21.3106 14.0295 21.4225 14.3589 21.5446 14.6337C21.7282 15.0478 21.8791 15.4763 22.0663 15.9581C23.8897 15.4872 25.5942 15.7676 27.2438 16.5803C27.3836 16.3684 27.5061 16.1982 27.6121 16.0181C27.7354 15.8085 27.8392 15.5874 27.9603 15.3762C28.4627 14.4994 29.1139 14.1678 29.7004 14.4851C30.3238 14.822 30.3646 15.5606 29.7944 16.4946C29.5433 16.906 29.2644 17.3004 29.0548 17.6171C30.2064 18.6779 31.3251 19.6433 31.9759 21.9368C32.1191 21.8884 32.4172 21.7689 32.7256 21.6879C33.1601 21.565 33.6016 21.4685 34.0477 21.3986C34.2318 21.3696 34.4201 21.4115 34.5752 21.5158C34.7302 21.6199 34.8406 21.7789 34.8842 21.9608C34.9498 22.1363 34.948 22.3299 34.8792 22.5037C34.8106 22.6777 34.6798 22.8197 34.5124 22.902C34.1052 23.0953 33.681 23.2499 33.2451 23.3645C32.9334 23.4377 32.6178 23.4933 32.2997 23.5307ZM24.3048 31.6028C26.2864 30.9944 27.6521 30.3534 28.8337 29.3566C29.3334 28.9545 29.7351 28.4429 30.008 27.8613C30.2811 27.2795 30.4183 26.6427 30.4093 25.9992C30.4198 23.465 29.4253 21.3659 27.5379 19.723C26.4773 18.7994 23.7371 17.0739 19.8052 18.9914C19.5854 19.0869 19.3771 19.2071 19.1842 19.3496C16.5942 21.4739 15.5879 24.1899 16.2967 27.4823C16.8583 30.0899 18.919 31.7928 21.5761 31.8333C22.6589 31.8492 23.7441 31.6539 24.3053 31.6027L24.3048 31.6028Z" fill="black"/>
<path d="M41.9919 21.0955C42.4557 22.7376 42.9152 24.3809 43.3852 26.021C43.5969 26.7604 43.4828 27.1755 42.8249 27.5661C42.3852 27.8349 41.9135 28.0475 41.4211 28.1986C40.4112 28.4913 39.2759 27.8372 38.9193 26.74C38.6469 25.9016 38.466 25.0332 38.261 24.1735C37.7456 22.0104 37.2392 19.8449 36.7304 17.6803C36.6607 17.3839 36.6195 17.0787 36.5262 16.7902C36.2628 15.975 36.6688 15.3933 37.5736 15.0795C38.0307 14.921 38.5105 14.826 38.9821 14.7112C39.621 14.5554 39.8623 14.6425 40.1351 15.2655C40.4279 15.9348 40.6809 16.6209 40.8933 17.32C41.2748 18.5737 41.6132 19.841 41.9692 21.1015L41.9919 21.0955ZM40.9054 25.9162C41.5085 25.8333 41.4142 25.5475 41.3435 25.2776C40.5708 22.33 39.7959 19.3826 39.0193 16.4359C38.9664 16.2932 38.9005 16.1558 38.8223 16.0253L38.0083 16.2552C38.9838 19.508 39.9419 22.7029 40.9057 25.917L40.9054 25.9162Z" fill="black"/>
<path d="M18.8269 26.2409C18.6405 25.5463 18.6213 24.8173 18.7709 24.1145C18.9206 23.4116 19.2347 22.7549 19.6875 22.1985C19.9971 21.8283 20.399 21.5472 20.8524 21.3837C21.513 21.1574 22.1952 21.0009 22.8883 20.9169C25.3479 20.5754 27.2224 22.6614 26.6314 25.086C26.1639 27.0054 24.7463 27.9144 22.9699 28.3694C22.1998 28.5733 21.3857 28.5391 20.6341 28.2717C19.6639 27.9256 19.0924 27.2238 18.8269 26.2409ZM22.6247 26.5317C23.2456 26.3769 23.8 26.0253 24.2057 25.5291C24.9285 24.5317 24.4118 23.269 23.1945 23.1851C22.5092 23.1377 21.8105 23.2646 21.12 23.3349C20.9664 23.3441 20.8214 23.4089 20.7121 23.5174C20.6027 23.6259 20.5364 23.7706 20.5255 23.9247C20.4718 24.1922 20.4315 24.4622 20.4049 24.7338C20.3285 26.2801 21.1444 26.9367 22.6244 26.5308L22.6247 26.5317Z" fill="black"/>
</g>
<defs>
<clipPath id="clip0_340_142">
<rect width="42.8053" height="42.8053" fill="white" transform="translate(0 11.6353) rotate(-15.7726)"/>
</clipPath>
</defs>
</svg>
