<svg width="53" height="50" viewBox="0 0 53 50" fill="none" xmlns="http://www.w3.org/2000/svg">
<g clip-path="url(#clip0_340_150)">
<path d="M36.5471 13.5357L36.5314 13.5413C36.331 13.6147 36.1312 13.6899 35.9317 13.7653L35.9058 13.7745C35.6571 13.8682 35.4087 13.9619 35.1576 14.0516L35.0852 14.0775C32.6088 14.9751 30.192 16.029 27.8497 17.2328C27.6604 17.3288 27.0845 17.6205 27.2888 18.2773C27.4343 18.7436 27.8699 18.9536 28.4262 18.8257C28.7007 18.7579 28.9694 18.6684 29.2297 18.5578C30.2298 18.152 31.2294 17.7446 32.2284 17.3358L32.495 17.2269C33.1835 16.9457 33.8721 16.6649 34.5611 16.3846C34.6091 16.3649 34.6585 16.3459 34.7091 16.3271L28.7153 25.5742L26.6688 24.7228C25.2025 24.1115 23.6864 23.4795 22.1906 22.8679C21.2906 22.5001 20.6934 22.6881 20.2544 23.478L19.9889 23.9554C18.9793 25.7715 17.9354 27.6495 16.9282 29.5065C15.8185 31.5508 14.7364 33.6064 13.9174 35.1687C13.7355 35.5222 13.5961 35.8955 13.5019 36.2809C13.4513 36.4744 13.4735 36.6791 13.5645 36.8567C13.6555 37.0342 13.809 37.1722 13.996 37.2445C14.1963 37.3412 14.4276 37.3551 14.6392 37.283C14.7739 37.2333 14.8945 37.1518 14.9906 37.0456L15.0702 36.9606C15.214 36.8193 15.3415 36.6626 15.4502 36.4931L15.7032 36.0683C16.2769 35.1039 16.8697 34.1062 17.4243 33.1079C18.4921 31.1861 19.5703 29.2218 20.6122 27.3221L20.6304 27.2887C21.0331 26.5544 21.4368 25.819 21.8417 25.0823L21.9336 25.1099C22.0488 25.1418 22.1623 25.1796 22.2734 25.2232L23.5398 25.7578C25.1617 26.4421 26.8389 27.1498 28.481 27.86C29.3783 28.2485 29.9056 28.1079 30.4263 27.3447C30.5099 27.2222 30.5872 27.0956 30.6664 26.9659L30.6839 26.9373C30.7304 26.8615 30.7765 26.7858 30.8247 26.7109C32.6149 23.9307 34.4063 21.1512 36.1987 18.3721C36.2941 18.2245 36.3973 18.0793 36.5061 17.9277C36.5706 18.6489 36.6342 19.3702 36.6971 20.0919L36.7179 20.3296C36.7858 21.1061 36.8544 21.8822 36.9238 22.6581L36.9315 22.7465C36.941 22.9805 36.9824 23.2121 37.0546 23.4347C37.1455 23.6721 37.3105 23.8743 37.5255 24.0116C37.7405 24.1491 37.9944 24.2144 38.2503 24.1984C38.506 24.1824 38.7506 24.0859 38.9482 23.9226C39.1458 23.7594 39.2863 23.5382 39.3491 23.2909C39.4117 23.0261 39.4263 22.7525 39.3925 22.483C39.0928 20.163 38.7338 17.4088 38.3442 14.5719C38.2803 14.1042 38.0801 13.7581 37.7652 13.5709C37.4412 13.3789 37.0201 13.3666 36.5471 13.5357Z" fill="black"/>
<path d="M47.0689 21.5693C45.7645 18.3528 44.6057 15.5506 43.5266 13.0034C42.7865 11.2563 41.8014 8.96151 40.7424 6.7033C39.1985 3.40764 35.548 1.92774 31.865 3.10402C29.1388 3.97451 26.3845 4.91543 23.7197 5.82575C22.96 6.08545 22.1947 6.36614 21.4543 6.63777C20.2397 7.08342 18.9836 7.54441 17.7278 7.91993C14.8754 8.77457 11.9503 9.95771 8.24651 11.7573C5.83721 12.9282 4.21139 14.3332 3.12928 16.1796C2.23736 17.7013 2.05891 19.1603 2.58415 20.6401C2.75317 21.1166 2.91596 21.6025 3.06781 22.0846C3.2017 22.509 3.32551 22.9474 3.44565 23.3711C3.68301 24.2852 3.97971 25.1827 4.33391 26.0581C4.48999 26.42 4.64656 26.7818 4.80362 27.1435C6.03178 29.977 7.30175 32.9066 8.15911 35.9396C8.5127 37.1906 8.9805 38.4282 9.43237 39.6241L9.53234 39.889C10.3075 41.942 11.2613 43.6494 12.4485 45.108C13.7292 46.6819 15.3573 47.3356 17.2875 47.0504C18.4846 46.882 19.6669 46.6198 20.8233 46.2659C22.9711 45.595 25.1416 44.8731 27.2408 44.175C28.0942 43.8913 28.9479 43.6084 29.8019 43.3261L29.8049 43.3251C29.8332 43.3146 29.8574 43.2956 29.8743 43.2707L30.545 43.031C31.1041 42.8312 31.6639 42.6312 32.2241 42.431L33.113 42.115C36.6227 40.8689 40.2507 39.5804 43.5943 37.7653C44.7602 37.1322 46.1065 36.3491 47.2527 35.3391C49.5521 33.3129 50.2949 30.8262 49.4606 27.9483C48.924 26.0986 48.1899 24.3062 47.4791 22.5732C47.3421 22.2388 47.2053 21.9042 47.0689 21.5693ZM9.58457 32.7378C8.86505 30.8634 8.04249 28.8648 6.99576 26.4485C6.16931 24.5404 5.17067 21.9922 4.77962 19.1875C4.77946 19.1474 4.77129 19.1077 4.75564 19.0708C4.10554 17.6491 4.95728 16.697 5.85799 15.6894L5.88938 15.6545C6.76306 14.6767 7.89087 14.0423 8.97114 13.4761C11.4393 12.2135 13.9929 11.1244 16.6131 10.2171C17.701 9.82833 18.7803 9.46271 19.8405 9.10869C21.7681 8.46478 23.7229 7.7955 25.613 7.14844C27.2626 6.58344 28.968 5.99973 30.6489 5.43482C31.4259 5.16772 32.2214 4.95734 33.0288 4.80539C35.9371 4.27763 38.0888 5.50494 39.2508 8.35497C40.2045 10.6945 41.1642 13.0769 42.0925 15.3817C42.7896 17.1119 43.4878 18.8417 44.1874 20.5708C44.44 21.1942 44.7063 21.824 44.9636 22.4327C45.3677 23.3888 45.7855 24.3773 46.1602 25.3619C46.6038 26.5277 46.9672 27.7515 47.302 28.905C47.7893 30.5869 47.2411 32.1013 45.6728 33.4056C44.7054 34.1852 43.66 34.8635 42.5532 35.43C38.8494 37.405 34.8268 38.8134 30.9375 40.1758L30.4234 40.3558C30.2219 40.4264 30.0209 40.4987 29.8199 40.5715L29.5334 40.6738C29.508 40.6829 29.4852 40.6977 29.4666 40.7171C29.4481 40.7364 29.4342 40.7598 29.4265 40.7853C28.5682 41.0677 27.7103 41.3508 26.8525 41.6346C24.3476 42.4614 21.7577 43.3163 19.204 44.1362C18.5398 44.3297 17.8618 44.472 17.1761 44.5615L17.0518 44.5811C15.9123 44.7594 14.965 44.3615 14.2359 43.3967C13.1113 41.8834 12.2214 40.2103 11.5957 38.433C11.2999 37.6231 11.0168 36.794 10.7425 35.9911C10.3753 34.9203 9.99722 33.813 9.58457 32.7378Z" fill="black"/>
</g>
<defs>
<clipPath id="clip0_340_150">
<rect width="41.9824" height="37.6394" fill="white" transform="translate(0 14.1272) rotate(-19.6639)"/>
</clipPath>
</defs>
</svg>
