<svg width="75" height="62" viewBox="0 0 75 62" fill="none" xmlns="http://www.w3.org/2000/svg">
<path d="M37.1183 6.96503C37.1183 6.96503 36.5015 18.808 39.5557 25.1323C42.6099 31.4566 51.9483 37.6734 51.9483 37.6734C51.9483 37.6734 40.7318 37.4586 34.6175 40.914C28.5032 44.3695 22.2595 54.4517 22.2595 54.4517C22.2595 54.4517 22.8763 42.6088 19.8221 36.2845C16.7679 29.9602 7.42952 23.7433 7.42952 23.7433C7.42952 23.7433 18.646 23.9582 24.7603 20.5028C30.8746 17.0473 37.1183 6.96503 37.1183 6.96503Z" fill="#FBCD29"/>
<path d="M54.4866 5.50677C54.4866 5.50677 58.0315 10.1017 61.1812 11.4772C64.3309 12.8528 69.7802 12.1858 69.7802 12.1858C69.7802 12.1858 65.546 15.6803 64.3764 18.9121C63.2067 22.1439 64.1008 27.8781 64.1008 27.8781C64.1008 27.8781 60.5558 23.2831 57.4061 21.9076C54.2565 20.5321 48.8071 21.1991 48.8071 21.1991C48.8071 21.1991 53.0413 17.7045 54.211 14.4727C55.3806 11.2409 54.4866 5.50677 54.4866 5.50677Z" fill="#FBCD29"/>
</svg>
