<svg width="36" height="37" viewBox="0 0 36 37" fill="none" xmlns="http://www.w3.org/2000/svg">
<path d="M34.5789 8.56432C33.4157 9.07957 32.1647 9.42307 30.8447 9.58582C32.1864 8.78932 33.2192 7.51882 33.7037 6.01732C32.4482 6.75307 31.0569 7.29382 29.5772 7.57882C28.3952 6.32632 26.7092 5.54932 24.8417 5.54932C21.2544 5.54932 18.3459 8.43157 18.3459 11.9858C18.3459 12.4891 18.4052 12.9788 18.5154 13.4543C13.1184 13.1836 8.33117 10.6178 5.12867 6.72382C4.56617 7.67557 4.24967 8.78932 4.24967 9.96532C4.24967 12.1996 5.39342 14.1668 7.13792 15.3256C6.07292 15.2933 5.07092 14.9971 4.19342 14.5216C4.19342 14.5411 4.19342 14.5696 4.19342 14.5973C4.19342 17.7196 6.43292 20.3198 9.40142 20.9116C8.85917 21.0601 8.28542 21.1426 7.69442 21.1426C7.27517 21.1426 6.86642 21.0953 6.47042 21.0241C7.29692 23.5756 9.69467 25.4408 12.5357 25.4963C10.3127 27.2198 7.51292 28.2518 4.46867 28.2518C3.94292 28.2518 3.42842 28.2218 2.91992 28.1603C5.79767 29.9821 9.21242 31.0493 12.8784 31.0493C24.8237 31.0493 31.3592 21.2401 31.3592 12.7298C31.3592 12.4508 31.3502 12.1733 31.3374 11.8988C32.6124 10.9981 33.7112 9.86257 34.5789 8.56432Z" fill="url(#paint0_linear_246_598)"/>
<defs>
<linearGradient id="paint0_linear_246_598" x1="7.75592" y1="6.53332" x2="30.5987" y2="29.3761" gradientUnits="userSpaceOnUse">
<stop stop-color="#2AA4F4"/>
<stop offset="1" stop-color="#007AD9"/>
</linearGradient>
</defs>
</svg>
