<svg width="56" height="50" viewBox="0 0 56 50" fill="none" xmlns="http://www.w3.org/2000/svg">
<g clip-path="url(#clip0_340_147)">
<path d="M20.8522 39.9119C16.5966 37.5875 13.2494 35.8134 9.95836 33.941C8.06982 32.8668 6.24782 31.669 4.446 30.4526C3.78547 29.9695 3.19053 29.4023 2.67602 28.7653C1.86599 27.8306 1.72521 26.7275 2.134 25.563C2.27431 25.1427 2.44846 24.7344 2.65466 24.3421C4.15729 21.591 5.66856 18.8446 7.18845 16.1027C8.49173 13.7479 9.80137 11.3969 11.1174 9.04991C11.8601 7.72867 12.5946 6.40062 13.3961 5.11528C14.4816 3.37441 16.0165 2.49536 18.1147 2.89367C18.7072 2.97953 19.2894 3.12516 19.8524 3.32835C21.9783 4.20801 24.1267 5.05001 26.1891 6.06356C31.5134 8.68001 36.8137 11.345 42.0901 14.0586C44.7718 15.4015 47.3488 16.9437 49.7999 18.6725C50.5652 19.2267 51.2954 19.8278 51.9865 20.4724C52.419 20.8483 52.7382 21.3378 52.9083 21.8858C53.0785 22.434 53.093 23.0192 52.95 23.576C52.8309 24.1962 52.6422 24.801 52.3874 25.3791C50.9271 28.401 49.4643 31.4229 47.9317 34.4085C46.1952 37.7908 44.2858 41.0779 41.8702 44.0299C41.0743 45.0017 40.1231 45.8475 39.226 46.7339C38.6561 47.2971 37.9368 47.344 37.1914 47.2436C35.7367 47.0473 34.3768 46.5394 33.0643 45.9186C28.6428 43.8281 24.1912 41.7973 20.8522 39.9119ZM43.0601 37.8072C42.9536 37.7216 42.8414 37.6435 42.7245 37.5729C40.6845 36.6468 38.6077 35.7934 36.6119 34.7808C34.5885 33.7542 32.6068 32.6347 30.68 31.4381C29.048 30.4248 28.6819 29.2317 29.13 27.3665C29.4854 25.8888 30.2258 24.5949 31.1174 23.4025C32.2668 21.8651 33.317 21.5509 35.1866 22.1104C37.4614 22.7696 39.6633 23.6572 41.7591 24.7598C43.5949 25.745 45.428 26.7352 47.2659 27.7164C47.5579 27.8722 47.8695 27.9914 48.281 28.1764C48.983 26.6083 49.6581 25.1469 50.2909 23.6677C50.5659 23.0239 50.451 22.4441 49.8313 22.0044C48.6242 21.1478 47.4991 20.1533 46.2228 19.4203C42.94 17.5343 39.6233 15.7018 36.2639 13.956C32.3706 11.9333 28.4231 10.0145 24.4877 8.074C23.3017 7.48914 22.0884 6.95577 20.8673 6.44777C19.9664 6.07294 19.0381 5.76013 18.1117 5.45088C16.7652 5.00168 15.6769 5.53235 14.839 6.53296C14.1933 7.31332 13.6312 8.15934 13.1618 9.05708C10.3057 14.4627 7.48629 19.8877 4.65563 25.3068C4.55321 25.5039 4.45079 25.701 4.3655 25.9052C4.09983 26.5466 4.12332 27.1379 4.6761 27.6339C4.98051 27.9071 5.25393 28.2198 5.58033 28.4622C7.66229 30.0095 9.90545 31.2953 12.1775 32.5383C19.5169 36.5537 26.8317 40.6155 34.5221 43.9445C35.5082 44.3715 36.4983 44.7476 37.5348 44.7962C39.838 42.7938 41.5301 40.4099 43.0601 37.8072ZM47.2676 29.9677C44.6429 28.6912 42.1166 27.3989 39.5331 26.2296C37.9005 25.4909 36.1951 24.9044 34.5005 24.3132C33.6414 24.0129 33.3401 24.1164 32.8991 24.8524C32.3095 25.8254 31.7835 26.8355 31.3242 27.8764C30.9196 28.8061 31.0584 29.0881 31.8921 29.7248C32.1925 29.9541 32.5036 30.1707 32.8202 30.3772C35.4741 32.1108 38.379 33.3549 41.2295 34.7046C42.1884 35.1582 43.1769 35.5495 44.1226 35.9574C44.974 34.9656 46.9965 31.0788 47.2673 29.9675L47.2676 29.9677Z" fill="black"/>
<path d="M36.8986 26.497C38.0855 26.8425 38.2444 28.1877 37.7794 29.0712C37.2524 30.0723 36.146 30.4273 35.1154 29.9177C34.03 29.3809 33.5153 28.0685 34.0276 27.1434C34.5656 26.171 35.757 25.9031 36.8986 26.497Z" fill="black"/>
</g>
<defs>
<clipPath id="clip0_340_147">
<rect width="45.0086" height="32.9527" fill="white" transform="translate(15.1924) rotate(27.4542)"/>
</clipPath>
</defs>
</svg>
