<svg width="109" height="109" viewBox="0 0 109 109" fill="none" xmlns="http://www.w3.org/2000/svg">
<rect width="109" height="109" rx="54.5" fill="white"/>
<path d="M42.2456 51.7439C45.5256 58.19 50.81 63.4744 57.2561 66.7544L62.2672 61.7433C62.905 61.1056 63.7933 60.9233 64.5906 61.1739C67.1417 62.0167 69.875 62.4722 72.7222 62.4722C73.3263 62.4722 73.9057 62.7122 74.3329 63.1394C74.76 63.5665 75 64.1459 75 64.75V72.7222C75 73.3263 74.76 73.9057 74.3329 74.3329C73.9057 74.76 73.3263 75 72.7222 75C62.4524 75 52.6033 70.9203 45.3415 63.6585C38.0797 56.3967 34 46.5475 34 36.2778C34 35.6737 34.24 35.0943 34.6671 34.6671C35.0943 34.24 35.6737 34 36.2778 34H44.25C44.8541 34 45.4335 34.24 45.8606 34.6671C46.2878 35.0943 46.5278 35.6737 46.5278 36.2778C46.5278 39.125 46.9833 41.8583 47.8261 44.4094C48.0767 45.2067 47.8944 46.095 47.2567 46.7328L42.2456 51.7439Z" fill="#0D64E5"/>
</svg>
