<svg width="154" height="182" viewBox="0 0 154 182" fill="none" xmlns="http://www.w3.org/2000/svg">
<g clip-path="url(#clip0_1272_432)">
<path d="M17.8704 137.936C16.4412 137.098 15.9622 135.26 16.8004 133.831L30.4603 110.541C31.2985 109.112 33.1366 108.633 34.5658 109.471C35.9949 110.309 36.474 112.148 35.6358 113.577L23.4937 134.279L44.1956 146.421C45.6247 147.259 46.1038 149.097 45.2656 150.526C44.4273 151.955 42.5892 152.434 41.1601 151.596L17.8704 137.936ZM144.212 -32.2739C150.202 2.15244 146.227 29.9627 136.562 52.342C126.905 74.7011 111.651 91.451 95.3572 103.91C62.8443 128.772 25.8933 136.753 20.1447 138.252L18.6316 132.446C24.5124 130.913 60.2977 123.166 91.7126 99.1438C107.383 87.161 121.89 71.1804 131.054 49.963C140.209 28.7658 144.112 2.15374 138.301 -31.2453L144.212 -32.2739Z" fill="white"/>
<path d="M27.524 34.5393C26.5881 33.1721 26.9378 31.3051 28.305 30.3692L50.585 15.1179C51.9522 14.182 53.8193 14.5317 54.7552 15.8989C55.6911 17.2661 55.3414 19.1332 53.9742 20.069L34.1697 33.6257L47.7264 53.4302C48.6623 54.7974 48.3126 56.6644 46.9454 57.6003C45.5782 58.5362 43.7112 58.1866 42.7753 56.8193L27.524 34.5393ZM140.702 -25.3429C135.152 -5.11668 125.859 9.04041 114.803 18.7967C103.763 28.5385 91.1193 33.7577 79.0516 36.3645C55.0071 41.5583 32.8895 36.4381 29.4474 35.7935L30.5518 29.896C34.1283 30.5658 55.0913 35.4018 77.7848 30.4997C89.0861 28.0585 100.726 23.2168 110.833 14.2979C120.924 5.39346 129.642 -7.70991 134.916 -26.9306L140.702 -25.3429Z" fill="white" fill-opacity="0.5"/>
</g>
<defs>
<clipPath id="clip0_1272_432">
<rect width="181.078" height="154" fill="white" transform="matrix(0 1 1 0 0 0)"/>
</clipPath>
</defs>
</svg>
