<svg width="181" height="157" viewBox="0 0 181 157" fill="none" xmlns="http://www.w3.org/2000/svg">
<path d="M151.465 65.4317C151.465 65.4317 131.292 78.1657 124.448 90.5247C117.603 102.884 118.23 125.442 118.23 125.442C118.23 125.442 105.563 106.765 92.7882 100.732C80.0138 94.6977 56.2024 96.1438 56.2024 96.1438C56.2024 96.1438 76.3747 83.4098 83.2193 71.0508C90.0639 58.6918 89.4372 36.1335 89.4372 36.1335C89.4372 36.1335 102.104 54.81 114.879 60.8439C127.653 66.8778 151.465 65.4317 151.465 65.4317Z" fill="#FBCD29"/>
<path d="M60.0168 55.1226C60.0168 55.1226 50.9249 51.1358 45.0687 51.6566C39.2124 52.1774 31.5812 57.6512 31.5812 57.6512C31.5812 57.6512 35.0678 48.931 34.1707 43.1205C33.2735 37.31 27.2251 29.4376 27.2251 29.4376C27.2251 29.4376 36.317 33.4244 42.1733 32.9036C48.0295 32.3828 55.6608 26.909 55.6608 26.909C55.6608 26.909 52.1742 35.6292 53.0713 41.4397C53.9684 47.2502 60.0168 55.1226 60.0168 55.1226Z" fill="#FBCD29"/>
</svg>
