<svg width="107" height="132" viewBox="0 0 107 132" fill="none" xmlns="http://www.w3.org/2000/svg">
<path d="M33.884 18.1878C33.884 18.1878 47.1241 32.5767 58.0978 36.2745C69.0716 39.9723 87.1683 36.143 87.1683 36.143C87.1683 36.143 73.9757 49.1087 70.9928 60.298C68.0099 71.4873 72.6846 90.4737 72.6846 90.4737C72.6846 90.4737 59.4445 76.0849 48.4708 72.387C37.497 68.6892 19.4003 72.5185 19.4003 72.5185C19.4003 72.5185 32.5929 59.5528 35.5758 48.3635C38.5587 37.1743 33.884 18.1878 33.884 18.1878Z" fill="#FBCD29"/>
<path d="M39.0469 93.443C39.0469 93.443 37.1721 101.361 38.4549 106.007C39.7377 110.652 45.2758 115.999 45.2758 115.999C45.2758 115.999 37.7308 114.472 33.1779 116.052C28.625 117.631 23.1687 123.668 23.1687 123.668C23.1687 123.668 25.0435 115.75 23.7607 111.105C22.4779 106.459 16.9398 101.113 16.9398 101.113C16.9398 101.113 24.4848 102.639 29.0377 101.06C33.5906 99.48 39.0469 93.443 39.0469 93.443Z" fill="#FBCD29"/>
</svg>
