<svg width="1536" height="564" viewBox="0 0 1536 564" fill="none" xmlns="http://www.w3.org/2000/svg">
<g clip-path="url(#clip0_601_31912)">
<path d="M777.115 327.608L659.961 352.726L660.704 524.032L777.115 501.015V327.608Z" fill="#570DB4"/>
<path d="M907.333 368.435L777.055 327.581V502.069L907.333 533.39V368.435Z" fill="#7128CE"/>
<circle cx="791.934" cy="360.863" r="48.1172" fill="#EDAB00"/>
<circle cx="786.701" cy="360.863" r="48.1172" fill="#FDE300"/>
<path d="M763.169 376.191C757.164 370.636 759.541 355.61 761.48 348.791C763.732 342.936 781.686 339.846 790.381 339.033L785.877 342.598C797.887 347.253 795.01 364.806 792.07 373L782.123 381.07V385.011C778.308 384.386 769.174 381.746 763.169 376.191Z" fill="#CD2026"/>
<path d="M792.683 348.789L761.277 349.496L760.644 352.121L760.152 354.772C771.397 355.481 794.606 355.928 794.336 354.245C794.022 352.281 793.512 350.514 792.683 348.789Z" fill="#414141"/>
<path d="M803.684 343.42L790.209 351.254L791.306 352.821L803.684 347.18L815.435 349.844C816.427 349.165 819.164 347.682 822.172 347.18C825.18 346.679 824.679 341.54 824.052 339.033L815.435 345.613L803.684 343.42Z" fill="#414141"/>
<path d="M803.43 348.437C802.904 348.32 794.971 350.778 791.07 352.021V353.411C794.776 353.118 802.377 352.533 803.138 352.533C804.088 352.533 814.766 356.921 815.79 357.067C816.609 357.184 818.082 353.752 818.715 352.021C818.082 352.021 816.404 352.123 814.766 352.533C812.718 353.045 804.088 348.584 803.43 348.437Z" fill="#414141"/>
<path d="M659.994 352.658L805.175 391.372V563.892L660.693 523.985L659.994 352.658Z" fill="#8A49DD"/>
<path d="M805.041 564V391.042L907.315 368.397L907.13 533.5L805.041 564Z" fill="#570DB4"/>
<path d="M761.513 448.605L805.064 391.44L660.047 352.67L611.812 405.431L761.513 448.605Z" fill="#A26AE9"/>
<path d="M841.267 445.344L805.041 391.093L907.335 368.397L946.279 419.057L841.267 445.344Z" fill="#8A49DD"/>
<path d="M745.128 487.37C744.45 486.518 743.793 485.665 743.125 484.813C740.24 481.137 740.435 475.972 743.505 473.302C744.183 472.716 744.871 472.121 745.539 471.535C746.114 471.042 746.566 470.406 746.884 469.666C747.192 468.937 747.356 468.116 747.367 467.263C747.377 466.873 747.346 466.462 747.284 466.072C747.141 465.168 746.833 464.46 746.36 463.649C745.898 462.868 745.303 461.944 744.738 461.246C744.327 460.712 743.906 460.157 743.485 459.613C741.986 457.908 738.463 456.142 736.297 458.062C735.516 458.699 734.715 459.346 733.914 459.993C730.31 463.033 726.028 462.221 723.193 458.35C722.659 457.477 722.125 456.604 721.581 455.741C721.088 455.012 720.482 454.396 719.784 453.934C719.096 453.462 718.336 453.164 717.556 453.051C716.765 452.938 715.974 453.01 715.214 453.277C714.444 453.534 713.643 453.985 713.068 454.407C712.236 455.197 711.384 455.978 710.511 456.758C707.872 459.664 707.492 463.166 709.433 465.733C710.121 466.657 710.809 467.582 711.507 468.506C714.341 472.008 714.085 477.173 710.778 479.925C709.895 480.685 708.991 481.435 708.108 482.174C705.767 484.064 705.91 487.627 707.923 489.937C708.847 490.954 709.751 491.981 710.665 493.008C712.596 494.887 716.529 496.222 718.747 494.404C719.568 493.675 720.39 492.946 721.222 492.207C724.354 489.681 728.585 490.071 732.189 494.435C732.99 495.38 733.781 496.314 734.551 497.259C736.615 499.939 740.723 499.755 742.283 498.43C743.064 497.742 743.834 497.064 744.604 496.397C746.134 495.144 747.469 490.307 745.128 487.37ZM741.883 492.135C741.636 492.638 741.298 493.069 740.907 493.439C740.907 493.449 740.897 493.449 740.887 493.46C740.681 493.665 740.445 493.85 740.199 494.004C739.737 494.312 739.223 494.538 738.679 494.651C737.2 494.98 736.399 495 735.259 494.538C733.883 493.983 732.713 492.915 731.645 491.786C728.903 488.592 725.052 487.76 721.797 489.763C721.663 489.835 721.53 489.917 721.386 490.009C720.205 490.749 718.921 491.468 717.453 491.355C716.498 491.272 715.779 490.964 715.214 490.687C714.619 490.389 714.044 489.989 713.551 489.547C713.119 489.178 712.739 488.756 712.421 488.305C712.37 488.212 712.308 488.12 712.246 488.027C711.887 487.524 711.579 486.99 711.394 486.405C711.014 485.265 710.891 484.248 711.127 483.211C711.466 481.794 712.555 480.716 713.602 479.689C716.262 476.937 716.477 472.901 714.095 469.348C713.15 468.116 712.267 466.812 712.103 465.24C711.969 463.762 712.349 462.57 713.027 461.266C713.304 460.732 713.664 460.27 714.064 459.829C714.074 459.818 714.085 459.818 714.085 459.808C714.454 459.387 714.875 459.028 715.317 458.74C715.789 458.422 716.282 458.155 716.806 458.011C718.028 457.662 718.993 457.652 720.349 458.329C721.622 458.987 722.67 460.126 723.635 461.297C725.812 463.977 729.498 464.973 733.134 462.704C733.257 462.622 733.36 462.54 733.473 462.457C734.428 461.728 735.496 461.174 736.666 461.112C738.022 461.061 738.936 461.389 740.014 462.036C740.507 462.344 740.959 462.745 741.369 463.197C741.636 463.495 741.873 463.813 742.099 464.142C742.427 464.634 742.704 465.158 742.889 465.713C743.567 467.705 743.69 469.389 742.766 471.361C742.376 472.182 741.76 472.85 741.092 473.435C738.279 475.52 738.124 480.5 740.712 483.827C741.534 484.854 742.314 485.984 742.592 487.257C743.002 488.993 742.684 490.482 741.883 492.135Z" fill="#A26AE9"/>
<circle cx="926.068" cy="113.206" r="89.209" fill="#A26AE9"/>
<circle cx="801.234" cy="170.717" r="12" fill="#A26AE9"/>
<path d="M641.998 278.511C642.814 314.42 711.195 317.31 738.399 317.65C695.043 312.55 672.6 275.451 669.029 272.39C665.459 269.33 641.998 256.068 641.998 278.511Z" fill="#F7E81A"/>
<path d="M853.129 338.832C854.818 337.819 871.425 325.322 879.517 319.2C900.627 295.05 882.103 271.876 870.703 263.08C875.642 263.08 885.807 265.158 890.705 267.691C899.205 272.088 906.614 282.254 909.427 289.01C915.53 303.664 912.837 315.699 902.104 325.322C887.412 338.494 863.332 339.817 853.129 338.832Z" fill="#F4767B"/>
<path d="M885.286 304.156C871.531 301.931 859.496 310.815 855.198 315.534L824.855 282.158C841.796 264.206 864.047 263.953 868.345 263.195C872.644 262.436 890.849 264.965 895.906 282.158C899.951 295.913 886.129 312.837 878.712 319.58C882.758 314.86 889.736 305.168 885.286 304.156Z" fill="#F7E81A"/>
<path d="M701.093 87.175C564.322 187.668 609.104 222.958 607.556 233.339C595.403 231.332 582.662 196.909 594.708 146.138C614.224 63.8786 658.897 35.3488 674.158 27.4C689.419 19.4512 713.311 21.3716 721.469 35.4864C729.627 49.6013 717.74 76.4152 701.093 87.175Z" fill="#F4767B"/>
<ellipse cx="627.693" cy="281.675" rx="8.0746" ry="2.99919" transform="rotate(64.017 627.693 281.675)" fill="#FFB800"/>
<ellipse rx="12.0909" ry="4.23314" transform="matrix(-0.96561 0.259994 0.259994 0.96561 753.912 15.5588)" fill="#FFF0F1"/>
<circle cx="576.555" cy="187.171" r="8.66568" transform="rotate(-16.5319 576.555 187.171)" fill="#EBEBEB"/>
<circle cx="557.019" cy="197.489" r="4.33284" transform="rotate(-16.5319 557.019 197.489)" fill="#EBEBEB"/>
<path d="M573.297 223.598L585.19 220.068L574.371 207.398L573.297 223.598Z" fill="#EBEBEB"/>
<circle cx="961.151" cy="366.077" r="4.21384" fill="#7CE391"/>
<circle cx="1188.32" cy="318.049" r="8" fill="#DD3B41"/>
<path d="M1052.82 29.9906L1066.39 39.4522L1035.16 55.0652L1052.82 29.9906Z" fill="#FF842B"/>
<circle cx="39.8913" cy="526.635" r="14.9011" fill="#FFB1B4"/>
<path d="M83.4629 456.336C83.4629 423.559 110.034 396.989 142.81 396.989C175.587 396.989 202.157 423.559 202.157 456.336V564.435H83.4629V456.336Z" fill="#EBEBEB"/>
<circle cx="125.087" cy="273.85" r="69.495" fill="#FFB1B4"/>
<circle r="7.33344" transform="matrix(1 0 0 -1 27.6811 183.311)" fill="#FFB1B4"/>
<path d="M45.881 564.435V287.805C45.881 263.763 26.3907 244.272 2.34826 244.272H0.208984" stroke="#A7A7A7" stroke-linecap="round"/>
<path d="M61.6829 566.435V287.244C61.6829 254.271 34.9534 227.542 1.98081 227.542H-1" stroke="#A7A7A7" stroke-linecap="round"/>
<path d="M77.4882 565.435V289.773C77.4882 246.425 42.3478 211.285 -1 211.285V211.285" stroke="#A7A7A7" stroke-linecap="round"/>
<path d="M93.2935 566.434V289.996C93.2935 237.919 51.0768 195.702 -1 195.702V195.702" stroke="#A7A7A7" stroke-linecap="round"/>
<path d="M109.099 565.434V289.772C109.099 228.967 59.8058 179.674 -1 179.674V179.674" stroke="#A7A7A7" stroke-linecap="round"/>
<path d="M1301.09 46.2026C1280.6 46.2026 1263.99 29.59 1263.99 9.09729C1263.99 -11.3954 1280.6 -28.0081 1301.09 -28.0081L1535.69 -28.0081V46.2026L1301.09 46.2026Z" fill="#EBEBEB"/>
<circle cx="1464.72" cy="111.881" r="20.3242" fill="#FFD7D8"/>
<path d="M1470.39 -3.05371V74.9194C1470.39 106.558 1444.74 132.205 1413.1 132.205V132.205C1381.47 132.205 1355.82 106.558 1355.82 74.9193V-3.05371" stroke="#A7A7A7" stroke-linecap="round"/>
<path d="M1461.37 -3.05371V76.5106C1461.37 103.169 1439.76 124.78 1413.1 124.78V124.78C1386.45 124.78 1364.84 103.169 1364.84 76.5106V-3.05371" stroke="#A7A7A7" stroke-linecap="round"/>
<path d="M1453.42 -3.05371V75.4497C1453.42 97.7137 1435.37 115.762 1413.1 115.762V115.762C1390.84 115.762 1372.79 97.7137 1372.79 75.4497V-3.05371" stroke="#A7A7A7" stroke-linecap="round"/>
<path d="M1444.4 -3.05371V77.5713C1444.4 94.8553 1430.39 108.867 1413.1 108.867V108.867C1395.82 108.867 1381.81 94.8553 1381.81 77.5713V-3.05371" stroke="#A7A7A7" stroke-linecap="round"/>
<path d="M1535.69 60.5131H1242.61C1211.68 60.5131 1186.61 35.4411 1186.61 4.51315V-2.37305" stroke="#A7A7A7" stroke-linecap="round"/>
<circle cx="90.5918" cy="-1.75488" r="3" fill="#D7D7D7"/>
<circle cx="120.592" cy="-1.75488" r="3" fill="#D7D7D7"/>
<circle cx="150.592" cy="-1.75488" r="3" fill="#D7D7D7"/>
<circle cx="180.592" cy="-1.75488" r="3" fill="#D7D7D7"/>
<circle cx="210.592" cy="-1.75488" r="3" fill="#D7D7D7"/>
<circle cx="240.592" cy="-1.75488" r="3" fill="#D7D7D7"/>
<circle cx="270.592" cy="-1.75488" r="3" fill="#D7D7D7"/>
<circle cx="90.5918" cy="28.2451" r="3" fill="#D7D7D7"/>
<circle cx="120.592" cy="28.2451" r="3" fill="#D7D7D7"/>
<circle cx="150.592" cy="28.2451" r="3" fill="#D7D7D7"/>
<circle cx="180.592" cy="28.2451" r="3" fill="#D7D7D7"/>
<circle cx="210.592" cy="28.2451" r="3" fill="#D7D7D7"/>
<circle cx="240.592" cy="28.2451" r="3" fill="#D7D7D7"/>
<circle cx="270.592" cy="28.2451" r="3" fill="#D7D7D7"/>
<circle cx="90.5918" cy="58.2451" r="3" fill="#D7D7D7"/>
<circle cx="120.592" cy="58.2451" r="3" fill="#D7D7D7"/>
<circle cx="150.592" cy="58.2451" r="3" fill="#D7D7D7"/>
<circle cx="180.592" cy="58.2451" r="3" fill="#D7D7D7"/>
<circle cx="210.592" cy="58.2451" r="3" fill="#D7D7D7"/>
<circle cx="240.592" cy="58.2451" r="3" fill="#D7D7D7"/>
<circle cx="270.592" cy="58.2451" r="3" fill="#D7D7D7"/>
<circle cx="1550.87" cy="464.233" r="84.1891" stroke="#CD2026"/>
<circle cx="1495.25" cy="520.891" r="19.8938" stroke="#007618"/>
<circle cx="1480.08" cy="505.721" r="19.8733" fill="#FFB800"/>
<circle cx="1246.18" cy="518.892" r="3" fill="#D7D7D7"/>
<circle cx="1276.18" cy="518.892" r="3" fill="#D7D7D7"/>
<circle cx="1306.18" cy="518.892" r="3" fill="#D7D7D7"/>
<circle cx="1336.18" cy="518.892" r="3" fill="#D7D7D7"/>
<circle cx="1366.18" cy="518.892" r="3" fill="#D7D7D7"/>
<circle cx="1396.18" cy="518.892" r="3" fill="#D7D7D7"/>
<circle cx="1426.18" cy="518.892" r="3" fill="#D7D7D7"/>
<circle cx="1246.18" cy="548.892" r="3" fill="#D7D7D7"/>
<circle cx="1276.18" cy="548.892" r="3" fill="#D7D7D7"/>
<circle cx="1306.18" cy="548.892" r="3" fill="#D7D7D7"/>
<circle cx="1336.18" cy="548.892" r="3" fill="#D7D7D7"/>
<circle cx="1366.18" cy="548.892" r="3" fill="#D7D7D7"/>
<circle cx="1396.18" cy="548.892" r="3" fill="#D7D7D7"/>
<circle cx="1426.18" cy="548.892" r="3" fill="#D7D7D7"/>
<path fill-rule="evenodd" clip-rule="evenodd" d="M1326.07 223.592C1318.52 217.084 1306.47 215.218 1296.71 224.983C1288.69 232.998 1286.79 240.997 1287.76 248.123C1288.75 255.344 1292.72 261.852 1296.79 266.687C1303.75 274.953 1312.92 275.833 1323.64 275.009C1328.76 274.615 1334.02 272.55 1338.55 270.061C1343.08 267.577 1346.78 264.733 1348.78 262.904C1349.39 262.344 1350.34 262.385 1350.9 262.996C1351.46 263.606 1351.41 264.555 1350.8 265.115C1348.63 267.104 1344.74 270.09 1339.99 272.691C1335.26 275.287 1329.58 277.56 1323.87 278C1312.94 278.841 1302.44 278.056 1294.5 268.62C1290.24 263.564 1285.88 256.536 1284.79 248.529C1283.68 240.427 1285.94 231.506 1294.59 222.861C1305.65 211.801 1319.5 213.967 1328.03 221.32C1332.28 224.986 1335.29 230 1335.97 235.409C1336.67 240.867 1334.96 246.595 1330.03 251.534C1325.4 256.161 1320.23 257.44 1315.55 256.5C1310.96 255.575 1307.01 252.535 1304.62 248.813C1302.24 245.101 1301.27 240.471 1303.09 236.394C1304.93 232.271 1309.38 229.205 1316.78 228.164C1317.6 228.048 1318.36 228.62 1318.48 229.44C1318.59 230.261 1318.02 231.019 1317.2 231.135C1310.39 232.092 1307.09 234.775 1305.83 237.616C1304.54 240.502 1305.13 244.051 1307.14 247.193C1309.15 250.324 1312.45 252.815 1316.15 253.559C1319.77 254.289 1323.94 253.376 1327.9 249.413C1332.21 245.108 1333.57 240.293 1333 235.785C1332.42 231.228 1329.85 226.856 1326.07 223.592Z" fill="#B2E7BC"/>
<path fill-rule="evenodd" clip-rule="evenodd" d="M416.514 246.404C414.168 247.301 411.595 249.62 409.491 253.256C406.975 257.601 401.903 265.263 395.481 269.328C392.147 271.438 387.845 272.952 383.139 271.758C378.467 270.573 374.656 267.034 371.575 261.836C366.401 253.104 362.401 249.251 359.779 247.537C357.471 246.029 356.042 246.03 354.998 246.031C354.973 246.031 354.947 246.031 354.922 246.031C354.134 246.031 353.804 246.046 353.432 246.136C353.107 246.214 352.539 246.406 351.666 247.036C349.775 248.4 346.675 251.646 342.084 259.37C336.609 268.585 328.948 272.707 320.964 271.319C313.569 270.034 307.621 264.258 304.434 257.618C302.629 253.858 300.01 250.774 297.572 248.656C296.355 247.599 295.26 246.85 294.435 246.396C293.85 246.074 293.581 245.998 293.582 245.994C293.583 245.991 293.749 246.031 294.058 246.031L294.06 235.666C296.103 235.666 298.077 236.569 299.433 237.315C301.006 238.181 302.698 239.379 304.369 240.831C307.706 243.729 311.271 247.909 313.779 253.133C315.982 257.722 319.579 260.558 322.739 261.107C325.311 261.554 329.216 260.736 333.174 254.076C338.016 245.926 341.991 241.234 345.602 238.629C347.48 237.275 349.27 236.476 351.009 236.058C352.643 235.665 354.043 235.665 354.842 235.666C354.869 235.666 354.896 235.666 354.922 235.666C357.017 235.666 360.739 235.782 365.45 238.861C369.903 241.772 374.886 247.091 380.492 256.551C382.801 260.448 384.689 261.458 385.688 261.711C386.653 261.956 387.994 261.8 389.937 260.569C394.071 257.953 398.095 252.252 400.52 248.062C403.356 243.164 407.521 238.745 412.812 236.722C418.451 234.566 424.626 235.432 430.226 239.854C433.098 242.121 435.569 245.844 437.559 248.843L437.823 249.24C440.009 252.534 441.968 255.486 444.137 257.701C446.319 259.929 448.054 260.72 449.628 260.72C451.266 260.72 454.173 259.865 458.653 255.487L465.898 262.9C460.495 268.18 455.121 271.086 449.628 271.086C444.072 271.086 439.827 268.115 436.731 264.953C433.851 262.012 431.399 258.31 429.391 255.28C429.268 255.095 429.147 254.912 429.028 254.733C426.712 251.244 425.149 249.051 423.804 247.989C420.87 245.673 418.51 245.641 416.514 246.404Z" fill="#F9F377"/>
<path d="M1180.32 406.871L1166.14 425.201L1151.21 407.402L1137.03 425.201L1123.59 408.731L1109.19 425.732L1096.38 408.996L1084.11 425.467L1070.24 408.465" stroke="#A7A7A7" stroke-miterlimit="10" stroke-linecap="round" stroke-linejoin="round"/>
<path d="M441.066 512.148L459.571 494.167L441.066 476.185" stroke="#43BE5C"/>
<path d="M460.445 512.148L478.95 494.167L460.445 476.185" stroke="#43BE5C"/>
<path d="M479.824 512.148L498.329 494.167L479.824 476.185" stroke="#43BE5C"/>
<path d="M499.203 512.148L517.708 494.167L499.203 476.185" stroke="#43BE5C"/>
<path d="M807.247 105.219C805.754 110.484 805.842 134.623 806.073 146.034C813.384 150.091 829.81 150.209 837.109 149.761C838.562 154.038 847.592 201.199 851.926 224.245C924.614 223.784 972.525 196.125 974.777 192.17C976.579 189.006 965.04 168.072 959.045 158C955.536 150.837 951.053 130.004 949.25 120.483C961.93 118.248 975.221 101.872 973.878 102.223C972.536 102.573 960.229 76.0319 956.039 69.5975C951.85 63.163 939.78 51.258 937.488 49.3468C935.655 47.8179 910.126 42.0318 897.59 39.3298C882.626 50.1196 853.991 53.5809 841.543 53.9629C835.853 56.8825 811.153 84.4819 809.257 88.2034C807.74 91.1806 807.285 100.787 807.247 105.219Z" fill="#CD2026"/>
<path d="M896.865 39.8075C897.804 43.405 894.052 55.0089 889.167 59.675C867.97 79.1433 849.115 64.2613 842.055 54.1176C867.449 53.4478 889.347 44.5521 896.865 39.8075Z" fill="#A70B11"/>
<path d="M837.186 149.676C835.998 138.894 832.912 116.475 830.067 113.059" stroke="#A70B11"/>
<path d="M949.287 120.408C945.052 110.421 936.785 89.3552 937.597 84.9839" stroke="#A70B11"/>
<path d="M877.482 216.362C868.573 217.512 856.726 220.561 852.087 224.058C872.437 224.827 883.172 222.959 919.844 216.323C956.515 209.688 976.012 194.155 975.152 190.862C962.912 191.2 933.852 198.118 922.424 204.628C908.139 212.766 888.618 214.924 877.482 216.362Z" fill="#A70B11"/>
<path d="M579.836 134.795L568.832 123.477L707.705 99.3242L712.055 101.749L671.016 174.412L579.836 134.795Z" fill="#F5F5F5"/>
<path d="M569.457 123.943L579.553 135.114L671.277 174.639" stroke="#1F1F1F"/>
<path d="M707.641 99.2412L605.93 54.7847L568.883 123.49L669.247 166.6L707.641 99.2412Z" fill="#CD2026"/>
<path d="M610.296 56.7477L605.93 54.7847L568.883 123.49L573.224 125.244L610.296 56.7477Z" fill="#A70B11"/>
<rect x="644.582" y="246.429" width="50.124" height="101.79" rx="5" transform="rotate(-52.99 644.582 246.429)" fill="#D7D7D7"/>
<g opacity="0.2">
<circle cx="663.796" cy="242.224" r="1.12652" transform="rotate(-52.99 663.796 242.224)" fill="#7D7D7D"/>
<circle cx="668.476" cy="245.751" r="1.12652" transform="rotate(-52.99 668.476 245.751)" fill="#7D7D7D"/>
<circle cx="673.154" cy="249.278" r="1.12652" transform="rotate(-52.99 673.154 249.278)" fill="#7D7D7D"/>
<circle cx="677.832" cy="252.805" r="1.12652" transform="rotate(-52.99 677.832 252.805)" fill="#7D7D7D"/>
<circle cx="682.511" cy="256.332" r="1.12652" transform="rotate(-52.99 682.511 256.332)" fill="#7D7D7D"/>
<circle cx="687.189" cy="259.859" r="1.12652" transform="rotate(-52.99 687.189 259.859)" fill="#7D7D7D"/>
<circle cx="691.869" cy="263.385" r="1.12652" transform="rotate(-52.99 691.869 263.385)" fill="#7D7D7D"/>
<circle cx="696.546" cy="266.912" r="1.12652" transform="rotate(-52.99 696.546 266.912)" fill="#7D7D7D"/>
<circle cx="701.224" cy="270.439" r="1.12652" transform="rotate(-52.99 701.224 270.439)" fill="#7D7D7D"/>
<circle cx="705.904" cy="273.966" r="1.12652" transform="rotate(-52.99 705.904 273.966)" fill="#7D7D7D"/>
<circle cx="710.582" cy="277.492" r="1.12652" transform="rotate(-52.99 710.582 277.492)" fill="#7D7D7D"/>
<circle cx="715.261" cy="281.019" r="1.12652" transform="rotate(-52.99 715.261 281.019)" fill="#7D7D7D"/>
<circle cx="719.939" cy="284.546" r="1.12652" transform="rotate(-52.99 719.939 284.546)" fill="#7D7D7D"/>
<circle cx="724.619" cy="288.073" r="1.12652" transform="rotate(-52.99 724.619 288.073)" fill="#7D7D7D"/>
<circle cx="667.865" cy="236.827" r="1.12652" transform="rotate(-52.99 667.865 236.827)" fill="#7D7D7D"/>
<circle cx="672.544" cy="240.354" r="1.12652" transform="rotate(-52.99 672.544 240.354)" fill="#7D7D7D"/>
<circle cx="677.222" cy="243.881" r="1.12652" transform="rotate(-52.99 677.222 243.881)" fill="#7D7D7D"/>
<circle cx="681.902" cy="247.407" r="1.12652" transform="rotate(-52.99 681.902 247.407)" fill="#7D7D7D"/>
<circle cx="686.58" cy="250.934" r="1.12652" transform="rotate(-52.99 686.58 250.934)" fill="#7D7D7D"/>
<circle cx="691.257" cy="254.461" r="1.12652" transform="rotate(-52.99 691.257 254.461)" fill="#7D7D7D"/>
<circle cx="695.937" cy="257.988" r="1.12652" transform="rotate(-52.99 695.937 257.988)" fill="#7D7D7D"/>
<circle cx="700.615" cy="261.515" r="1.12652" transform="rotate(-52.99 700.615 261.515)" fill="#7D7D7D"/>
<circle cx="705.294" cy="265.042" r="1.12652" transform="rotate(-52.99 705.294 265.042)" fill="#7D7D7D"/>
<circle cx="709.972" cy="268.569" r="1.12652" transform="rotate(-52.99 709.972 268.569)" fill="#7D7D7D"/>
<circle cx="714.65" cy="272.095" r="1.12652" transform="rotate(-52.99 714.65 272.095)" fill="#7D7D7D"/>
<circle cx="719.33" cy="275.622" r="1.12652" transform="rotate(-52.99 719.33 275.622)" fill="#7D7D7D"/>
<circle cx="724.007" cy="279.149" r="1.12652" transform="rotate(-52.99 724.007 279.149)" fill="#7D7D7D"/>
<circle cx="728.687" cy="282.676" r="1.12652" transform="rotate(-52.99 728.687 282.676)" fill="#7D7D7D"/>
<circle cx="671.933" cy="231.43" r="1.12652" transform="rotate(-52.99 671.933 231.43)" fill="#7D7D7D"/>
<circle cx="676.613" cy="234.957" r="1.12652" transform="rotate(-52.99 676.613 234.957)" fill="#7D7D7D"/>
<circle cx="681.291" cy="238.483" r="1.12652" transform="rotate(-52.99 681.291 238.483)" fill="#7D7D7D"/>
<circle cx="685.97" cy="242.01" r="1.12652" transform="rotate(-52.99 685.97 242.01)" fill="#7D7D7D"/>
<circle cx="690.648" cy="245.537" r="1.12652" transform="rotate(-52.99 690.648 245.537)" fill="#7D7D7D"/>
<circle cx="695.328" cy="249.064" r="1.12652" transform="rotate(-52.99 695.328 249.064)" fill="#7D7D7D"/>
<circle cx="700.005" cy="252.591" r="1.12652" transform="rotate(-52.99 700.005 252.591)" fill="#7D7D7D"/>
<circle cx="704.683" cy="256.117" r="1.12652" transform="rotate(-52.99 704.683 256.117)" fill="#7D7D7D"/>
<circle cx="709.363" cy="259.644" r="1.12652" transform="rotate(-52.99 709.363 259.644)" fill="#7D7D7D"/>
<circle cx="714.041" cy="263.171" r="1.12652" transform="rotate(-52.99 714.041 263.171)" fill="#7D7D7D"/>
<circle cx="718.72" cy="266.698" r="1.12652" transform="rotate(-52.99 718.72 266.698)" fill="#7D7D7D"/>
<circle cx="723.398" cy="270.225" r="1.12652" transform="rotate(-52.99 723.398 270.225)" fill="#7D7D7D"/>
<circle cx="728.076" cy="273.752" r="1.12652" transform="rotate(-52.99 728.076 273.752)" fill="#7D7D7D"/>
<circle cx="732.755" cy="277.279" r="1.12652" transform="rotate(-52.99 732.755 277.279)" fill="#7D7D7D"/>
<circle cx="676.003" cy="226.032" r="1.12652" transform="rotate(-52.99 676.003 226.032)" fill="#7D7D7D"/>
<circle cx="680.681" cy="229.559" r="1.12652" transform="rotate(-52.99 680.681 229.559)" fill="#7D7D7D"/>
<circle cx="685.359" cy="233.086" r="1.12652" transform="rotate(-52.99 685.359 233.086)" fill="#7D7D7D"/>
<circle cx="690.039" cy="236.613" r="1.12652" transform="rotate(-52.99 690.039 236.613)" fill="#7D7D7D"/>
<circle cx="694.716" cy="240.139" r="1.12652" transform="rotate(-52.99 694.716 240.139)" fill="#7D7D7D"/>
<circle cx="699.396" cy="243.666" r="1.12652" transform="rotate(-52.99 699.396 243.666)" fill="#7D7D7D"/>
<circle cx="704.074" cy="247.193" r="1.12652" transform="rotate(-52.99 704.074 247.193)" fill="#7D7D7D"/>
<circle cx="708.753" cy="250.72" r="1.12652" transform="rotate(-52.99 708.753 250.72)" fill="#7D7D7D"/>
<circle cx="713.431" cy="254.247" r="1.12652" transform="rotate(-52.99 713.431 254.247)" fill="#7D7D7D"/>
<circle cx="718.109" cy="257.774" r="1.12652" transform="rotate(-52.99 718.109 257.774)" fill="#7D7D7D"/>
<circle cx="722.789" cy="261.301" r="1.12652" transform="rotate(-52.99 722.789 261.301)" fill="#7D7D7D"/>
<circle cx="727.466" cy="264.827" r="1.12652" transform="rotate(-52.99 727.466 264.827)" fill="#7D7D7D"/>
<circle cx="732.146" cy="268.354" r="1.12652" transform="rotate(-52.99 732.146 268.354)" fill="#7D7D7D"/>
<circle cx="736.824" cy="271.881" r="1.12652" transform="rotate(-52.99 736.824 271.881)" fill="#7D7D7D"/>
<circle cx="680.072" cy="220.635" r="1.12652" transform="rotate(-52.99 680.072 220.635)" fill="#7D7D7D"/>
<circle cx="684.75" cy="224.162" r="1.12652" transform="rotate(-52.99 684.75 224.162)" fill="#7D7D7D"/>
<circle cx="689.429" cy="227.689" r="1.12652" transform="rotate(-52.99 689.429 227.689)" fill="#7D7D7D"/>
<circle cx="694.107" cy="231.216" r="1.12652" transform="rotate(-52.99 694.107 231.216)" fill="#7D7D7D"/>
<circle cx="698.785" cy="234.742" r="1.12652" transform="rotate(-52.99 698.785 234.742)" fill="#7D7D7D"/>
<circle cx="703.464" cy="238.269" r="1.12652" transform="rotate(-52.99 703.464 238.269)" fill="#7D7D7D"/>
<circle cx="708.142" cy="241.796" r="1.12652" transform="rotate(-52.99 708.142 241.796)" fill="#7D7D7D"/>
<circle cx="712.822" cy="245.322" r="1.12652" transform="rotate(-52.99 712.822 245.322)" fill="#7D7D7D"/>
<circle cx="717.5" cy="248.849" r="1.12652" transform="rotate(-52.99 717.5 248.849)" fill="#7D7D7D"/>
<circle cx="722.179" cy="252.376" r="1.12652" transform="rotate(-52.99 722.179 252.376)" fill="#7D7D7D"/>
<circle cx="726.857" cy="255.903" r="1.12652" transform="rotate(-52.99 726.857 255.903)" fill="#7D7D7D"/>
<circle cx="731.535" cy="259.43" r="1.12652" transform="rotate(-52.99 731.535 259.43)" fill="#7D7D7D"/>
<circle cx="736.214" cy="262.957" r="1.12652" transform="rotate(-52.99 736.214 262.957)" fill="#7D7D7D"/>
<circle cx="740.892" cy="266.484" r="1.12652" transform="rotate(-52.99 740.892 266.484)" fill="#7D7D7D"/>
<circle cx="659.728" cy="247.622" r="1.12652" transform="rotate(-52.99 659.728 247.622)" fill="#7D7D7D"/>
<circle cx="664.406" cy="251.149" r="1.12652" transform="rotate(-52.99 664.406 251.149)" fill="#7D7D7D"/>
<circle cx="669.086" cy="254.676" r="1.12652" transform="rotate(-52.99 669.086 254.676)" fill="#7D7D7D"/>
<circle cx="673.763" cy="258.202" r="1.12652" transform="rotate(-52.99 673.763 258.202)" fill="#7D7D7D"/>
<circle cx="678.443" cy="261.729" r="1.12652" transform="rotate(-52.99 678.443 261.729)" fill="#7D7D7D"/>
<circle cx="683.121" cy="265.256" r="1.12652" transform="rotate(-52.99 683.121 265.256)" fill="#7D7D7D"/>
<circle cx="687.798" cy="268.782" r="1.12652" transform="rotate(-52.99 687.798 268.782)" fill="#7D7D7D"/>
<circle cx="692.478" cy="272.309" r="1.12652" transform="rotate(-52.99 692.478 272.309)" fill="#7D7D7D"/>
<circle cx="697.156" cy="275.836" r="1.12652" transform="rotate(-52.99 697.156 275.836)" fill="#7D7D7D"/>
<circle cx="701.836" cy="279.363" r="1.12652" transform="rotate(-52.99 701.836 279.363)" fill="#7D7D7D"/>
<circle cx="706.513" cy="282.89" r="1.12652" transform="rotate(-52.99 706.513 282.89)" fill="#7D7D7D"/>
<circle cx="711.193" cy="286.417" r="1.12652" transform="rotate(-52.99 711.193 286.417)" fill="#7D7D7D"/>
<circle cx="715.871" cy="289.944" r="1.12652" transform="rotate(-52.99 715.871 289.944)" fill="#7D7D7D"/>
<circle cx="720.548" cy="293.47" r="1.12652" transform="rotate(-52.99 720.548 293.47)" fill="#7D7D7D"/>
</g>
<rect x="650.408" y="225.495" width="50.124" height="101.79" rx="5" transform="rotate(-31.49 650.408 225.495)" fill="#EBEBEB"/>
<g opacity="0.2">
<circle cx="669.826" cy="228.625" r="1.12652" transform="rotate(-31.49 669.826 228.625)" fill="#7D7D7D"/>
<circle cx="672.887" cy="233.621" r="1.12652" transform="rotate(-31.49 672.887 233.621)" fill="#7D7D7D"/>
<circle cx="675.948" cy="238.617" r="1.12652" transform="rotate(-31.49 675.948 238.617)" fill="#7D7D7D"/>
<circle cx="679.008" cy="243.613" r="1.12652" transform="rotate(-31.49 679.008 243.613)" fill="#7D7D7D"/>
<circle cx="682.069" cy="248.609" r="1.12652" transform="rotate(-31.49 682.069 248.609)" fill="#7D7D7D"/>
<circle cx="685.129" cy="253.605" r="1.12652" transform="rotate(-31.49 685.129 253.605)" fill="#7D7D7D"/>
<circle cx="688.19" cy="258.601" r="1.12652" transform="rotate(-31.49 688.19 258.601)" fill="#7D7D7D"/>
<circle cx="691.25" cy="263.597" r="1.12652" transform="rotate(-31.49 691.25 263.597)" fill="#7D7D7D"/>
<circle cx="694.309" cy="268.593" r="1.12652" transform="rotate(-31.49 694.309 268.593)" fill="#7D7D7D"/>
<circle cx="697.369" cy="273.589" r="1.12652" transform="rotate(-31.49 697.369 273.589)" fill="#7D7D7D"/>
<circle cx="700.43" cy="278.586" r="1.12652" transform="rotate(-31.49 700.43 278.586)" fill="#7D7D7D"/>
<circle cx="703.49" cy="283.582" r="1.12652" transform="rotate(-31.49 703.49 283.582)" fill="#7D7D7D"/>
<circle cx="706.551" cy="288.578" r="1.12652" transform="rotate(-31.49 706.551 288.578)" fill="#7D7D7D"/>
<circle cx="709.612" cy="293.574" r="1.12652" transform="rotate(-31.49 709.612 293.574)" fill="#7D7D7D"/>
<circle cx="675.59" cy="225.094" r="1.12652" transform="rotate(-31.49 675.59 225.094)" fill="#7D7D7D"/>
<circle cx="678.651" cy="230.09" r="1.12652" transform="rotate(-31.49 678.651 230.09)" fill="#7D7D7D"/>
<circle cx="681.711" cy="235.087" r="1.12652" transform="rotate(-31.49 681.711 235.087)" fill="#7D7D7D"/>
<circle cx="684.772" cy="240.083" r="1.12652" transform="rotate(-31.49 684.772 240.083)" fill="#7D7D7D"/>
<circle cx="687.832" cy="245.079" r="1.12652" transform="rotate(-31.49 687.832 245.079)" fill="#7D7D7D"/>
<circle cx="690.893" cy="250.075" r="1.12652" transform="rotate(-31.49 690.893 250.075)" fill="#7D7D7D"/>
<circle cx="693.953" cy="255.071" r="1.12652" transform="rotate(-31.49 693.953 255.071)" fill="#7D7D7D"/>
<circle cx="697.014" cy="260.067" r="1.12652" transform="rotate(-31.49 697.014 260.067)" fill="#7D7D7D"/>
<circle cx="700.073" cy="265.063" r="1.12652" transform="rotate(-31.49 700.073 265.063)" fill="#7D7D7D"/>
<circle cx="703.133" cy="270.059" r="1.12652" transform="rotate(-31.49 703.133 270.059)" fill="#7D7D7D"/>
<circle cx="706.194" cy="275.055" r="1.12652" transform="rotate(-31.49 706.194 275.055)" fill="#7D7D7D"/>
<circle cx="709.254" cy="280.051" r="1.12652" transform="rotate(-31.49 709.254 280.051)" fill="#7D7D7D"/>
<circle cx="712.315" cy="285.047" r="1.12652" transform="rotate(-31.49 712.315 285.047)" fill="#7D7D7D"/>
<circle cx="715.375" cy="290.044" r="1.12652" transform="rotate(-31.49 715.375 290.044)" fill="#7D7D7D"/>
<circle cx="681.354" cy="221.564" r="1.12652" transform="rotate(-31.49 681.354 221.564)" fill="#7D7D7D"/>
<circle cx="684.414" cy="226.56" r="1.12652" transform="rotate(-31.49 684.414 226.56)" fill="#7D7D7D"/>
<circle cx="687.475" cy="231.556" r="1.12652" transform="rotate(-31.49 687.475 231.556)" fill="#7D7D7D"/>
<circle cx="690.535" cy="236.552" r="1.12652" transform="rotate(-31.49 690.535 236.552)" fill="#7D7D7D"/>
<circle cx="693.596" cy="241.548" r="1.12652" transform="rotate(-31.49 693.596 241.548)" fill="#7D7D7D"/>
<circle cx="696.656" cy="246.544" r="1.12652" transform="rotate(-31.49 696.656 246.544)" fill="#7D7D7D"/>
<circle cx="699.717" cy="251.54" r="1.12652" transform="rotate(-31.49 699.717 251.54)" fill="#7D7D7D"/>
<circle cx="702.778" cy="256.536" r="1.12652" transform="rotate(-31.49 702.778 256.536)" fill="#7D7D7D"/>
<circle cx="705.838" cy="261.532" r="1.12652" transform="rotate(-31.49 705.838 261.532)" fill="#7D7D7D"/>
<circle cx="708.897" cy="266.528" r="1.12652" transform="rotate(-31.49 708.897 266.528)" fill="#7D7D7D"/>
<circle cx="711.957" cy="271.525" r="1.12652" transform="rotate(-31.49 711.957 271.525)" fill="#7D7D7D"/>
<circle cx="715.018" cy="276.521" r="1.12652" transform="rotate(-31.49 715.018 276.521)" fill="#7D7D7D"/>
<circle cx="718.078" cy="281.517" r="1.12652" transform="rotate(-31.49 718.078 281.517)" fill="#7D7D7D"/>
<circle cx="721.139" cy="286.513" r="1.12652" transform="rotate(-31.49 721.139 286.513)" fill="#7D7D7D"/>
<circle cx="687.117" cy="218.033" r="1.12652" transform="rotate(-31.49 687.117 218.033)" fill="#7D7D7D"/>
<circle cx="690.178" cy="223.029" r="1.12652" transform="rotate(-31.49 690.178 223.029)" fill="#7D7D7D"/>
<circle cx="693.239" cy="228.025" r="1.12652" transform="rotate(-31.49 693.239 228.025)" fill="#7D7D7D"/>
<circle cx="696.299" cy="233.021" r="1.12652" transform="rotate(-31.49 696.299 233.021)" fill="#7D7D7D"/>
<circle cx="699.36" cy="238.017" r="1.12652" transform="rotate(-31.49 699.36 238.017)" fill="#7D7D7D"/>
<circle cx="702.42" cy="243.013" r="1.12652" transform="rotate(-31.49 702.42 243.013)" fill="#7D7D7D"/>
<circle cx="705.481" cy="248.009" r="1.12652" transform="rotate(-31.49 705.481 248.009)" fill="#7D7D7D"/>
<circle cx="708.541" cy="253.005" r="1.12652" transform="rotate(-31.49 708.541 253.005)" fill="#7D7D7D"/>
<circle cx="711.602" cy="258.002" r="1.12652" transform="rotate(-31.49 711.602 258.002)" fill="#7D7D7D"/>
<circle cx="714.66" cy="262.998" r="1.12652" transform="rotate(-31.49 714.66 262.998)" fill="#7D7D7D"/>
<circle cx="717.721" cy="267.994" r="1.12652" transform="rotate(-31.49 717.721 267.994)" fill="#7D7D7D"/>
<circle cx="720.781" cy="272.99" r="1.12652" transform="rotate(-31.49 720.781 272.99)" fill="#7D7D7D"/>
<circle cx="723.842" cy="277.986" r="1.12652" transform="rotate(-31.49 723.842 277.986)" fill="#7D7D7D"/>
<circle cx="726.903" cy="282.982" r="1.12652" transform="rotate(-31.49 726.903 282.982)" fill="#7D7D7D"/>
<circle cx="692.881" cy="214.502" r="1.12652" transform="rotate(-31.49 692.881 214.502)" fill="#7D7D7D"/>
<circle cx="695.942" cy="219.498" r="1.12652" transform="rotate(-31.49 695.942 219.498)" fill="#7D7D7D"/>
<circle cx="699.002" cy="224.494" r="1.12652" transform="rotate(-31.49 699.002 224.494)" fill="#7D7D7D"/>
<circle cx="702.063" cy="229.49" r="1.12652" transform="rotate(-31.49 702.063 229.49)" fill="#7D7D7D"/>
<circle cx="705.123" cy="234.486" r="1.12652" transform="rotate(-31.49 705.123 234.486)" fill="#7D7D7D"/>
<circle cx="708.184" cy="239.483" r="1.12652" transform="rotate(-31.49 708.184 239.483)" fill="#7D7D7D"/>
<circle cx="711.244" cy="244.479" r="1.12652" transform="rotate(-31.49 711.244 244.479)" fill="#7D7D7D"/>
<circle cx="714.305" cy="249.475" r="1.12652" transform="rotate(-31.49 714.305 249.475)" fill="#7D7D7D"/>
<circle cx="717.365" cy="254.471" r="1.12652" transform="rotate(-31.49 717.365 254.471)" fill="#7D7D7D"/>
<circle cx="720.424" cy="259.467" r="1.12652" transform="rotate(-31.49 720.424 259.467)" fill="#7D7D7D"/>
<circle cx="723.485" cy="264.464" r="1.12652" transform="rotate(-31.49 723.485 264.464)" fill="#7D7D7D"/>
<circle cx="726.545" cy="269.46" r="1.12652" transform="rotate(-31.49 726.545 269.46)" fill="#7D7D7D"/>
<circle cx="729.606" cy="274.456" r="1.12652" transform="rotate(-31.49 729.606 274.456)" fill="#7D7D7D"/>
<circle cx="732.666" cy="279.452" r="1.12652" transform="rotate(-31.49 732.666 279.452)" fill="#7D7D7D"/>
<circle cx="664.063" cy="232.155" r="1.12652" transform="rotate(-31.49 664.063 232.155)" fill="#7D7D7D"/>
<circle cx="667.123" cy="237.151" r="1.12652" transform="rotate(-31.49 667.123 237.151)" fill="#7D7D7D"/>
<circle cx="670.184" cy="242.148" r="1.12652" transform="rotate(-31.49 670.184 242.148)" fill="#7D7D7D"/>
<circle cx="673.244" cy="247.144" r="1.12652" transform="rotate(-31.49 673.244 247.144)" fill="#7D7D7D"/>
<circle cx="676.305" cy="252.14" r="1.12652" transform="rotate(-31.49 676.305 252.14)" fill="#7D7D7D"/>
<circle cx="679.365" cy="257.136" r="1.12652" transform="rotate(-31.49 679.365 257.136)" fill="#7D7D7D"/>
<circle cx="682.426" cy="262.132" r="1.12652" transform="rotate(-31.49 682.426 262.132)" fill="#7D7D7D"/>
<circle cx="685.487" cy="267.128" r="1.12652" transform="rotate(-31.49 685.487 267.128)" fill="#7D7D7D"/>
<circle cx="688.545" cy="272.124" r="1.12652" transform="rotate(-31.49 688.545 272.124)" fill="#7D7D7D"/>
<circle cx="691.606" cy="277.12" r="1.12652" transform="rotate(-31.49 691.606 277.12)" fill="#7D7D7D"/>
<circle cx="694.666" cy="282.116" r="1.12652" transform="rotate(-31.49 694.666 282.116)" fill="#7D7D7D"/>
<circle cx="697.727" cy="287.112" r="1.12652" transform="rotate(-31.49 697.727 287.112)" fill="#7D7D7D"/>
<circle cx="700.787" cy="292.109" r="1.12652" transform="rotate(-31.49 700.787 292.109)" fill="#7D7D7D"/>
<circle cx="703.848" cy="297.105" r="1.12652" transform="rotate(-31.49 703.848 297.105)" fill="#7D7D7D"/>
</g>
<rect x="659.785" y="209.671" width="50.124" height="101.79" rx="5" transform="rotate(-13.53 659.785 209.671)" fill="#F5F5F5"/>
<g opacity="0.2">
<circle cx="677.292" cy="218.636" r="1.12652" transform="rotate(-13.53 677.292 218.636)" fill="#7D7D7D"/>
<circle cx="678.662" cy="224.332" r="1.12652" transform="rotate(-13.53 678.662 224.332)" fill="#7D7D7D"/>
<circle cx="680.033" cy="230.029" r="1.12652" transform="rotate(-13.53 680.033 230.029)" fill="#7D7D7D"/>
<circle cx="681.404" cy="235.725" r="1.12652" transform="rotate(-13.53 681.404 235.725)" fill="#7D7D7D"/>
<circle cx="682.775" cy="241.422" r="1.12652" transform="rotate(-13.53 682.775 241.422)" fill="#7D7D7D"/>
<circle cx="684.146" cy="247.118" r="1.12652" transform="rotate(-13.53 684.146 247.118)" fill="#7D7D7D"/>
<circle cx="685.515" cy="252.814" r="1.12652" transform="rotate(-13.53 685.515 252.814)" fill="#7D7D7D"/>
<circle cx="686.886" cy="258.51" r="1.12652" transform="rotate(-13.53 686.886 258.51)" fill="#7D7D7D"/>
<circle cx="688.257" cy="264.207" r="1.12652" transform="rotate(-13.53 688.257 264.207)" fill="#7D7D7D"/>
<circle cx="689.628" cy="269.903" r="1.12652" transform="rotate(-13.53 689.628 269.903)" fill="#7D7D7D"/>
<circle cx="690.999" cy="275.599" r="1.12652" transform="rotate(-13.53 690.999 275.599)" fill="#7D7D7D"/>
<circle cx="692.371" cy="281.296" r="1.12652" transform="rotate(-13.53 692.371 281.296)" fill="#7D7D7D"/>
<circle cx="693.74" cy="286.992" r="1.12652" transform="rotate(-13.53 693.74 286.992)" fill="#7D7D7D"/>
<circle cx="695.111" cy="292.689" r="1.12652" transform="rotate(-13.53 695.111 292.689)" fill="#7D7D7D"/>
<circle cx="683.863" cy="217.055" r="1.12652" transform="rotate(-13.53 683.863 217.055)" fill="#7D7D7D"/>
<circle cx="685.234" cy="222.751" r="1.12652" transform="rotate(-13.53 685.234 222.751)" fill="#7D7D7D"/>
<circle cx="686.605" cy="228.447" r="1.12652" transform="rotate(-13.53 686.605 228.447)" fill="#7D7D7D"/>
<circle cx="687.976" cy="234.144" r="1.12652" transform="rotate(-13.53 687.976 234.144)" fill="#7D7D7D"/>
<circle cx="689.345" cy="239.84" r="1.12652" transform="rotate(-13.53 689.345 239.84)" fill="#7D7D7D"/>
<circle cx="690.716" cy="245.536" r="1.12652" transform="rotate(-13.53 690.716 245.536)" fill="#7D7D7D"/>
<circle cx="692.087" cy="251.233" r="1.12652" transform="rotate(-13.53 692.087 251.233)" fill="#7D7D7D"/>
<circle cx="693.458" cy="256.929" r="1.12652" transform="rotate(-13.53 693.458 256.929)" fill="#7D7D7D"/>
<circle cx="694.83" cy="262.626" r="1.12652" transform="rotate(-13.53 694.83 262.626)" fill="#7D7D7D"/>
<circle cx="696.201" cy="268.322" r="1.12652" transform="rotate(-13.53 696.201 268.322)" fill="#7D7D7D"/>
<circle cx="697.57" cy="274.018" r="1.12652" transform="rotate(-13.53 697.57 274.018)" fill="#7D7D7D"/>
<circle cx="698.941" cy="279.715" r="1.12652" transform="rotate(-13.53 698.941 279.715)" fill="#7D7D7D"/>
<circle cx="700.312" cy="285.411" r="1.12652" transform="rotate(-13.53 700.312 285.411)" fill="#7D7D7D"/>
<circle cx="701.683" cy="291.107" r="1.12652" transform="rotate(-13.53 701.683 291.107)" fill="#7D7D7D"/>
<circle cx="690.435" cy="215.473" r="1.12652" transform="rotate(-13.53 690.435 215.473)" fill="#7D7D7D"/>
<circle cx="691.806" cy="221.17" r="1.12652" transform="rotate(-13.53 691.806 221.17)" fill="#7D7D7D"/>
<circle cx="693.175" cy="226.866" r="1.12652" transform="rotate(-13.53 693.175 226.866)" fill="#7D7D7D"/>
<circle cx="694.546" cy="232.563" r="1.12652" transform="rotate(-13.53 694.546 232.563)" fill="#7D7D7D"/>
<circle cx="695.917" cy="238.259" r="1.12652" transform="rotate(-13.53 695.917 238.259)" fill="#7D7D7D"/>
<circle cx="697.289" cy="243.955" r="1.12652" transform="rotate(-13.53 697.289 243.955)" fill="#7D7D7D"/>
<circle cx="698.66" cy="249.652" r="1.12652" transform="rotate(-13.53 698.66 249.652)" fill="#7D7D7D"/>
<circle cx="700.031" cy="255.348" r="1.12652" transform="rotate(-13.53 700.031 255.348)" fill="#7D7D7D"/>
<circle cx="701.4" cy="261.044" r="1.12652" transform="rotate(-13.53 701.4 261.044)" fill="#7D7D7D"/>
<circle cx="702.771" cy="266.74" r="1.12652" transform="rotate(-13.53 702.771 266.74)" fill="#7D7D7D"/>
<circle cx="704.142" cy="272.437" r="1.12652" transform="rotate(-13.53 704.142 272.437)" fill="#7D7D7D"/>
<circle cx="705.513" cy="278.133" r="1.12652" transform="rotate(-13.53 705.513 278.133)" fill="#7D7D7D"/>
<circle cx="706.884" cy="283.83" r="1.12652" transform="rotate(-13.53 706.884 283.83)" fill="#7D7D7D"/>
<circle cx="708.253" cy="289.526" r="1.12652" transform="rotate(-13.53 708.253 289.526)" fill="#7D7D7D"/>
<circle cx="697.005" cy="213.892" r="1.12652" transform="rotate(-13.53 697.005 213.892)" fill="#7D7D7D"/>
<circle cx="698.376" cy="219.589" r="1.12652" transform="rotate(-13.53 698.376 219.589)" fill="#7D7D7D"/>
<circle cx="699.747" cy="225.285" r="1.12652" transform="rotate(-13.53 699.747 225.285)" fill="#7D7D7D"/>
<circle cx="701.119" cy="230.981" r="1.12652" transform="rotate(-13.53 701.119 230.981)" fill="#7D7D7D"/>
<circle cx="702.49" cy="236.677" r="1.12652" transform="rotate(-13.53 702.49 236.677)" fill="#7D7D7D"/>
<circle cx="703.861" cy="242.374" r="1.12652" transform="rotate(-13.53 703.861 242.374)" fill="#7D7D7D"/>
<circle cx="705.23" cy="248.07" r="1.12652" transform="rotate(-13.53 705.23 248.07)" fill="#7D7D7D"/>
<circle cx="706.601" cy="253.766" r="1.12652" transform="rotate(-13.53 706.601 253.766)" fill="#7D7D7D"/>
<circle cx="707.972" cy="259.463" r="1.12652" transform="rotate(-13.53 707.972 259.463)" fill="#7D7D7D"/>
<circle cx="709.343" cy="265.159" r="1.12652" transform="rotate(-13.53 709.343 265.159)" fill="#7D7D7D"/>
<circle cx="710.714" cy="270.856" r="1.12652" transform="rotate(-13.53 710.714 270.856)" fill="#7D7D7D"/>
<circle cx="712.083" cy="276.552" r="1.12652" transform="rotate(-13.53 712.083 276.552)" fill="#7D7D7D"/>
<circle cx="713.455" cy="282.248" r="1.12652" transform="rotate(-13.53 713.455 282.248)" fill="#7D7D7D"/>
<circle cx="714.826" cy="287.944" r="1.12652" transform="rotate(-13.53 714.826 287.944)" fill="#7D7D7D"/>
<circle cx="703.578" cy="212.311" r="1.12652" transform="rotate(-13.53 703.578 212.311)" fill="#7D7D7D"/>
<circle cx="704.949" cy="218.007" r="1.12652" transform="rotate(-13.53 704.949 218.007)" fill="#7D7D7D"/>
<circle cx="706.32" cy="223.703" r="1.12652" transform="rotate(-13.53 706.32 223.703)" fill="#7D7D7D"/>
<circle cx="707.691" cy="229.4" r="1.12652" transform="rotate(-13.53 707.691 229.4)" fill="#7D7D7D"/>
<circle cx="709.06" cy="235.096" r="1.12652" transform="rotate(-13.53 709.06 235.096)" fill="#7D7D7D"/>
<circle cx="710.431" cy="240.793" r="1.12652" transform="rotate(-13.53 710.431 240.793)" fill="#7D7D7D"/>
<circle cx="711.802" cy="246.489" r="1.12652" transform="rotate(-13.53 711.802 246.489)" fill="#7D7D7D"/>
<circle cx="713.173" cy="252.185" r="1.12652" transform="rotate(-13.53 713.173 252.185)" fill="#7D7D7D"/>
<circle cx="714.544" cy="257.882" r="1.12652" transform="rotate(-13.53 714.544 257.882)" fill="#7D7D7D"/>
<circle cx="715.914" cy="263.578" r="1.12652" transform="rotate(-13.53 715.914 263.578)" fill="#7D7D7D"/>
<circle cx="717.285" cy="269.274" r="1.12652" transform="rotate(-13.53 717.285 269.274)" fill="#7D7D7D"/>
<circle cx="718.656" cy="274.97" r="1.12652" transform="rotate(-13.53 718.656 274.97)" fill="#7D7D7D"/>
<circle cx="720.027" cy="280.667" r="1.12652" transform="rotate(-13.53 720.027 280.667)" fill="#7D7D7D"/>
<circle cx="721.398" cy="286.363" r="1.12652" transform="rotate(-13.53 721.398 286.363)" fill="#7D7D7D"/>
<circle cx="670.72" cy="220.217" r="1.12652" transform="rotate(-13.53 670.72 220.217)" fill="#7D7D7D"/>
<circle cx="672.091" cy="225.914" r="1.12652" transform="rotate(-13.53 672.091 225.914)" fill="#7D7D7D"/>
<circle cx="673.462" cy="231.61" r="1.12652" transform="rotate(-13.53 673.462 231.61)" fill="#7D7D7D"/>
<circle cx="674.831" cy="237.306" r="1.12652" transform="rotate(-13.53 674.831 237.306)" fill="#7D7D7D"/>
<circle cx="676.203" cy="243.003" r="1.12652" transform="rotate(-13.53 676.203 243.003)" fill="#7D7D7D"/>
<circle cx="677.574" cy="248.699" r="1.12652" transform="rotate(-13.53 677.574 248.699)" fill="#7D7D7D"/>
<circle cx="678.945" cy="254.396" r="1.12652" transform="rotate(-13.53 678.945 254.396)" fill="#7D7D7D"/>
<circle cx="680.316" cy="260.092" r="1.12652" transform="rotate(-13.53 680.316 260.092)" fill="#7D7D7D"/>
<circle cx="681.685" cy="265.788" r="1.12652" transform="rotate(-13.53 681.685 265.788)" fill="#7D7D7D"/>
<circle cx="683.056" cy="271.485" r="1.12652" transform="rotate(-13.53 683.056 271.485)" fill="#7D7D7D"/>
<circle cx="684.427" cy="277.181" r="1.12652" transform="rotate(-13.53 684.427 277.181)" fill="#7D7D7D"/>
<circle cx="685.798" cy="282.877" r="1.12652" transform="rotate(-13.53 685.798 282.877)" fill="#7D7D7D"/>
<circle cx="687.169" cy="288.573" r="1.12652" transform="rotate(-13.53 687.169 288.573)" fill="#7D7D7D"/>
<circle cx="688.54" cy="294.27" r="1.12652" transform="rotate(-13.53 688.54 294.27)" fill="#7D7D7D"/>
</g>
<circle cx="848.198" cy="293.435" r="23.6182" fill="#000025"/>
<circle cx="845.437" cy="292.893" r="23.6182" fill="#2E2A7A"/>
<path d="M855.198 283.124H835.669C834.532 283.124 831.34 287.106 829.887 289.096C834.311 294.342 843.576 304.833 845.244 304.833C847.33 304.833 860.791 290.044 860.981 289.096C861.132 288.338 857.189 284.799 855.198 283.124Z" fill="#FFB800" stroke="#CD2026" stroke-width="2"/>
</g>
<defs>
<clipPath id="clip0_601_31912">
<rect width="1536" height="564" fill="white"/>
</clipPath>
</defs>
</svg>
