<svg width="84" height="84" viewBox="0 0 84 84" fill="none" xmlns="http://www.w3.org/2000/svg">
<g filter="url(#filter0_d_1490_1729)">
<rect x="16" y="12" width="52" height="52" rx="26" fill="white" shape-rendering="crispEdges"/>
<path d="M49 45H35V34H49M46 27V29H38V27H36V29H35C33.89 29 33 29.89 33 31V45C33 45.5304 33.2107 46.0391 33.5858 46.4142C33.9609 46.7893 34.4696 47 35 47H49C49.5304 47 50.0391 46.7893 50.4142 46.4142C50.7893 46.0391 51 45.5304 51 45V31C51 29.89 50.1 29 49 29H48V27" fill="#343B45"/>
</g>
<defs>
<filter id="filter0_d_1490_1729" x="0" y="0" width="84" height="84" filterUnits="userSpaceOnUse" color-interpolation-filters="sRGB">
<feFlood flood-opacity="0" result="BackgroundImageFix"/>
<feColorMatrix in="SourceAlpha" type="matrix" values="0 0 0 0 0 0 0 0 0 0 0 0 0 0 0 0 0 0 127 0" result="hardAlpha"/>
<feOffset dy="4"/>
<feGaussianBlur stdDeviation="8"/>
<feComposite in2="hardAlpha" operator="out"/>
<feColorMatrix type="matrix" values="0 0 0 0 0 0 0 0 0 0 0 0 0 0 0 0 0 0 0.08 0"/>
<feBlend mode="normal" in2="BackgroundImageFix" result="effect1_dropShadow_1490_1729"/>
<feBlend mode="normal" in="SourceGraphic" in2="effect1_dropShadow_1490_1729" result="shape"/>
</filter>
</defs>
</svg>
